<svg xmlns="http://www.w3.org/2000/svg" viewBox="0 0 24 24" fill="#ffffff"><path d="M8.82 7.29c.01 0 0 0 0 0zm-2.8-1.4c.01 0 0 0 0 0zm16.76 2.16c-.5-1.22-1.53-2.53-2.33-2.95a12.06 12.06 0 0 1 1.17 3.54v.01c-1.31-3.27-3.54-4.6-5.36-7.47l-.28-.45a3.54 3.54 0 0 1-.13-.24 2.12 2.12 0 0 1-.17-.46.03.03 0 0 0-.02-.03.04.04 0 0 0-.03 0 .04.04 0 0 0-.01 0 8.5 8.5 0 0 0-3.93 5.86 6.2 6.2 0 0 0-2.3.58.3.3 0 0 0-.15.37.3.3 0 0 0 .4.17 5.62 5.62 0 0 1 2-.52h.07a5.85 5.85 0 0 1 1.96.22l.1.03a5.82 5.82 0 0 1 .6.23l.25.1.1.06a5.83 5.83 0 0 1 .37.21 5.95 5.95 0 0 1 2.04 2.1 4 4 0 0 0-2.8-.67c4.18 2.09 3.05 9.29-2.74 9.02a5.16 5.16 0 0 1-1.52-.3 4.42 4.42 0 0 1-.53-.23 4.91 4.91 0 0 1-2.74-3.8s.53-2 3.84-2c.36 0 1.38-1 1.4-1.3 0-.09-2.03-.9-2.82-1.67l-.8-.77a3.47 3.47 0 0 0-.3-.22 5.39 5.39 0 0 1-.03-2.84 8.6 8.6 0 0 0-2.8 2.16c-.47-.59-.44-2.51-.41-2.91 0-.03-.34.17-.39.2a10.17 10.17 0 0 0-2.22 2.28A9.82 9.82 0 0 0 .71 9.88a13.84 13.84 0 0 0-.23 1.34 7.8 7.8 0 0 0-.07.67v.03l-.02.4v.05a11.63 11.63 0 0 0 23.09 1.97l.05-.45c.23-2-.02-4.09-.75-5.84z"/></svg>