<svg xmlns="http://www.w3.org/2000/svg" viewBox="0 0 24 24" fill="#5800ff"><path d="m19.16 9.23-3.01 2.69v.52l3.01 2.7V13.9l-1.93-1.72 1.93-1.72V9.23m-6.65.04v1.21l1.9 1.7-1.9 1.7v1.2l2.96-2.64v-.52l-2.96-2.65M9.78 7.85a6.52 6.52 0 0 0-2.04-.34 6.5 6.5 0 0 0-2.03.34 9.23 9.23 0 0 0-2.08 1.01v.73a9.2 9.2 0 0 1 2.06-.9 7.39 7.39 0 0 1 2.05-.3c.69 0 1.37.1 2.06.3a9.45 9.45 0 0 1 2.07.9v-.73a9.23 9.23 0 0 0-2.09-1.01m.01 7.78a7.37 7.37 0 0 1-2.05.3 7.39 7.39 0 0 1-2.05-.3 9.18 9.18 0 0 1-2.07-.9v.72a9.23 9.23 0 0 0 2.1 1.02 6.5 6.5 0 0 0 2.02.34c.68 0 1.36-.12 2.04-.34a9.23 9.23 0 0 0 2.09-1.02v-.72c-.7.4-1.4.7-2.08.9m.6-11.23h-.5L7.28 6.92h1.19l1.67-1.62 1.67 1.62h1.2L10.4 4.4M7.43 18.06v-.82h-1v.83l.78 1.52h.62l-.4-1.52m-3.3-7.13v1.22h1v-1.22h-1m-1.16-1.7L0 11.9v.52l2.97 2.64v-1.2l-1.9-1.7 1.9-1.7v-1.2m20.68 3.28a1.9 1.9 0 0 0-1.02-.63c.4-.1.7-.28.9-.53.2-.24.31-.55.31-.92 0-.55-.2-.99-.59-1.32-.4-.33-.92-.49-1.57-.49-.22 0-.48.03-.76.07-.29.05-.61.12-.98.22v.84c.32-.12.62-.21.9-.27a4.05 4.05 0 0 1 .84-.1c.4 0 .71.1.93.29.22.18.33.45.33.8a.9.9 0 0 1-.36.76 1.5 1.5 0 0 1-.98.28h-.7v.75h.7c.46 0 .82.12 1.1.35.26.23.4.54.4.93 0 .42-.14.75-.4.98-.28.22-.66.33-1.16.33a3.55 3.55 0 0 1-.89-.11 4.4 4.4 0 0 1-.9-.36v.9a6.1 6.1 0 0 0 .94.26c.32.05.64.08.95.08a2.6 2.6 0 0 0 1.73-.53c.42-.35.63-.84.63-1.46 0-.45-.12-.82-.35-1.12"/></svg>
