<svg xmlns="http://www.w3.org/2000/svg" viewBox="0 0 24 24" fill="#ffffff"><path d="M10.98 13.84a.5.5 0 0 1-.35-.15l-.74-.74a.5.5 0 1 1 .7-.71l.4.39 1.17-1.18a.5.5 0 0 1 .71.7l-1.53 1.54a.5.5 0 0 1-.36.15zm9.36-.15 1.53-1.53a.5.5 0 0 0-.7-.71l-1.19 1.18-.39-.4a.5.5 0 1 0-.7.72l.74.74a.5.5 0 0 0 .7 0zM4.53 7.45l2.55-1.58a1 1 0 0 0 .01-1.7L4.53 2.56A1 1 0 0 0 3 3.41v3.2a1 1 0 0 0 1.53.84zm2.03-2.43L4 6.6V3.4l2.56 1.62zM24 12.5a3.5 3.5 0 0 1-3.5 3.5 3.5 3.5 0 0 1-3.46-3h-2.08a3.5 3.5 0 0 1-3.46 3 3.5 3.5 0 0 1-3.46-3h-.56c-.97 0-1.85-.4-2.48-1.04V17a3 3 0 0 0 3 3h.04a3.5 3.5 0 1 1 3.46 4 3.5 3.5 0 0 1-3.46-3H8a4 4 0 0 1-4-4V9.9A5 5 0 0 1 0 5a5 5 0 0 1 10 0 5 5 0 0 1-4.95 5 2.48 2.48 0 0 0 2.43 2h.56c.24-1.7 1.7-3 3.46-3a3.5 3.5 0 0 1 3.46 3h2.08a3.5 3.5 0 0 1 3.46-3 3.5 3.5 0 0 1 3.5 3.5zm-15 8a2.5 2.5 0 1 0 5 0 2.5 2.5 0 0 0-5 0zM5 9a4 4 0 1 0 0-8 4 4 0 0 0 0 8zm9 3.5a2.5 2.5 0 1 0-5 0 2.5 2.5 0 0 0 5 0zm9 0a2.5 2.5 0 1 0-5 0 2.5 2.5 0 0 0 5 0zm-13 8a.5.5 0 1 0 1 0 .5.5 0 0 0-1 0zm2 0a.5.5 0 1 0 1 0 .5.5 0 0 0-1 0zm12 0a3.5 3.5 0 0 1-3.5 3.5 3.5 3.5 0 0 1-3.46-3h-.02l-.5.02h-.02a.5.5 0 0 1-.02-1l.5-.02.06.01A3.5 3.5 0 0 1 20.5 17a3.5 3.5 0 0 1 3.5 3.5zm-1 0a2.5 2.5 0 1 0-5 0 2.5 2.5 0 0 0 5 0z"/></svg>