<svg xmlns="http://www.w3.org/2000/svg" fill="#7300ff" viewBox="0 0 24 24"><path d="M13.1 0c.07.08.12.11.15.16l1.7 2.53c.34.48.7.94 1.05 1.41l1.05 1.34c.4.52.8 1.04 1.17 1.58.47.7.95 1.39 1.35 2.12.35.62.63 1.28.9 1.95.18.47.31.96.45 1.45.06.23.08.47.11.7.05.28.12.57.13.86.01.74.08 1.5-.06 2.24a9 9 0 0 1-.74 2.36 8.83 8.83 0 0 1-5.86 4.98c-1.09.3-2.2.37-3.32.29a7 7 0 0 1-2-.37c-.53-.2-1.06-.4-1.56-.65-.4-.2-.78-.44-1.13-.72a8.16 8.16 0 0 1-2.25-2.43 8.85 8.85 0 0 1-1.29-3.18c-.2-.9-.13-1.83-.1-2.74.03-.53.17-1.05.3-1.56A13.7 13.7 0 0 1 5.5 7.4c.35-.53.73-1.05 1.12-1.55.3-.41.65-.8.96-1.21.32-.41.62-.83.93-1.25.32-.45.65-.89.96-1.34L10.65.33l.2-.22.05.02v3.01c0 .13-.06.29-.13.4-.3.48-.61.96-.94 1.42-.31.44-.65.86-.97 1.3l-.8 1.05c-.19.24-.39.48-.57.73l-.75 1.05c-.29.43-.57.87-.83 1.32-.18.32-.33.66-.48 1-.09.19-.17.38-.23.58l-.3 1.05A7.85 7.85 0 0 0 4.71 16c.03.5.22 1 .37 1.5.21.68.58 1.3 1 1.88a6.22 6.22 0 0 0 1.93 1.79 6.6 6.6 0 0 0 2.62.95c.57.08 1.15.06 1.72.09a6.69 6.69 0 0 0 5.2-2.4c.53-.6.97-1.28 1.25-2.03.3-.79.54-1.6.5-2.47-.02-.46 0-.94-.04-1.4-.03-.34-.13-.68-.22-1.02a9.7 9.7 0 0 0-.88-2.26 10.9 10.9 0 0 0-.52-.95 16.57 16.57 0 0 0-.74-1.08l-1.2-1.58a92.7 92.7 0 0 1-1.39-1.86c-.39-.54-.76-1.1-1.13-1.65a.61.61 0 0 1-.1-.32L13.07.16 13.1 0z"/></svg>
