<svg xmlns="http://www.w3.org/2000/svg" viewBox="0 0 24 24" fill="#ffffff"><path d="M24 11.99h-.03l-4.31-4.32 4.3-4.42V1.46L23.3.81h-8.2l-.66.6v1.05L12.02.03V0L12 .01 11.99 0v.03l-1.3 1.29-.53-.54H2.03l-.63.7v1.88l.61.61h.72v5.31l-2.7 2.7H0l.01.02-.01.01h.03l2.7 2.71v6.47l.91.52h2.32l1.86-1.9 4.17 4.16V24l.01-.01.01.01v-.03l2.51-2.5h.49c.11 0 .21-.08.25-.19l.14-.42a.26.26 0 0 0-.03-.24l1.46-1.46-.61 1.96a.27.27 0 0 0 .25.34h1.83c.1 0 .2-.06.24-.16l.17-.4a.27.27 0 0 0-.25-.36h-.08l.84-2.64h1.23l-1.01 3.22a.27.27 0 0 0 .25.34h2c.12 0 .21-.06.25-.17l.17-.43a.27.27 0 0 0-.25-.35h-.15l1.13-3.68a.26.26 0 0 0-.03-.24l-.38-.5a.27.27 0 0 0-.21-.1h-1.44a.27.27 0 0 0-.19.07l-.4.44h-.62l-.04-.04L23.97 12H24l-.01-.01.01-.01zM9.84 21.14l1.58-4.51h-.5l.3-.3h1.65l-1.56 4.55h.62l-.08.26H9.84zm3.7-7.52.14.15-.27.93-.22.22h-.97l-.18-.18.31-.87.29-.25h.9zm-7.95 7.2H3.88l-.27-.14V3.09H2.38l-.1-.1V1.81l.14-.15H9.8l.22.22v1.1l-.15.18H8.8v8.68l8.8-8.68h-2.08l-.18-.2V1.8l.12-.1h7.5l.12.13V2.9l-10.1 10.35h-.43a.26.26 0 0 0-.11.06l-.35.3a.27.27 0 0 0-.07.11l-.3.83-6.12 6.28zm14.77-3.94.47-.52h1.34l.3.41-1.26 4.11h.5l-.09.2h-1.78l1.12-3.55h-2.01l-1.08 3.39h.43l-.08.17h-1.6l1.1-3.55h-2.1l-1.05 3.34H15l-.07.21h-1.66l1.51-4.46h-.58l.09-.27h1.65l.52.54h.9l.5-.56h1.06l.48.54h.96z"/></svg>