<svg xmlns="http://www.w3.org/2000/svg" viewBox="0 0 24 24" fill="#7300ff"><path d="M3.27 8.52c0-.62.62-1 2.12-1l-.5 2.75c-.93-.62-1.62-1.2-1.62-1.75zm4 6.81c0 .65-.64 1.08-2.11 1.15l.52-2.92c.93.62 1.6 1.17 1.6 1.77zm-2.62 6 .46-2.71c3.6-.34 5-1.8 5-3.4 0-1.66-2-2.96-3.83-4.08l.66-3.55c.77.07 1.67.22 2.75.43l.3-2.47c-.8-.12-1.57-.17-2.28-.21l.55-2.64-2.37-.02-.45 2.68c-3.6.29-5.01 1.8-5.01 3.4 0 1.63 2 2.88 3.84 3.96l-.67 3.71c-.86-.04-1.9-.19-3.12-.4L0 18.49c1.03.13 1.98.2 2.84.22l-.53 2.59zm15.56-1.9h2.67c.33-2.8.8-8.46 1.12-14.86h-2.55c-.07 1.5-.34 10.5-.43 11.24h-.07l-1.82-6.78h-1.45c-.62 2.4-1.05 4.2-1.7 6.78h-.1c-.06-.74-.47-9.73-.52-11.24h-2.65c.31 6.4.77 12.06 1.1 14.86h2.63l1.83-7.12z"/></svg>
