<svg xmlns="http://www.w3.org/2000/svg" class="featureSvg_GfXr" viewBox="0 0 272 193"><defs><clipPath id="a"><path d="M127 75h221v193H127Zm0 0"/></clipPath><clipPath id="b"><path d="M76 104h187v164H76Zm0 0"/></clipPath><clipPath id="c"><path d="M105 169h210v88H105Zm0 0"/></clipPath></defs><g clip-path="url(#a)" transform="translate(-76 -75)"><path fill="#c30f2e" d="m237 75 111 193H127z"/></g><g clip-path="url(#b)" transform="translate(-76 -75)"><path fill="#dd0330" d="m170 104 93 164H76z"/></g><path fill="#fff" d="M253 144H19v-3h234z"/><g clip-path="url(#c)" transform="translate(-76 -75)"><path fill="#fff" d="m293 257-3-2c-4-4-4-21-4-48 0-14 0-34-2-35-2 1-2 17-3 28 0 12 0 25-2 32-1 2-1 3-3 3s-3-3-5-17l-2-14v-1l-3 11-3 13c-1 2-2 4-4 3-3 0-4-6-4-9 0-27-3-30-4-30-3 1-3 10-3 18l-1 20c-1 8-3 10-5 10-4 0-4-14-4-16v-2c0-3 0-9-2-11h-1l-3 6v1l-1 1c-1 3-2 7-4 8l-2-1-3-3-1-4-2-4-3-1c-3 1-3 4-3 8l-1 2-1 9c0 6-2 8-4 8-5 0-7-22-7-31 0-7-1-10-2-10l-2 4c3 22 1 47-4 52-1 2-3 2-5 0-4-4-4-21-4-48 0-14 0-34-2-35-2 1-3 17-3 28 0 12 0 25-2 32l-3 3c-2 0-3-3-5-17l-2-14v-1l-3 12-3 12c-1 2-2 4-4 3-3 0-4-6-4-9 0-27-4-30-4-30h-1c-2 1-2 10-2 18l-1 20c-2 8-3 10-5 10-4 0-4-14-4-16v-2c0-3 0-9-2-11h-1l-3 6-1 1a20 20 0 0 0 0 1c-1 3-2 7-4 8l-3-1-2-3a65 65 0 0 1-3-8l-3-1c-3 1-4 5-5 10v1l-2-1c0-5 1-11 7-12 2-1 5 0 6 2a51 51 0 0 1 2 8l2 2 3-6a26 26 0 0 1 0-2c2-3 3-7 6-8l3 1c3 3 3 9 3 13v2l1 13 2-8 1-19c0-11 0-19 4-21h3c4 2 6 13 6 33l1 7 2-2 3-12c1-10 2-14 5-14l2 3 3 15 2 14v-1c2-6 2-19 3-31 0-18 0-28 3-30l3-1c3 2 4 12 3 38 0 19 0 43 4 47h1v-1c4-4 7-27 4-49-1-3 1-6 2-7h4c2 1 3 5 3 12 0 12 3 26 4 28l2-5 1-9v-2c0-4 1-10 6-10 3-1 5 0 6 2l1 5 1 3 2 2 3-6v-1l1-1c1-3 2-7 5-8l3 1c3 3 3 9 3 13a57 57 0 0 0 0 2c0 7 1 11 2 13l1-8 1-19c0-11 1-19 5-21h2c4 2 6 13 6 33l2 7 1-2 3-12c2-10 3-14 5-14s2 2 3 3l2 15a121 121 0 0 0 3 13l2-31c0-18 0-28 3-30a3 3 0 0 1 3-1c4 2 4 12 4 38-1 19-1 43 3 47h1v-1c4-4 7-27 4-49l2-7 3-1c2 1 3 5 4 13a432 432 0 0 1 4 28l2-5h3c-2 6-4 8-5 8-3-1-4-6-6-22a428 428 0 0 0-3-19c-1 0-2 2-1 4 2 22 0 47-5 52l-2 2"/></g></svg>