<svg xmlns="http://www.w3.org/2000/svg" fill="none" viewBox="0 0 512 512"><g clip-path="url(#a)"><mask id="b" width="485" height="513" x="15" y="-1" maskUnits="userSpaceOnUse" style="mask-type:luminance"><path fill="#fff" d="M499 0H15v512h484V0Z"/></mask><g mask="url(#b)"><path fill="url(#c)" d="m497 86-18 272L313 0l184 86ZM381 438l-124 72-126-72 24-62h202l24 62ZM257 136l64 160H191l66-160ZM33 358 15 86 199 0 33 358Z"/><path fill="url(#d)" d="m497 86-18 272L313 0l184 86ZM381 438l-124 72-126-72 24-62h202l24 62ZM257 136l64 160H191l66-160ZM33 358 15 86 199 0 33 358Z"/></g></g><defs><linearGradient id="c" x1="121.8" x2="505.4" y1="463.8" y2="281.4" gradientUnits="userSpaceOnUse"><stop stop-color="#E40035"/><stop offset=".2" stop-color="#F60A48"/><stop offset=".4" stop-color="#F20755"/><stop offset=".5" stop-color="#DC087D"/><stop offset=".7" stop-color="#9717E7"/><stop offset="1" stop-color="#6C00F5"/></linearGradient><linearGradient id="d" x1="104.4" x2="355.4" y1="61.4" y2="348" gradientUnits="userSpaceOnUse"><stop stop-color="#FF31D9"/><stop offset="1" stop-color="#FF5BE1" stop-opacity="0"/></linearGradient><clipPath id="a"><path fill="#fff" d="M0 0h512v512H0z"/></clipPath></defs></svg>