<svg xmlns="http://www.w3.org/2000/svg" xmlns:xlink="http://www.w3.org/1999/xlink" viewBox="0 0 128 128"><defs><path id="b" fill="#BD202E" d="M74 59h-1 1Z"/><path id="c" fill="#BD202E" d="M75 53h1a9 9 0 0 0-1 0Z"/><path id="j" fill="#BD202E" d="M74 59Z"/><path id="l" fill="#BD202E" d="M75 53h1-1Z"/><path id="n" fill="#BD202E" d="M75 53Z"/></defs><path fill="url(#a)" d="M87 1c-2 1-6 4-10 9l4 7 8-10-8 10 15-2c1-8-2-11-2-11s-3-6-7-3Z"/><use xlink:href="#b"/><use xlink:href="#b" opacity=".3"/><use xlink:href="#c"/><use xlink:href="#c" opacity=".3"/><path fill="url(#d)" d="M70 35a220 220 0 0 1 3-6 172 172 0 0 1 4-6v-1a144 144 0 0 1 4-5l-4-7a71 71 0 0 0-1 1 157 157 0 0 0-3 4 201 201 0 0 0-4 6 233 233 0 0 0-3 5 215 215 0 0 0-4 5l5 10a214 214 0 0 1 3-6Z"/><path fill="url(#e)" d="M48 88a421 421 0 0 0-2 5v1l-1 5 3 4a8 8 0 0 0-2-5c7 0 13-2 16-7v-1l-6 2c5-2 7-4 9-8l2-2c-4 4-9 5-14 4l-4 1-1 1Z"/><path fill="url(#f)" d="m50 79 3-6a442 442 0 0 1 2-7 748 748 0 0 1 3-6l3-7a353 353 0 0 1 3-6l1-2 2-4-5-10a7 7 0 0 1 0 1 220 220 0 0 0-3 5 208 208 0 0 0-4 6 248 248 0 0 0-2 5l-1 1a144 144 0 0 0-2 6 116 116 0 0 0-3 7l-1 4-1 3a99 99 0 0 0-2 7l5 10 2-5v-2Z"/><path fill="url(#g)" d="m43 77-1 9-6-5c3 4 5 8 5 13l-6-1 6 3c-3 0-5 1-8 3 4-1 7-2 9-1a697 697 0 0 0 3-4v-2l2-5 1-1-5-10a7 7 0 0 1 0 1Z"/><path fill="url(#h)" d="M68 42h-1l-1 3a276 276 0 0 0-2 4 415 415 0 0 0-2 5 389 389 0 0 0-3 7l-3 6-2 7a412 412 0 0 0-3 6l-2 7 4-1h-1c5 0 11-4 15-8l5-7 3-7a98 98 0 0 0 3-7 14 14 0 0 1-5 2c4-2 7-5 9-9l-5 2a17 17 0 0 1-2 1 17 17 0 0 0 6-4 24 24 0 0 0 2-2v-2a43 43 0 0 0 2-3v-1l1-1a18 18 0 0 0 0-2l-6 2h4-4l-12 1v1Z"/><path fill="url(#i)" d="M81 17a182 182 0 0 0-3 6 248 248 0 0 0-4 6 281 281 0 0 0-3 6 332 332 0 0 0-3 6l12-1 7-5 1-2a75 75 0 0 0 3-6l3-6a30 30 0 0 0 1-3l1-3-15 2Z"/><use xlink:href="#j"/><use xlink:href="#j" opacity=".3"/><path fill="url(#k)" d="M74 59Z"/><use xlink:href="#l"/><use xlink:href="#l" opacity=".3"/><path fill="url(#m)" d="M75 53h1-1Z"/><use xlink:href="#n"/><use xlink:href="#n" opacity=".3"/><path fill="url(#o)" d="M75 53Z"/><defs><linearGradient id="a" x1="80.3" x2="107.1" y1="10.9" y2="3.4" gradientUnits="userSpaceOnUse"><stop stop-color="#F59723"/><stop offset=".3" stop-color="#F69822"/><stop offset=".8" stop-color="#E87726"/></linearGradient><linearGradient id="d" x1="21.6" x2="76.1" y1="131.2" y2="14.3" gradientUnits="userSpaceOnUse"><stop offset=".3" stop-color="#9C2063"/><stop offset=".6" stop-color="#C82037"/><stop offset=".8" stop-color="#CC2135"/><stop offset="1" stop-color="#E87726"/></linearGradient><linearGradient id="e" x1="39.9" x2="72.4" y1="122.5" y2="52.8" gradientUnits="userSpaceOnUse"><stop stop-color="#282661"/><stop offset=".1" stop-color="#662E8C"/><stop offset=".8" stop-color="#9E2064"/><stop offset=".9" stop-color="#CC2032"/></linearGradient><linearGradient id="f" x1="23.6" x2="78.1" y1="124.1" y2="7.2" gradientUnits="userSpaceOnUse"><stop offset=".3" stop-color="#9C2063"/><stop offset=".6" stop-color="#C82037"/><stop offset=".8" stop-color="#CC2135"/><stop offset="1" stop-color="#E87726"/></linearGradient><linearGradient id="g" x1="29.1" x2="57.8" y1="116.3" y2="54.9" gradientUnits="userSpaceOnUse"><stop stop-color="#282661"/><stop offset=".1" stop-color="#662E8C"/><stop offset=".8" stop-color="#9E2064"/><stop offset=".9" stop-color="#CC2032"/></linearGradient><linearGradient id="h" x1="35.7" x2="90.2" y1="129.7" y2="12.8" gradientUnits="userSpaceOnUse"><stop offset=".3" stop-color="#9C2063"/><stop offset=".6" stop-color="#C82037"/><stop offset=".8" stop-color="#CC2135"/><stop offset="1" stop-color="#E87726"/></linearGradient><linearGradient id="i" x1="31.7" x2="86.2" y1="136.7" y2="19.8" gradientUnits="userSpaceOnUse"><stop offset=".3" stop-color="#9C2063"/><stop offset=".6" stop-color="#C82037"/><stop offset=".8" stop-color="#CC2135"/><stop offset="1" stop-color="#E87726"/></linearGradient><linearGradient id="k" x1="39.3" x2="93.8" y1="131.4" y2="14.5" gradientUnits="userSpaceOnUse"><stop offset=".3" stop-color="#9C2063"/><stop offset=".6" stop-color="#C82037"/><stop offset=".8" stop-color="#CC2135"/><stop offset="1" stop-color="#E87726"/></linearGradient><linearGradient id="m" x1="38.9" x2="93.4" y1="131.2" y2="14.3" gradientUnits="userSpaceOnUse"><stop offset=".3" stop-color="#9C2063"/><stop offset=".6" stop-color="#C82037"/><stop offset=".8" stop-color="#CC2135"/><stop offset="1" stop-color="#E87726"/></linearGradient><linearGradient id="o" x1="69.4" x2="81.5" y1="65.5" y2="39.7" gradientUnits="userSpaceOnUse"><stop offset=".3" stop-color="#9C2063"/><stop offset=".6" stop-color="#C82037"/><stop offset=".8" stop-color="#CC2135"/><stop offset="1" stop-color="#E87726"/></linearGradient></defs></svg>