<svg xmlns="http://www.w3.org/2000/svg" viewBox="0 0 128 128"><path fill="#bae6fa" d="M64 39c-12 0-25 4-39 11-2 3-4 7-3 10 1 11 19 18 42 16 22-2 39-12 38-23l-2-6c-13-6-24-9-36-8Z"/><path fill="#fff" d="M65 39c-10 0-19 2-30 7l-1 5c0 13 12 24 26 24 15 0 26-11 26-24 0-3 0-7-2-10l-19-2Z" opacity=".3"/><path fill="#fff" d="M60 38c-4-1-13 2-19 4a20 20 0 0 0-2 8c0 12 10 21 21 21s21-9 22-21c0-3-1-7-3-10l-19-2"/><path fill="#353333" d="m48 49 2-3v-2a2 2 0 0 1 3-2 17 17 0 0 1 14-3l2 1c-5-1-11 1-15 4l1 1c0 1-1 2-3 2l-3 4 7 4c0-4 3-7 7-7a7 7 0 0 1 7 5l5-3-1-2a2 2 0 0 1 3-2 18 18 0 0 0 1-4c-6-5-18-4-18-4s-9-1-15 2l3 9"/><path fill="#353333" d="m77 47 1 1-2 2-6 6c3 0 6 2 9 4l3-12c0-2-2-5-4-6l-1 5M52 66c1-3 3-5 6-7l-1-2a17 17 0 0 1-8-5 15 15 0 0 0 0 6 3 3 0 0 1 2 3l-1 2c0 2 1 2 2 3"/><path fill="#353333" d="m51 69-2-5a3 3 0 0 1-1 0c-2 0-3-2-3-3l2-2v-7l1-1c-2-3-3-7-3-10v-1c-4 2-6 4-6 8 0 9 5 18 12 21m19-12a7 7 0 0 1-7 5 7 7 0 0 1-4-2c-3 2-5 5-6 8l1 2h6c8 0 14-4 18-9-2-2-5-4-8-4"/><path fill="#1185b0" d="M48 50a17 17 0 0 1 2-4 2 2 0 0 1 2-3h1a17 17 0 0 1 16-2c-6-1-11 0-15 3a2 2 0 0 1-3 4 16 16 0 0 0-2 3l7 5a7 7 0 0 1 7-7c3 0 6 2 7 5a18 18 0 0 0 4-4 2 2 0 0 1 0-1 2 2 0 0 1 2-2 18 18 0 0 0 2-4c-6-5-18-4-18-4s-9-1-15 2l3 9"/><path fill="#1185b0" d="m77 47 1 2a2 2 0 0 1-2 2 17 17 0 0 1-5 5 17 17 0 0 1 8 4 21 21 0 0 0 2-11c0-2-1-5-3-6l-1 4M52 67a17 17 0 0 1 5-7 7 7 0 0 1-1-2 17 17 0 0 1-7-5 15 15 0 0 0-1 6 3 3 0 0 1 2 5 18 18 0 0 0 2 3"/><path fill="#1185b0" d="M51 69a17 17 0 0 1-3-4 3 3 0 0 1-3-3c0-2 1-3 2-3a17 17 0 0 1 0-6 17 17 0 0 1 0-2 17 17 0 0 1-3-9v-1c-3 2-5 5-5 8 0 9 5 16 12 20m19-11a7 7 0 0 1-7 5 7 7 0 0 1-4-2l-6 7a19 19 0 0 0 2 2 21 21 0 0 0 5 1c8 0 14-4 18-10-3-2-5-3-8-3"/><path fill="#fff" d="m61 50-4-7 2 7-6-4 5 5-7-2 5 4h-7l8 2-8 2h7l-6 5 7-3-5 6 6-5-2 8 4-6v7l2-7 2 8 1-8 3 6-2-6 6 4-4-6 7 3-5-5 6 1-6-3 6-2h-6l5-4-6 2 4-5-6 3 2-6-3 5-1-7-2 6-2-6zm0 0"/><path fill="#353333" d="M1 68c20-20 36-26 51-29l2-4 1 3c2 1 4-5 4-5s-2 5 0 5c1 1 4-4 4-4v4c1 1 5-6 5-6s-3 4-1 5c3 0 6-3 6-3s-3 3-1 3c5 2 9-4 9-4l-4 6c5 1 9-7 9-7l-4 8c3 1 11-8 11-8l-7 8c1 1 6-3 6-3s-4 5-2 5c2 2 10-9 10-9l-8 12c4 1 14-11 14-11s-1 4-8 10c5 0 12-10 12-10s-2 7-8 12c5 0 13-13 13-13s-3 9-9 14c7 2 17-9 17-9s-4 8-10 11c6 2 14-7 14-7s-8 12-20 11c-5 0-17-12-44-11-36 1-43 16-62 26" opacity=".3"/><path fill="#353333" d="M93 30s-8 9-10 8l4-8s-4 8-9 7l3-6s-4 7-9 5c-1-1 2-4 2-4s-3 4-6 3c-2 0 0-4 0-4l-4 6v-5s-3 5-5 5v-5s-1 5-3 5l-1-4s-1 4-3 5c-14 3-30 9-50 29 19-10 26-25 62-27 27-1 39 12 43 12 13 0 21-12 21-12s-8 9-14 7c5-3 9-10 9-10s-10 10-17 8c7-4 10-13 10-13s-8 12-13 13c5-5 8-13 8-13s-7 10-12 11c7-6 7-10 7-10s-9 12-13 10c5-5 8-11 8-11s-8 11-10 9c-2 0 2-5 2-5s-5 4-6 3l6-9zm13 23c-1 0-2 0-3 2-6 12-19 18-35 21-15 2-26-1-35-4-13-3-22 3-33-3 2 2 5 4 13 4l13 1c2 2-5 8-5 8s12-10 13-6c1 2-3 8-3 8s4-6 7-7c2-1 4-1 5 1 1 1-4 8-4 8s7-7 9-7v7l4-7c2-1-5 16-5 16s9-16 11-16c2-1 4 11 4 11V79c9-4 4 18 4 18s6-15 2-18c10 6 9 18 9 18s2-6-5-19c4 0 10 10 10 10s-6-11-2-12c8 0 9 15 9 15s3-2-4-17c4-3 15 14 15 14s-10-16-9-17c2-1 8 5 8 5s-5-6-4-7c2 0 13 12 13 12s-10-12-8-13c1-1 4 0 6 2-3-3-8-6-6-7 3-1 12 4 12 4s-6-4-5-5c1-2 12 6 12 6s-10-7-10-9c-1-2 7 1 7 1l-9-5 6 1s-4-3-7-3zm0 17a110 110 0 0 0 3 2l-3-2z"/><path fill="#353333" d="M0 71c11 5 21-1 33 2 9 3 21 6 36 4s28-9 35-21c2-5 9 1 9 1l-5-1 8 5s-7-2-7 0l10 9-11-7c-1 1 4 5 4 5s-9-5-12-4c-2 1 9 9 9 9s-7-6-9-4c-2 1 8 13 8 13S97 70 96 71l3 6s-6-6-7-5c-2 1 8 17 8 17S90 73 85 75c7 15 4 17 4 17s0-15-9-14c-4 0 2 11 2 11s-6-10-9-10c7 13 4 19 4 19s1-12-8-18c3 3-3 18-3 18s6-22-3-18c-2 1-1 11-1 11s-1-11-4-11c-2 1-10 16-10 16s7-17 5-16-5 8-5 8 2-7 0-8l-9 8s6-7 5-9c-2-2-4-2-6-1-3 1-7 7-7 7l4-8c-2-4-14 7-14 7s7-7 6-9l-13-1c-8 0-11-1-14-3" opacity=".3"/></svg>