<svg xmlns="http://www.w3.org/2000/svg" xmlns:xlink="http://www.w3.org/1999/xlink" viewBox="0 0 128 128"><defs><path id="a" d="M0 0h128v128H0z"/><path id="d" fill="#be202e" d="m44 54-1 1v-1h1Zm0 0"/><path id="f" fill="#be202e" d="M42 49Zm0 0"/><path id="h" fill="#be202e" d="M43 54v1a6 6 0 0 1 0-1Zm0 0"/><path id="k" fill="#be202e" d="M80 63h-2 2Zm0 0"/><path id="m" fill="#be202e" d="M82 57h1-1Zm0 0"/><path id="o" fill="#be202e" d="M79 63h-1a7 7 0 0 1 1 0Zm0 0"/></defs><defs><linearGradient id="p" x1="-7274.8" x2="-7243.9" y1="2082.5" y2="2046.3" gradientTransform="matrix(-.092 -.464 -.464 .092 318.72 -3557.936)" gradientUnits="userSpaceOnUse"><stop offset="0" stop-color="#f69923"/><stop offset=".3" stop-color="#f79a23"/><stop offset=".8" stop-color="#e97826"/></linearGradient><linearGradient id="u" x1="-7503.7" x2="-7283" y1="2086.6" y2="2086.6" gradientTransform="matrix(-.092 -.464 -.464 .092 318.72 -3557.936)" gradientUnits="userSpaceOnUse"><stop offset=".3" stop-color="#9e2064"/><stop offset=".6" stop-color="#c92037"/><stop offset=".8" stop-color="#cd2335"/><stop offset="1" stop-color="#e97826"/></linearGradient><linearGradient id="v" x1="-7477.1" x2="-7345.6" y1="2064.4" y2="2064.4" gradientTransform="matrix(-.092 -.464 -.464 .092 318.72 -3557.936)" gradientUnits="userSpaceOnUse"><stop offset="0" stop-color="#282662"/><stop offset=".1" stop-color="#662e8d"/><stop offset=".8" stop-color="#9f2064"/><stop offset=".9" stop-color="#cd2032"/></linearGradient><linearGradient id="w" x1="-7491.3" x2="-7270.6" y1="2088.6" y2="2088.6" gradientTransform="matrix(-.092 -.464 -.464 .092 318.72 -3557.936)" gradientUnits="userSpaceOnUse"><stop offset=".3" stop-color="#9e2064"/><stop offset=".6" stop-color="#c92037"/><stop offset=".8" stop-color="#cd2335"/><stop offset="1" stop-color="#e97826"/></linearGradient><linearGradient id="x" x1="-7475.2" x2="-7359.2" y1="2085.6" y2="2085.6" gradientTransform="matrix(-.092 -.464 -.464 .092 318.72 -3557.936)" gradientUnits="userSpaceOnUse"><stop offset="0" stop-color="#282662"/><stop offset=".1" stop-color="#662e8d"/><stop offset=".8" stop-color="#9f2064"/><stop offset=".9" stop-color="#cd2032"/></linearGradient><linearGradient id="y" x1="-7491.3" x2="-7270.6" y1="2065.8" y2="2065.8" gradientTransform="matrix(-.092 -.464 -.464 .092 318.72 -3557.936)" gradientUnits="userSpaceOnUse"><stop offset=".3" stop-color="#9e2064"/><stop offset=".6" stop-color="#c92037"/><stop offset=".8" stop-color="#cd2335"/><stop offset="1" stop-color="#e97826"/></linearGradient><linearGradient id="z" x1="-7505" x2="-7284.3" y1="2066.9" y2="2066.9" gradientTransform="matrix(-.092 -.464 -.464 .092 318.72 -3557.936)" gradientUnits="userSpaceOnUse"><stop offset=".3" stop-color="#9e2064"/><stop offset=".6" stop-color="#c92037"/><stop offset=".8" stop-color="#cd2335"/><stop offset="1" stop-color="#e97826"/></linearGradient><linearGradient id="C" x1="-7491.3" x2="-7270.6" y1="2059" y2="2059" gradientTransform="matrix(-.092 -.464 -.464 .092 318.72 -3557.936)" gradientUnits="userSpaceOnUse"><stop offset=".3" stop-color="#9e2064"/><stop offset=".6" stop-color="#c92037"/><stop offset=".8" stop-color="#cd2335"/><stop offset="1" stop-color="#e97826"/></linearGradient><linearGradient id="F" x1="-7491.3" x2="-7270.6" y1="2059.8" y2="2059.8" gradientTransform="matrix(-.092 -.464 -.464 .092 318.72 -3557.936)" gradientUnits="userSpaceOnUse"><stop offset=".3" stop-color="#9e2064"/><stop offset=".6" stop-color="#c92037"/><stop offset=".8" stop-color="#cd2335"/><stop offset="1" stop-color="#e97826"/></linearGradient><linearGradient id="G" x1="-8307.6" x2="-8276.7" y1="2040" y2="2003.8" gradientTransform="matrix(.296 -.448 -.448 -.296 3456.332 -3102.04)" gradientUnits="userSpaceOnUse"><stop offset="0" stop-color="#f69923"/><stop offset=".3" stop-color="#f79a23"/><stop offset=".8" stop-color="#e97826"/></linearGradient><linearGradient id="L" x1="-8536.5" x2="-8315.9" y1="2044.1" y2="2044.1" gradientTransform="matrix(.296 -.448 -.448 -.296 3456.332 -3102.04)" gradientUnits="userSpaceOnUse"><stop offset=".3" stop-color="#9e2064"/><stop offset=".6" stop-color="#c92037"/><stop offset=".8" stop-color="#cd2335"/><stop offset="1" stop-color="#e97826"/></linearGradient><linearGradient id="M" x1="-8509.9" x2="-8378.4" y1="2021.9" y2="2021.9" gradientTransform="matrix(.296 -.448 -.448 -.296 3456.332 -3102.04)" gradientUnits="userSpaceOnUse"><stop offset="0" stop-color="#282662"/><stop offset=".1" stop-color="#662e8d"/><stop offset=".8" stop-color="#9f2064"/><stop offset=".9" stop-color="#cd2032"/></linearGradient><linearGradient id="N" x1="-8524.1" x2="-8303.5" y1="2046.1" y2="2046.1" gradientTransform="matrix(.296 -.448 -.448 -.296 3456.332 -3102.04)" gradientUnits="userSpaceOnUse"><stop offset=".3" stop-color="#9e2064"/><stop offset=".6" stop-color="#c92037"/><stop offset=".8" stop-color="#cd2335"/><stop offset="1" stop-color="#e97826"/></linearGradient><linearGradient id="O" x1="-8508" x2="-8392.1" y1="2043.1" y2="2043.1" gradientTransform="matrix(.296 -.448 -.448 -.296 3456.332 -3102.04)" gradientUnits="userSpaceOnUse"><stop offset="0" stop-color="#282662"/><stop offset=".1" stop-color="#662e8d"/><stop offset=".8" stop-color="#9f2064"/><stop offset=".9" stop-color="#cd2032"/></linearGradient><linearGradient id="P" x1="-8524.1" x2="-8303.5" y1="2023.3" y2="2023.3" gradientTransform="matrix(.296 -.448 -.448 -.296 3456.332 -3102.04)" gradientUnits="userSpaceOnUse"><stop offset=".3" stop-color="#9e2064"/><stop offset=".6" stop-color="#c92037"/><stop offset=".8" stop-color="#cd2335"/><stop offset="1" stop-color="#e97826"/></linearGradient><linearGradient id="Q" x1="-8537.8" x2="-8317.2" y1="2024.4" y2="2024.4" gradientTransform="matrix(.296 -.448 -.448 -.296 3456.332 -3102.04)" gradientUnits="userSpaceOnUse"><stop offset=".3" stop-color="#9e2064"/><stop offset=".6" stop-color="#c92037"/><stop offset=".8" stop-color="#cd2335"/><stop offset="1" stop-color="#e97826"/></linearGradient><linearGradient id="T" x1="-8524.1" x2="-8303.5" y1="2016.5" y2="2016.5" gradientTransform="matrix(.296 -.448 -.448 -.296 3456.332 -3102.04)" gradientUnits="userSpaceOnUse"><stop offset=".3" stop-color="#9e2064"/><stop offset=".6" stop-color="#c92037"/><stop offset=".8" stop-color="#cd2335"/><stop offset="1" stop-color="#e97826"/></linearGradient><clipPath id="c"><use xlink:href="#a"/></clipPath><clipPath id="e"><use xlink:href="#a"/></clipPath><clipPath id="g"><use xlink:href="#a"/></clipPath><clipPath id="i"><use xlink:href="#a"/></clipPath><clipPath id="j"><use xlink:href="#a"/></clipPath><clipPath id="l"><use xlink:href="#a"/></clipPath><clipPath id="n"><use xlink:href="#a"/></clipPath><mask id="r"><g filter="url(#b)"><use xlink:href="#a" fill-opacity=".3"/></g></mask><mask id="t"><g filter="url(#b)"><use xlink:href="#a" fill-opacity=".3"/></g></mask><mask id="B"><g filter="url(#b)"><use xlink:href="#a" fill-opacity=".3"/></g></mask><mask id="E"><g filter="url(#b)"><use xlink:href="#a" fill-opacity=".3"/></g></mask><mask id="I"><g filter="url(#b)"><use xlink:href="#a" fill-opacity=".3"/></g></mask><mask id="K"><g filter="url(#b)"><use xlink:href="#a" fill-opacity=".3"/></g></mask><mask id="S"><g filter="url(#b)"><use xlink:href="#a" fill-opacity=".3"/></g></mask><g id="q" clip-path="url(#c)"><use xlink:href="#d"/></g><g id="s" clip-path="url(#e)"><use xlink:href="#f"/></g><g id="A" clip-path="url(#g)"><use xlink:href="#h"/></g><g id="D" clip-path="url(#i)"><use xlink:href="#f"/></g><g id="H" clip-path="url(#j)"><use xlink:href="#k"/></g><g id="J" clip-path="url(#l)"><use xlink:href="#m"/></g><g id="R" clip-path="url(#n)"><use xlink:href="#o"/></g><filter id="b" width="100%" height="100%" x="0%" y="0%" filterUnits="objectBoundingBox"><feColorMatrix in="SourceGraphic" values="0 0 0 0 1 0 0 0 0 1 0 0 0 0 1 0 0 0 1 0"/></filter></defs><path fill="url(#p)" d="M24 10a38 38 0 0 0-2 11l6 3a72 72 0 0 1 0-11 64 64 0 0 0 0 10 111 111 0 0 0 9-8 12 12 0 0 0-7-6s-5-2-6 1Zm0 0"/><use xlink:href="#d"/><use xlink:href="#q" mask="url(#r)"/><use xlink:href="#f"/><use xlink:href="#s" mask="url(#t)"/><path fill="url(#u)" d="M30 40a232 232 0 0 1-1-5 112 112 0 0 1-1-6 90 90 0 0 1 0-5l-6-3v1a132 132 0 0 0 1 20l7 4v-6Zm0 0"/><path fill="url(#v)" d="m41 85 1 5v1l2 3a8 8 0 0 1 4 2 6 6 0 0 0-4-3 13 13 0 0 0 7-12 16 16 0 0 0 0-1 5 5 0 0 1-3 5 15 15 0 0 0 2-10 30 30 0 0 0 0-2 12 12 0 0 1-7 10l-2 2Zm0 0"/><path fill="url(#w)" d="m38 79-2-6a361 361 0 0 1-1-5l-1-5-2-6-1-6v-2l-1-3-7-4v5a181 181 0 0 0 2 10v1a110 110 0 0 0 2 11l1 3 1 3a74 74 0 0 0 3 6l7 3-1-4v-1Zm0 0"/><path fill="url(#x)" d="M32 81a59 59 0 0 0 3 6v1a16 16 0 0 0-5-1 21 21 0 0 1 9 6 10 10 0 0 1-4 2 10 10 0 0 0 4-1 12 12 0 0 0-3 6 12 12 0 0 1 5-5 557 557 0 0 0 0-3v-2a750 750 0 0 1-1-4l-1-2-7-3Zm0 0"/><path fill="url(#y)" d="M31 46v1l1 2v3l1 1v4l2 6 1 5 1 6 2 5a632 632 0 0 0 2 6l2-3v1a22 22 0 0 0 5-13 30 30 0 0 0 0-7 47 47 0 0 0-1-6 78 78 0 0 0-2-6 12 12 0 0 1-1 3h-1v1a14 14 0 0 0 1-10 13 13 0 0 1-2 4 14 14 0 0 0 1-3v-2a10 10 0 0 0 0-2v-1a41 41 0 0 0 0-3l-1-1v-1a10 10 0 0 0 0-1 2 2 0 0 1-1 0 15 15 0 0 1-2 4l2-2-2 2a4 4 0 0 0-1 0l-7 7Zm0 0"/><path fill="url(#z)" d="M28 23a179 179 0 0 0 2 17l1 6 7-7a12 12 0 0 0 2-6v-2a56 56 0 0 0 0-6 49 49 0 0 0-2-5 28 28 0 0 0 0-3 32 32 0 0 0-1-2 115 115 0 0 1-9 8Zm0 0"/><use xlink:href="#h"/><use xlink:href="#A" mask="url(#B)"/><path fill="url(#C)" d="M43 54v1a6 6 0 0 1 0-1Zm0 0"/><use xlink:href="#f"/><use xlink:href="#D" mask="url(#E)"/><path fill="url(#F)" d="M42 49Zm0 0"/><path fill="url(#G)" d="M99 12a43 43 0 0 0-10 7l2 7a80 80 0 0 1 9-8v-1 1a72 72 0 0 0-8 8h13a14 14 0 0 0 0-10s-2-6-6-4Zm0 0"/><use xlink:href="#k"/><use xlink:href="#H" mask="url(#I)"/><use xlink:href="#m"/><use xlink:href="#J" mask="url(#K)"/><path fill="url(#L)" d="M79 40a319 319 0 0 1 4-5 139 139 0 0 1 4-5 135 135 0 0 1 4-4l-2-7-1 1a137 137 0 0 0-4 3 222 222 0 0 0-4 4 220 220 0 0 0-4 5 261 261 0 0 0-4 4l3 9 4-5Zm0 0"/><path fill="url(#M)" d="m52 86-2 4-1 1-2 4a9 9 0 0 1 3 4 7 7 0 0 0-2-5c7 1 12 1 16-4l1-1a6 6 0 0 1-6 2 17 17 0 0 0 9-6 36 36 0 0 0 2-2 14 14 0 0 1-14 2h-3l-1 1Zm0 0"/><path fill="url(#N)" d="m55 78 3-6a296 296 0 0 1 3-5l4-5a282 282 0 0 1 3-6l4-5a87 87 0 0 1 1-2l2-4-3-9-4 5-3 5a265 265 0 0 0-3 4l-1 1-3 5a113 113 0 0 0-4 6 134 134 0 0 0-1 3l-2 3a85 85 0 0 0-2 6l3 10 2-5 1-1Zm0 0"/><path fill="url(#O)" d="M49 75a68 68 0 0 0-3 8 18 18 0 0 0-4-5 24 24 0 0 1 3 12 11 11 0 0 1-5-2 11 11 0 0 0 4 4 14 14 0 0 0-7 2 14 14 0 0 1 8 0l-13 26a3 3 0 0 0 2-1l14-28 1-1v-1l2-4 1-1-3-10v1Zm0 0"/><path fill="url(#P)" d="m76 46-1 1-1 2a208 208 0 0 1-2 3v1l-3 4a348 348 0 0 0-3 5 503 503 0 0 0-4 6l-3 5-3 6a530 530 0 0 0-3 6h3a25 25 0 0 0 14-6 34 34 0 0 0 6-5 55 55 0 0 0 4-6 87 87 0 0 0 3-6l-3 1h-2a15 15 0 0 0 10-7 14 14 0 0 1-5 1h-2a16 16 0 0 0 4-1l1-1h1l1-1 1-1v-1h1a41 41 0 0 0 1-3l1-1v-1l1-1v-1a2 2 0 0 1 0 1 17 17 0 0 1-5 0l3 1-3-1a6 6 0 0 0-1 0H76Zm0 0"/><path fill="url(#Q)" d="M92 26a161 161 0 0 0-4 4l-1 1a179 179 0 0 0-4 5l-3 5-4 5h11a14 14 0 0 0 7-3 45 45 0 0 0 1-2 66 66 0 0 0 4-5 56 56 0 0 0 4-5 30 30 0 0 0 1-3l1-2H92Zm0 0"/><use xlink:href="#o"/><use xlink:href="#R" mask="url(#S)"/><path fill="url(#T)" d="M79 63h-1a7 7 0 0 1 1 0Zm0 0"/></svg>