<svg xmlns="http://www.w3.org/2000/svg" fill="none" viewBox="0 0 128 128"><path fill="url(#a)" d="m82 9 2 7 22 71c-8-4-17-7-26-9L66 30a2 2 0 0 0-4 0L48 78c-9 2-18 5-26 9l22-71 2-7 4-2 6-1h16l6 1 4 2Z"/><path fill="#FF5D01" d="M84 90c-3 3-11 5-19 5-10 0-18-3-21-7l-1 7s0 8 6 15a6 6 0 0 1 6-6c5 0 5 5 5 8v1c0 5 4 10 9 12l-2-5c0-5 4-7 7-10a17 17 0 0 0 11-15l-1-5Z"/><path fill="url(#b)" d="M84 90c-3 3-11 5-19 5-10 0-18-3-21-7l-1 7s0 8 6 15a6 6 0 0 1 6-6c5 0 5 5 5 8v1c0 5 4 10 9 12l-2-5c0-5 4-7 7-10a17 17 0 0 0 11-15l-1-5Z"/><defs><linearGradient id="a" x1="88.3" x2="63.9" y1="2.7" y2="86.7" gradientUnits="userSpaceOnUse"><stop stop-color="#EBEBFF"/><stop offset="1" stop-color="#9946EC"/></linearGradient><linearGradient id="b" x1="100.2" x2="79" y1="65.3" y2="109.5" gradientUnits="userSpaceOnUse"><stop stop-color="#FF1639"/><stop offset="1" stop-color="#FF1639" stop-opacity="0"/></linearGradient></defs></svg>