<svg xmlns="http://www.w3.org/2000/svg" viewBox="0 0 128 128"><defs><linearGradient id="a" x1="883" x2="639" y1="27.1" y2="866.9" gradientTransform="scale(.1)" gradientUnits="userSpaceOnUse"><stop offset="0" stop-color="#000014"/><stop offset="1" stop-color="#150426"/></linearGradient><linearGradient id="b" x1="1001.7" x2="790.3" y1="652.5" y2="1094.9" gradientTransform="scale(.1)" gradientUnits="userSpaceOnUse"><stop offset="0" stop-color="#ff1639"/><stop offset="1" stop-color="#ff1639" stop-opacity="0"/></linearGradient></defs><path fill="url(#a)" d="m82 9 2 7 22 71a90 90 0 0 0-26-9L66 30a2 2 0 0 0-4 0L48 78a90 90 0 0 0-26 9l22-71 2-7a8 8 0 0 1 4-2l6-1h16l6 1a8 8 0 0 1 4 2Zm0 0"/><path fill="#ff5d01" d="M84 90c-3 3-11 5-19 5-10 0-18-3-21-7l-1 7s0 8 6 15a6 6 0 0 1 6-6c5 0 5 5 5 8v1c0 5 4 10 9 12a12 12 0 0 1-2-5c0-5 4-7 7-10 3-1 7-4 9-8a16 16 0 0 0 2-7 16 16 0 0 0-1-5Zm0 0"/><path fill="url(#b)" d="M84 90c-3 3-11 5-19 5-10 0-18-3-21-7l-1 7s0 8 6 15a6 6 0 0 1 6-6c5 0 5 5 5 8v1c0 5 4 10 9 12a12 12 0 0 1-2-5c0-5 4-7 7-10 3-1 7-4 9-8a16 16 0 0 0 2-7 16 16 0 0 0-1-5Zm0 0"/></svg>