<svg xmlns="http://www.w3.org/2000/svg" fill="none" viewBox="0 0 100 60"><path fill="#C2CCDB" d="M28.2 21.7c0 1.2.1 2.2.3 3l1.1 2.4c.2.2.2.5.2.7 0 .4-.2.7-.6 1l-2 1.4-1 .3c-.3 0-.6-.1-1-.4l-1.1-1.6-1-2c-2.7 3.1-6 4.6-9.9 4.6a9 9 0 0 1-6.6-2.4 8.5 8.5 0 0 1-2.5-6.3c0-2.9 1-5.2 3-6.9 2-1.7 4.8-2.6 8.2-2.6a26.3 26.3 0 0 1 7.4 1v-2.4c0-2.6-.6-4.3-1.6-5.3s-2.9-1.6-5.4-1.6a26.5 26.5 0 0 0-8.3 2 2 2 0 0 1-.6.1c-.5 0-.7-.3-.7-1V4c0-.6 0-1 .2-1.2.2-.2.5-.5 1-.7a20.2 20.2 0 0 1 9.4-2c3.9 0 6.8.9 8.7 2.7 1.8 1.8 2.7 4.5 2.7 8.1v10.8Zm-13.5 5c1 0 2.2-.1 3.4-.5a7.4 7.4 0 0 0 3.2-2.2c.5-.6.9-1.3 1-2a9 9 0 0 0 .4-3v-1.4a27.7 27.7 0 0 0-6.2-.7 8 8 0 0 0-5 1.3c-1 .9-1.5 2.2-1.5 3.8 0 1.6.4 2.7 1.2 3.5.8.9 2 1.3 3.5 1.3Zm26.7 3.7c-.6 0-1-.1-1.3-.4a3 3 0 0 1-.7-1.3L31.6 3l-.3-1.3c0-.5.3-.8.8-.8h3.3c.6 0 1 0 1.3.3l.6 1.3 5.6 22 5.2-22c.2-.7.4-1.1.6-1.3.3-.2.8-.3 1.4-.3h2.6c.7 0 1 0 1.4.3.2.2.5.7.6 1.3l5.2 22.3 5.8-22.3c.2-.7.4-1.1.7-1.3.2-.2.7-.3 1.3-.3h3c.6 0 .9.2.9.8v.5l-.3.9-8 25.7c-.2.6-.5 1-.7 1.3-.3.2-.7.3-1.3.3h-2.9c-.6 0-1-.1-1.3-.3-.2-.3-.5-.7-.6-1.4L51.3 7.3l-5 21.4-.7 1.3c-.3.3-.8.4-1.4.4h-2.8Zm42.7.9a22 22 0 0 1-9-2 3 3 0 0 1-1-.9l-.2-1v-1.6c0-.7.3-1 .8-1h.6l.8.4a18.1 18.1 0 0 0 7.7 1.5 9 9 0 0 0 4.8-1 3.6 3.6 0 0 0 1.7-3.2 3 3 0 0 0-.9-2.3 8.3 8.3 0 0 0-3.3-1.8L81.3 17a9.7 9.7 0 0 1-5.4-3.4 8 8 0 0 1 1.7-11.2c1-.8 2.1-1.3 3.4-1.7a14.5 14.5 0 0 1 6.4-.5 36.5 36.5 0 0 1 4.1 1c.6.1 1 .3 1.4.5.5.3.8.6 1 .9.2.2.3.6.3 1v1.6c0 .7-.3 1-.8 1-.2 0-.7 0-1.2-.3-2-.9-4-1.3-6.4-1.3-2 0-3.4.3-4.4 1-1 .6-1.6 1.5-1.6 2.9 0 1 .3 1.7 1 2.3a10 10 0 0 0 3.7 1.9l4.7 1.5c2.4.7 4.1 1.8 5.1 3.2 1 1.3 1.6 2.9 1.6 4.6 0 1.4-.3 2.7-.9 3.9a9 9 0 0 1-2.4 2.9c-1 .8-2.3 1.4-3.7 1.9-1.5.4-3 .7-4.8.7Z"/><path fill="#F90" fill-rule="evenodd" d="M90.4 47.4A73.3 73.3 0 0 1 .4 41c-1-.9 0-2.2 1.2-1.4A98.8 98.8 0 0 0 88.8 45c1.8-.8 3.4 1.2 1.6 2.5Z" clip-rule="evenodd"/><path fill="#F90" fill-rule="evenodd" d="M95 42.2c-1.4-1.8-9.3-.8-12.8-.4-1.1.1-1.3-.8-.3-1.5 6.2-4.4 16.5-3.1 17.7-1.7 1.2 1.5-.3 11.8-6.2 16.7-.9.8-1.7.4-1.3-.6 1.3-3.3 4.3-10.7 2.9-12.5Z" clip-rule="evenodd"/></svg>