<svg xmlns="http://www.w3.org/2000/svg" viewBox="0 0 128 128"><path fill="#252f3e" d="m36 54 1 3 1 3v3l-3 1-1 1-1-1a13 13 0 0 1-2-2 34 34 0 0 1-1-2c-3 4-8 6-13 6-3 0-6-1-8-3s-3-5-3-9c0-3 1-6 4-8 2-2 6-4 10-4a33 33 0 0 1 9 2v-3c0-4 0-6-2-7l-6-2-5 1a33 33 0 0 0-5 1 13 13 0 0 1-2 1l-1-2v-2l1-1 1-1 5-2 7-1c5 0 8 1 11 4 2 2 3 5 3 10v14Zm-17 6 5-1 4-2 1-3v-6a34 34 0 0 0-3 0 32 32 0 0 0-4-1l-7 2-2 5 2 4c1 2 2 2 4 2Zm34 5-2-1v-1L41 30l-1-2 1-1h4l2 1 1 1 7 28 7-28v-1l2-1h3l2 1 1 1 7 29 7-29 1-1 1-1h4l1 1v2L81 63l-1 1-2 1h-3l-2-1-1-1-6-28-7 27-1 2-1 1Zm54 1a28 28 0 0 1-11-3l-1-1a3 3 0 0 1-1-1v-2l1-2 1 1h1a23 23 0 0 0 5 1l5 1 6-1 2-4-1-3-4-3-6-1c-3-1-6-3-7-5a10 10 0 0 1-1-10 11 11 0 0 1 3-4l4-2a18 18 0 0 1 8-1l3 1a33 33 0 0 1 4 1l2 1v4l-1 1-2-1-8-1-5 1c-2 1-2 2-2 4l1 3 5 2 6 2c3 1 5 2 6 4l2 6-1 5-3 3c-1 2-3 2-5 3l-6 1Zm0 0"/><path fill="#f90" d="M118 73c-4 0-10 1-14 4-1 1-1 2 1 2 4 0 14-2 16 1 2 2-2 11-4 15 0 2 1 2 2 1 7-6 9-19 8-21l-9-2zM2 76c-1 0-2 1-1 2a93 93 0 0 0 114 8c2-1 0-4-2-3A125 125 0 0 1 2 76z"/></svg>