<svg xmlns="http://www.w3.org/2000/svg" viewBox="0 0 128 128"><path d="M87 44zm3 7h1v-1l-1 1zm-11 9a14 14 0 0 0-2-3l1-2 3-2a8 8 0 0 0 1-5c0-1-1-3-3-3q-1-2-6-2a36 36 0 0 0-9 3 39 39 0 0 1-4 2 1 1 0 0 0 1 0v1-1a13 13 0 0 1-2 2v1h-1a2 2 0 0 0-1 1v-1a56 56 0 0 0 1-6v-1a5 5 0 0 1-1-1l-7 9-4 6-2 2a3 3 0 0 1-2 1l-1 1h-1 1-1l-2 1h-3l-3-4 2-2 4-3q2-2 2-6c0-2-1-4-4-5l-8-1a48 48 0 0 0-12 3 47 47 0 0 1-5 3h1a19 19 0 0 1-3 3H8v1a3 3 0 0 0-2 1v1a4 4 0 0 1 1-1v1a13 13 0 0 1 2-2h1a26 26 0 0 1 8-3l-1 1-3 9L1 84a1 1 0 0 0 1 1 4 4 0 0 0 1-1h1v1a3 3 0 0 1 0 1 7 7 0 0 0-1 2v1a20 20 0 0 0 3-5 49 49 0 0 0 9-3 8 8 0 0 0 5-2h-1a7 7 0 0 0 3-1l7-5q4-3 6-7a7 7 0 0 0 1 0h2a1 1 0 0 0 1 0l-6 9-1 1v3h1v-1a2 2 0 0 0 1 0l-1 1 11-14 6-2-1 4a13 13 0 0 0-1 3 19 19 0 0 0-1 3l-1 5a43 43 0 0 0-2 7h1l1-1v-1a10 10 0 0 1 1-2 10 10 0 0 1 1-3l1-3v1a51 51 0 0 1-3 8l1 1 7-22a3 3 0 0 1 2-3h-1a1 1 0 0 0 1 0l-1-1 2-7v1a10 10 0 0 1 2-2h1a20 20 0 0 1 5-2v1a42 42 0 0 1-3 6 167 167 0 0 1-9 20 3 3 0 0 0 1 0h1a2 2 0 0 1 0 1 5 5 0 0 0-1 2 15 15 0 0 0 3-3 38 38 0 0 0 6-3 6 6 0 0 0 4-1h-1a5 5 0 0 0 3-1l5-4c3-2 5-5 5-7zm-1 0v1-1zM8 52zM5 84a2 2 0 0 0-1 0v-1a7 7 0 0 1 1-1v2zm33-35-1-2 1 1v1zm0-4v1l-5-2 5 1zM18 62v-1 1zm0-10v1-1zm-1 3v1h-1v-1zm-1 1v1a1 1 0 0 0 0-1zm-1 2h1-1zm0 1v1l-1-1h1zm-5 15-1 2v-1a2 2 0 0 1 1-1zm-1 2-1 1v-1h1zm-1 4h1v1a1 1 0 0 0-1 0v-1zm14-4a26 26 0 0 0-5 3l-4 2a48 48 0 0 0-5 2 2 2 0 0 1-1 0 1 1 0 0 1 1-2 3 3 0 0 1 1 1 13 13 0 0 1 3-1h-1a13 13 0 0 1 2-2h1l-2 1h2l9-5-1 1zm-8 3a3 3 0 0 0 2-1 7 7 0 0 0-2 1zm13-10-4 3a42 42 0 0 1-5 3l-9 4 6-13a35 35 0 0 0 9-3h1a6 6 0 0 1 5 1v1l-3 4zm-8-5h1-1zm9-1h2a1 1 0 0 1-2 0zm2-8a19 19 0 0 1-4 3l-7 2a4 4 0 0 1 0-2l1-3 4-8 2-1v1l3-1c3 0 4 1 4 2h1v-1a2 2 0 0 1 1 2 2 2 0 0 1 0 1h-1v1l-3 3-1 1zm2 5a1 1 0 0 0-1 0h1zm2 3h1-1v1-1zm0 1h1-1zm1 1h1l-1 1a2 2 0 0 0 0-1zm2 1a6 6 0 0 0-2 0h2zm1 0-1-1h1v1zm3-4h1-1zm4 22zm2-21a7 7 0 0 1-1 0h2a1 1 0 0 0-1 0zm2-1h1a9 9 0 0 0-1 0zm0-2h-1l3-1-2 1zm3-4-1 3h-2a49 49 0 0 1 3-5h1a5 5 0 0 1-1 2zm6-4v-1a2 2 0 0 0 0 1zm-2 23a2 2 0 0 0-1 0 4 4 0 0 1 1-1v1zm25-26-1-1v-1l1 2zm0-3-4-1 4 1zM66 59v-1 1zm0-8-1 1a1 1 0 0 0 1-1zm-1 3zm-1 0v1a1 1 0 0 0 0-1zm0 2h-1 1zm-1 1zm-4 11v1a1 1 0 0 1 0-1zm0 2h-1 1zm-1 3h1a1 1 0 0 0-1 0zm11-3a22 22 0 0 0-4 2l-3 1a35 35 0 0 0-4 2 1 1 0 0 1-1 0 1 1 0 0 1 1-1 2 2 0 0 1 1 0 11 11 0 0 1 2-1h-1a10 10 0 0 1 2-1h1l-1 1v-1l8-4v1l-1 1zm-6 2a3 3 0 0 0 1-1 6 6 0 0 0-1 1zm10-8-3 2a30 30 0 0 1-4 3l-7 3 5-10a27 27 0 0 0 6-2h1a4 4 0 0 1 4 1l-2 3zm-6-4v1-1zm7-1 1 1a1 1 0 0 1-1-1zm1-5a14 14 0 0 1-3 2 36 36 0 0 0-5 2 1 1 0 0 0-1 0v-1a3 3 0 0 1 1-1l1-2 2-6 2-1h2l3 1h1a2 2 0 0 1 1 1 2 2 0 0 1-1 1l-3 3v1zm1 4v-1h1l-1 1zM32 80v1-1zm-1-2h1-1zm7-15v-1 1zm85 7a16 16 0 0 1-4 0v1-1h4zm-16 2zm-1-6h-1a4 4 0 0 0 0 1l1-1zm17 4h1-1zm-19 2h-1 4-3zm-2-8zm23 4a3 3 0 0 0-1 0h-4a1 1 0 0 0 1 0 19 19 0 0 1-3 0 3 3 0 0 0 1 0 15 15 0 0 1-2 0l2-1h1a8 8 0 0 0 2 0h1v-1l-4 1a3 3 0 0 1-1 0h-3a12 12 0 0 1-2 1 1 1 0 0 0-1 0h-2a5 5 0 0 1-1 0h-4v1l-1-1 1-1v-1l1-1v-1a10 10 0 0 0 1-2v-1a2 2 0 0 0 1-1l1-2a47 47 0 0 0 2-6l2-7a1 1 0 0 0-1 0 3 3 0 0 1 1-2v1a7 7 0 0 1 1-1h-1v-1a1 1 0 0 1 0-1h-2l1-1v1l1-1v1-1h-1l-11 1h-3a6 6 0 0 1-1 0 1 1 0 0 1 0 1l2-1a1 1 0 0 1 0 1 1 1 0 0 1-1 0 15 15 0 0 1-2 0l-5 1a1 1 0 0 0 0-1 7 7 0 0 0-1 1l-2 1h1a2 2 0 0 0-1 2l-2 1h1v1l-5 11-5 11-2 1 1 1v1l2 1v-1a8 8 0 0 1 0 2 3 3 0 0 0 1-2l1 1-2 4v1l3-6 9-1h4l2-1 1-1a1 1 0 0 1 1 0h1l1-1a5 5 0 0 0-1 0 6 6 0 0 1-1 0 1 1 0 0 1-1 0h-2l-1 1v-1 1l-1-1v1h-1v-1l5-1h1-8a1 1 0 0 0-1 0 10 10 0 0 0-2 1 13 13 0 0 0-2 0h-3l3-7a6 6 0 0 1 2-3h2a13 13 0 0 0 3-1 2 2 0 0 1 1 0h4a17 17 0 0 0 3-1v-1h-2l1-1h2-1 1v-1H89a1 1 0 0 0 0 1v-1l3-5 2-2c2 0-1-1 4-1l8-1v-1l-2 1v-1a1 1 0 0 0 1 0 1 1 0 0 1 1 0 10 10 0 0 1 1 0h1l1-1a3 3 0 0 1-1 0h2l1-1v1a1 1 0 0 0 0-1 7 7 0 0 0 0 1l-6 15-1 2a3 3 0 0 1 0 2l-3 5 1 2h-1v-1a6 6 0 0 0-1 2 1 1 0 0 0 1-1 2 2 0 0 0 0 1v1a2 2 0 0 1 1 1 2 2 0 0 0 1-1h4a21 21 0 0 0 2 0 6 6 0 0 1 2 0h-1a1 1 0 0 0 1 0 3 3 0 0 0-1 1h-1 4l1-1h1a17 17 0 0 0 3 0h1v-1h-1a4 4 0 0 1-1 1h-2v-1h2c1 0 2 1 8-1v-1a10 10 0 0 1-2 1v-1h1a2 2 0 0 0 1 0zm-46 1a8 8 0 0 1 0-2h1a8 8 0 0 1-1 2zm1-2v-1 1zm5 4zm-1 0v1l-1-1h1zm6-27h1-1zm7-1zm-2 0a7 7 0 0 0 1 0h1-1a1 1 0 0 1-1 0zm1 3 1-1v1h-1zm1-1h1-1zm0-2h2a7 7 0 0 0-2 0zm1 3v-1h1l-1 1zm3-5h-1a7 7 0 0 1-1 0h2zm0 3h-1 1zm1 1h-2l2-1h1v1a5 5 0 0 0-1 0zm10-3a4 4 0 0 1 1 0 7 7 0 0 1-2 3 17 17 0 0 0 1-3zm-2 3v1-1zm-1 3a4 4 0 0 1 1-2l-1 1v1a1 1 0 0 0 0 1v-1zm0 1a3 3 0 0 1-1 1l1-1zm-8 22zm11 0h-1 1zm-1 0zm0-2h-1 3-2zm3 0a3 3 0 0 0-1 0h1zm0 0zm1 0a1 1 0 0 0 0-1v1zm1 0v-1 1zm1-1v1-1zm-7 3zm16-4v1-1zm1 1zm-1-1z"/><path fill="#f9dc3e" d="M90 50zm-3-7zm-9 16a14 14 0 0 0-2-3l2-1 3-3a8 8 0 0 0 1-4v-1l-3-3-6-1a36 36 0 0 0-9 2 39 39 0 0 1-4 3h1a13 13 0 0 1-3 2h1-1v1a1 1 0 0 1 0-1 2 2 0 0 0-1 1v-1a56 56 0 0 0 1-6 5 5 0 0 1-1-1 4 4 0 0 0 0-1l-7 10-5 5-1 2h-1a3 3 0 0 1-2 2h-1v1h-3 1-3l-3-3c0-1 0-2 2-2l4-4 2-6-4-5-8-1a48 48 0 0 0-13 3 47 47 0 0 1-5 3v1a1 1 0 0 0 1-1v1l1-1v1a19 19 0 0 1-4 2h1-1v1a3 3 0 0 0-3 2h1a4 4 0 0 1 1-1 2 2 0 0 0-1 1h1a13 13 0 0 1 2-2l1 1a26 26 0 0 1 7-4l-1 1a1 1 0 0 0 0 1l-3 8Q6 75 1 83a1 1 0 0 0 0 1 4 4 0 0 0 2-1v1l1-1v1a3 3 0 0 1-1 1 7 7 0 0 0-1 3h1a20 20 0 0 0 3-5 49 49 0 0 0 9-3 8 8 0 0 0 4-2v1h-1v-1a7 7 0 0 0 4-1l6-5q5-3 6-6h1a7 7 0 0 0 1 0l1-1h1l-5 9-1 1-1 2h1v1h1l11-14q-1-1 6-2l-1 5a13 13 0 0 0-1 2 19 19 0 0 0-1 3l-1 5a43 43 0 0 0-2 8v-1h1l1-1a10 10 0 0 1 0-3 10 10 0 0 1 1-2l1-3h1l-1 1a51 51 0 0 1-2 7v1l8-22a3 3 0 0 1 1-2v-1a1 1 0 0 0 1 0h-1l1-7a2 2 0 0 1 1-1 1 1 0 0 0 0 1 10 10 0 0 1 2-2v1h1a20 20 0 0 1 5-3l-1 1a42 42 0 0 1-2 6 167 167 0 0 1-9 20 3 3 0 0 0 1 0h1a2 2 0 0 1-1 1 5 5 0 0 0 0 2 15 15 0 0 0 2-3 38 38 0 0 0 7-3 6 6 0 0 0 4-1h-1a5 5 0 0 0 2-1l5-3c4-3 6-6 5-8zm0 0v1l-1-1h1zM7 52v-1h1a1 1 0 0 0-1 1zM4 83a2 2 0 0 0-1 0v-1h1a7 7 0 0 1 1-1v1l-1 1zm34-35-1-2 1 2zm-1-4v1l-4-2 4 1zM18 61h-1 1zm-1-10h1v1h-1v-1zm-1 3v1-1zm-1 1h1l-1 1a1 1 0 0 0 0-1zm0 2v1h-1v-1h1zm-1 1v1-1zM9 73v2a2 2 0 0 1 0-2zm-1 2v1-1zm0 5zm14-5a26 26 0 0 0-5 3l-4 2a48 48 0 0 0-6 2 1 1 0 0 1 0-1 3 3 0 0 1 2 0 13 13 0 0 1 2-1h-1a13 13 0 0 1 3-1l-1 1 1-1 10-5-1 1zm-9 3a3 3 0 0 0 2-1h1a7 7 0 0 0-2 1h-1zm14-10-4 3a41 41 0 0 1-5 3l-9 4H8l7-13a35 35 0 0 0 9-3h1a6 6 0 0 1 4 2l-2 4zm-8-5v1-1zm9-1h1v1a1 1 0 0 1-1-1zm1-8a19 19 0 0 1-3 3l-7 3a1 1 0 0 0-1 0v-1a4 4 0 0 1 1-2l1-3 3-7 2-2h1v1h3c2-1 4 0 4 1v-1a2 2 0 0 1 2 2 2 2 0 0 1-1 2v-1h-1v1l-3 3-1 1zm2 6a1 1 0 0 0 0-1h1l-1 1zm3 2v1-1zm0 2v-1 1zm1 1 1-1-1 1zm1 0a6 6 0 0 0-1 0h1zm1 0h1-1zm4-4zm3 23a1 1 0 0 0 0-1h1l-1 1zm3-22a7 7 0 0 1-1 1h-1v-1h3a1 1 0 0 0-1 0zm1 0a1 1 0 0 0 1-1h1a9 9 0 0 0-2 1zm1-3a1 1 0 0 0-1 0l2-1h1v1h-3zm3-3-2 2h-1v1l-1-1a49 49 0 0 1 4-5 5 5 0 0 1 0 3zm6-5h-1 1zm-3 24a1 1 0 0 0-1 0v-1h1a4 4 0 0 1 1-1v1l-1 1zm26-27-1-1 1 1zm-1-3v1l-3-2 3 1zM66 58h-1 1zm-1-8v1a1 1 0 0 0 0-1zm-1 3zm0 1zm-1 1zm0 1v1-1zm-4 11-1 1a1 1 0 0 1 1-1zm-1 2zm0 3zm10-3a22 22 0 0 0-3 2l-4 1a35 35 0 0 0-3 2 1 1 0 0 1-1 0 1 1 0 0 1 0-1 2 2 0 0 1 1 0 11 11 0 0 1 2-1 10 10 0 0 1 2-1l-1 1h1l7-4v1zm-6 2a3 3 0 0 0 2-1 6 6 0 0 0-2 1zm10-8-3 3a30 30 0 0 1-4 2l-6 3h-1l5-10a27 27 0 0 0 7-2h1a4 4 0 0 1 3 1c0 2-1 3-2 3zm-6-3h1-1zm7-1h1a1 1 0 0 1-1 0zm1-6a14 14 0 0 1-2 2 36 36 0 0 0-6 2 3 3 0 0 1 0-2l1-2 3-6 1-1h1v1l2-1 3 1a2 2 0 0 1 1 1 2 2 0 0 1 0 1h-1v1l-2 2-1 1zm1 4v-1h1v1a1 1 0 0 0-1 0zM32 79l-1 1h1v-1zm-1-1v-1 1zm7-13zm0-3zm65 9v1l3-1h-3zm4 0zm16-2zm-1 0a16 16 0 0 1-4 1h1l3-1zm-17-4a4 4 0 0 0 0 1v-1zm-3-2h-1 1zm7 8v-1 1zm15-4h1a3 3 0 0 0-2 0h-4 1a19 19 0 0 1-2 1h-1l1-1a3 3 0 0 0 0 1l1-1a15 15 0 0 1-3 0h3a8 8 0 0 0 3-1h1-5a3 3 0 0 1-1 0l-2 1a12 12 0 0 1-3 0h-2a5 5 0 0 1-1 1v-1 1h-5v-2 1l1-1a1 1 0 0 1 0-1v-1 1-1a1 1 0 0 1 1 0h-1a10 10 0 0 0 1-3h1a1 1 0 0 1 0-1 2 2 0 0 0 0-1l1-1a47 47 0 0 0 3-7l2-7a1 1 0 0 0-1 0 3 3 0 0 1 1-2v1a7 7 0 0 1 0-1v-1a1 1 0 0 1 0-1l-2 1a1 1 0 0 0 0-1h2-14v1-1l-1 1a6 6 0 0 1-1 0 1 1 0 0 1-1 0h3a1 1 0 0 1-1 0 15 15 0 0 1-2 0l-5 1a7 7 0 0 0-1 0l-3 1h2v1a2 2 0 0 0-2 1l-1 1v1l-5 11-4 11-2 2h1l-1 1 3 1a8 8 0 0 1-1 2h1a3 3 0 0 0 1-2l-2 5 3-6 9-1h5l1-1h2l2-1v-1a5 5 0 0 0-1 1 6 6 0 0 1-1-1 1 1 0 0 1 0 1h-5l4-2 1 1v-1h-7v1h-2a10 10 0 0 0-2 0 13 13 0 0 0-2 0h-2l3-7a6 6 0 0 1 1-3 1 1 0 0 1 1 0h1a13 13 0 0 0 4-1 2 2 0 0 1 1 0h3a17 17 0 0 0 4-1h-1l-1-1h2v-1h-1 1-11a1 1 0 0 0-1 0l3-6a2 2 0 0 1 0 1l2-3 4-1a1 1 0 0 0 1 0l7-1h-1a1 1 0 0 0 0-1v1a1 1 0 0 0 0-1 1 1 0 0 1 1 1 10 10 0 0 1 2-1h1a3 3 0 0 1-1-1h3a1 1 0 0 0 1 0 7 7 0 0 0 0 1h-1a1 1 0 0 0 0-1l-6 15-1 3a3 3 0 0 1 0 2l-2 5v1h-1a6 6 0 0 0-1 1h2a1 1 0 0 0-1 1h1l-1 1a2 2 0 0 1 1 0 2 2 0 0 0 1 0h3l1-1a21 21 0 0 0 2 0h1a6 6 0 0 1 2 0h-1v1h1a3 3 0 0 0-1 0h-1 6v-1 1a17 17 0 0 0 2-1h1-3 1l8-1 1-1a10 10 0 0 1-2 0h1a2 2 0 0 0 1-1s-1 0 0 0zm-45 1h-1a8 8 0 0 1 1-2 8 8 0 0 1 0 2zm0-2v-1 1zm6 4v1h-1v-1h1zm-1 0-1 1h-1v-1h2zm6-27zm7-1h-1 1zm-2 1-1-1a7 7 0 0 0 2 0 1 1 0 0 1-1 0zm1 2h1-1zm1-1zm0-2h1a7 7 0 0 0-1 0zm1 3v-1 1zm3-5-1 1a7 7 0 0 1-1 0l2-1zm-1 3v1h-1l1-1zm2 1h-3 4a5 5 0 0 0-1 0zm9-2a4 4 0 0 1 1-1 7 7 0 0 1-1 3h-1a17 17 0 0 0 1-2zm-1 2-1 1a1 1 0 0 0 1-1zm-1 3a4 4 0 0 1 0-2v2a1 1 0 0 0-1 1v-1zm-1 1a3 3 0 0 1 0 1v-1zm-7 22zm10 0h1a1 1 0 0 0-1 0zm0 0zm0-2h-1 3-2zm2 0s1 0 0 0zm1 0zm0 0a1 1 0 0 0 1 0zm2 0zm0 0h1-1zm9-1zm1 0-1-1v1h1zm0 0h1-1z"/></svg>