<svg xmlns="http://www.w3.org/2000/svg" viewBox="0 0 128 128"><path fill="none" d="M4 4h120v120H4z"/><path fill="#293138" d="M109 29 71 6l-7-2-7 2-38 23c-5 2-7 7-7 13v44c0 6 2 11 7 13l38 23a14 14 0 0 0 14 0l38-23c5-2 7-7 7-13V42c0-6-2-11-7-13zM80 99v3l-1 1-2 1v-4l-5 1v-1l1-3v-1h5c2-1 3-3 3-5 0-1-1-2-3-2-3 0-6-1-6-5 0-3 2-6 5-9v-4l2-1h1v4l3-1 1 1-1 3a1 1 0 0 1-1 1h-3l-3 4c0 2 1 2 3 2 4 0 5 2 5 5 0 4-1 7-4 10zm26-61L70 60c-4 3-7 6-7 11v44c0 3 1 5 3 6h-2c-2 0-4 0-6-2L20 97c-3-2-6-6-6-11V42c0-5 3-9 6-11L58 9c2-2 4-2 6-2l6 2 38 22c3 2 5 5 6 9-2-3-5-4-8-2z"/><path fill="#4FA847" d="m99 91-9 5-1 1v2l1 1 9-6 1-1v-2h-1z"/></svg>