<svg xmlns="http://www.w3.org/2000/svg" fill="none" viewBox="0 0 100 100"><g clip-path="url(#a)"><path fill="#fff" fill-rule="evenodd" d="M87.4 20.4 56 1.7a11.9 11.9 0 0 0-12.2 0L12.1 20.4A12.6 12.6 0 0 0 6 31.3v37.4a12.6 12.6 0 0 0 6 10.9l31.7 18.7a11.9 11.9 0 0 0 12 0l31.7-18.7a12.6 12.6 0 0 0 6-10.9V31.3a12.6 12.6 0 0 0-6-10.9ZM63 79v2.7a1 1 0 0 1-.5.9l-1.6.9c-.2.1-.5 0-.5-.4v-2.6a5 5 0 0 1-3.6.3c-.2-.1-.3-.4-.2-.6l.6-2.4a1 1 0 0 1 .5-.7h.2c1.1.3 2.3.2 3.3-.4a4.4 4.4 0 0 0 2.5-3.8c0-1.3-.7-2-2.6-2-2.2 0-4.3-.4-4.4-3.8a9.8 9.8 0 0 1 3.7-7.5v-2.7a1 1 0 0 1 .4-.8l1.6-1c.2-.1.5 0 .5.4V58c.9-.4 2-.6 3-.4.2.2.3.4.2.7l-.6 2.4c0 .2-.2.4-.4.6h-.2c-1-.2-2 0-3 .5a3.7 3.7 0 0 0-2.1 3.2c0 1.2.6 1.6 2.8 1.7 3 0 4.2 1.3 4.2 4.2a10.5 10.5 0 0 1-3.8 8Zm16.5-4.5a.6.6 0 0 1-.2.6l-8 4.9H71v-2.3a.6.6 0 0 1 .3-.5l7.9-4.7c0-.1.2-.1.2 0 .1 0 .2.1.1.2v1.8Zm5.5-46L55.1 46.7c-3.7 2.2-6.4 4.6-6.4 9v36.9c0 2.7 1 4.4 2.7 5h-1.6c-1.8 0-3.5-.4-5-1.3L13.2 77.7a10.3 10.3 0 0 1-5-9V31.4a10.3 10.3 0 0 1 5-9L44.8 3.6a10 10 0 0 1 10 0l31.5 18.7a10 10 0 0 1 4.8 7.2c-1-2.2-3.3-2.8-6-1.2Z" clip-rule="evenodd"/></g><defs><clipPath id="a"><path fill="#fff" d="M0 0h100v100H0z"/></clipPath></defs></svg>