<svg xmlns="http://www.w3.org/2000/svg" viewBox="0 0 128 128"><defs><linearGradient id="a" x1="76.1" x2="523.5" y1="10.8" y2="365.9" gradientTransform="translate(1.11 14.613) scale(.24566)" gradientUnits="userSpaceOnUse"><stop offset="0" stop-color="#9013fe"/><stop offset="1" stop-color="#6610f2"/></linearGradient><linearGradient id="b" x1="193.5" x2="293.5" y1="109.7" y2="278.9" gradientTransform="translate(0 52)" gradientUnits="userSpaceOnUse"><stop offset="0" stop-color="#fff"/><stop offset="1" stop-color="#f1e5fc"/></linearGradient><filter id="c" width="197" height="249" x="162" y="136" color-interpolation-filters="sRGB" filterUnits="userSpaceOnUse"><feFlood flood-opacity="0" result="BackgroundImageFix"/><feColorMatrix in="SourceAlpha" values="0 0 0 0 0 0 0 0 0 0 0 0 0 0 0 0 0 0 127 0"/><feOffset dy="4"/><feGaussianBlur stdDeviation="8"/><feColorMatrix values="0 0 0 0 0 0 0 0 0 0 0 0 0 0 0 0 0 0 0.15 0"/><feBlend in2="BackgroundImageFix" result="effect1_dropShadow"/><feBlend in="SourceGraphic" in2="effect1_dropShadow" result="shape"/></filter></defs><path fill="url(#a)" d="M15 28c0-7 5-13 12-13h74c7 0 12 6 12 13 0 6 0 15 2 22s6 11 12 12v6c-6 0-10 5-12 12s-2 15-2 22-5 13-12 13H27c-7 0-12-6-12-13s0-15-2-22S7 68 1 68v-6c6-1 10-5 12-12s2-16 2-22z"/><path fill="url(#b)" d="M267 364c47 0 76-23 76-61 0-29-20-50-51-53v-1c23-4 40-24 40-47 0-33-26-55-65-55h-89v217zm-55-189h46c25 0 39 11 39 31 0 22-16 34-46 34h-39zm0 162v-71h46c33 0 50 12 50 35s-17 36-48 36z" filter="url(#c)" transform="translate(1.494 2.203) scale(.24566)"/></svg>