<svg xmlns="http://www.w3.org/2000/svg" fill="none" viewBox="0 0 100 100"><g clip-path="url(#a)"><path fill="#fff" d="M50 75a25 25 0 1 0 0-50 25 25 0 0 0 0 50Z"/><path fill="url(#b)" d="M50 25h43a50 50 0 0 0-86 0l21 38v-1a25 25 0 0 1 22-37Z"/><path fill="#1A73E8" d="M50 70a20 20 0 1 0 0-40 20 20 0 0 0 0 40Z"/><path fill="url(#c)" d="m72 63-22 37a50 50 0 0 0 43-75H50a25 25 0 0 1 22 38Z"/><path fill="url(#d)" d="M28 63 7 25a50 50 0 0 0 43 75l22-37v-1a25 25 0 0 1-44 1Z"/></g><defs><linearGradient id="b" x1="6.7" x2="93.3" y1="31.3" y2="31.3" gradientUnits="userSpaceOnUse"><stop stop-color="#D93025"/><stop offset="1" stop-color="#EA4335"/></linearGradient><linearGradient id="c" x1="43.2" x2="86.5" y1="99.3" y2="24.3" gradientUnits="userSpaceOnUse"><stop stop-color="#FCC934"/><stop offset="1" stop-color="#FBBC04"/></linearGradient><linearGradient id="d" x1="55.4" x2="12.1" y1="96.9" y2="21.9" gradientUnits="userSpaceOnUse"><stop stop-color="#1E8E3E"/><stop offset="1" stop-color="#34A853"/></linearGradient><clipPath id="a"><path fill="#fff" d="M0 0h100v100H0z"/></clipPath></defs></svg>