<svg xmlns="http://www.w3.org/2000/svg" fill="none" viewBox="0 0 100 100"><g clip-path="url(#a)"><path fill="url(#b)" d="m50 50 22 13-22 37a50 50 0 0 0 43-75H50v25Z"/><path fill="url(#c)" d="M50 0C31 0 15 10 7 25l21 38 22-13V25h43C85 10 69 0 50 0Z"/><path fill="url(#d)" d="M0 50c0 28 22 50 50 50l22-37-22-13-22 13L7 25c-5 7-7 16-7 25"/><path fill="#fff" d="M75 50a25 25 0 1 1-50 0 25 25 0 0 1 50 0Z"/><path fill="url(#e)" d="M70 50a20 20 0 1 1-40 0 20 20 0 0 1 40 0Z"/></g><defs><linearGradient id="b" x1="75.1" x2="75" y1="24.9" y2="100" gradientUnits="userSpaceOnUse"><stop stop-color="#AFCCFB"/><stop offset="1" stop-color="#8BB5F8"/></linearGradient><linearGradient id="c" x1="42.7" x2="46.9" y1=".8" y2="68" gradientUnits="userSpaceOnUse"><stop stop-color="#1972E7"/><stop offset="1" stop-color="#1969D5"/></linearGradient><linearGradient id="d" x1="35.8" x2="35.8" y1="25" y2="100" gradientUnits="userSpaceOnUse"><stop stop-color="#659CF6"/><stop offset="1" stop-color="#4285F4"/></linearGradient><linearGradient id="e" x1="49.8" x2="50" y1="29.8" y2="70.3" gradientUnits="userSpaceOnUse"><stop stop-color="#3680F0"/><stop offset="1" stop-color="#2678EC"/></linearGradient><clipPath id="a"><path fill="#fff" d="M0 0h100v100H0z"/></clipPath></defs></svg>