<svg xmlns="http://www.w3.org/2000/svg" fill="none" viewBox="0 0 100 100"><g clip-path="url(#a)"><path fill="#fff" d="m79 46-2-1c-10 22-49 9-51 16 0 4 21 0 37 1 4 0 7 4 5 10h4c4-14 19-7 19-12-1-3-16 0-12-14Z"/><path fill="#F4811F" d="M69 69c1-2 0-4-1-5l-4-2-36-1h-1v-1h1l36-1c5 0 9-3 11-8l2-5v-1a24 24 0 0 0-45-2l-8-2a11 11 0 0 0-9 13A15 15 0 0 0 0 72h68l1-3Z"/><path fill="#FAAD3F" d="M80 46h-1v1l-2 4 1 6 4 2 8 1c1 0 1 0 0 0v1h-8c-5 1-9 4-11 8v3h28v-1l1-5c0-11-9-20-20-20Z"/></g><defs><clipPath id="a"><path fill="#fff" d="M0 0h100v100H0z"/></clipPath></defs></svg>