<svg xmlns="http://www.w3.org/2000/svg" viewBox="0 0 31.8 32"><path fill="#151f34" d="M19.4 9.2a15.4 15.4 0 0 1-3.5.4 15.5 15.5 0 0 1-3.5-.4 15.6 15.6 0 0 1 3.5-4 15.7 15.7 0 0 1 3.5 4zM30 .6a17.2 17.2 0 0 0-4.4-.6 17.4 17.4 0 0 0-9.7 3 17.4 17.4 0 0 0-9.7-3 17.2 17.2 0 0 0-4.4.6A16.2 16.2 0 0 0 0 1v.1a17.3 17.3 0 0 0 .8 1.6H1a16.4 16.4 0 0 1 1.8-.5A15.7 15.7 0 0 1 14.3 4a17.5 17.5 0 0 0-3.8 4.5l-.5 1-.4.7c-.2.2-.3.7-.4 1A17.5 17.5 0 0 0 13.5 30l.8.7.7.5.9.7a28.7 28.7 0 0 0 2.4-2 17.4 17.4 0 0 0 5.4-12.5 17.4 17.4 0 0 0-1-6.1l-.5-1.1-.4-.7-.5-1A17.6 17.6 0 0 0 17.5 4a15.7 15.7 0 0 1 11.6-1.8 16.1 16.1 0 0 1 1.8.5l1-1.5v-.1A16.9 16.9 0 0 0 30 .6z"/><path fill="#348540" d="M21.8 17.5a15.5 15.5 0 0 1-4.2 10.7 15.7 15.7 0 0 1-.8-4.7 15.5 15.5 0 0 1 4.3-10.7 15.6 15.6 0 0 1 .7 4.7"/><path fill="#7dbc42" d="M15 23.5a15.6 15.6 0 0 1-.7 4.7 15.5 15.5 0 0 1-3.6-15.4A15.5 15.5 0 0 1 15 23.5"/></svg>