<svg xmlns="http://www.w3.org/2000/svg" fill="none" viewBox="0 0 32 32"><g clip-path="url(#a)"><path fill="#CCD6EA" d="M19.4 9.2a15.4 15.4 0 0 1-7 0c1-1.5 2.1-2.9 3.5-4 1.4 1.1 2.6 2.5 3.5 4ZM30 .6A17.2 17.2 0 0 0 15.9 3 17.4 17.4 0 0 0 1.8.6L0 1v.1l.8 1.6H1A16.4 16.4 0 0 1 14.3 4a17.5 17.5 0 0 0-3.8 4.5l-.5 1-.4.7c-.2.2-.3.7-.4 1A17.5 17.5 0 0 0 13.5 30l.8.7.7.5.9.7 2.4-2a17.4 17.4 0 0 0 4.4-18.6l-.5-1.1-.4-.7-.5-1c-1-1.7-2.3-3.2-3.8-4.5a15.7 15.7 0 0 1 13.4-1.3l1-1.5v-.1L30 .6Z"/><path fill="#348540" d="M21.8 17.5c0 4-1.5 7.8-4.2 10.7a15.5 15.5 0 0 1 3.5-15.4c.5 1.5.7 3.1.7 4.7Z"/><path fill="#7DBC42" d="M15 23.5c0 1.6-.2 3.2-.7 4.7a15.5 15.5 0 0 1-3.6-15.4c2.8 2.9 4.3 6.7 4.3 10.7Z"/></g><defs><clipPath id="a"><path fill="#fff" d="M0 0h31.8v32H0z"/></clipPath></defs></svg>