<svg xmlns="http://www.w3.org/2000/svg" viewBox="0 0 128 128"><defs><linearGradient id="a" x1="26.8" x2="11.8" y1="28.5" y2="19.9" gradientTransform="scale(4)" gradientUnits="userSpaceOnUse"><stop offset="0" stop-color="#0052cc"/><stop offset=".9" stop-color="#2380fb"/><stop offset="1" stop-color="#2684ff"/></linearGradient><linearGradient id="b" x1="5.2" x2="20.2" y1="2.5" y2="11.1" gradientTransform="scale(4)" gradientUnits="userSpaceOnUse"><stop offset="0" stop-color="#0052cc"/><stop offset=".9" stop-color="#2380fb"/><stop offset="1" stop-color="#2684ff"/></linearGradient></defs><path fill="url(#a)" d="M19 86a249 249 0 0 0-3 5l1 4 20 13 5-1a139 139 0 0 1 2-5c8-13 16-12 30-5l20 9c2 1 3 0 4-1l10-22c0-1 0-3-2-4l-20-9C60 57 37 58 19 86zm0 0"/><path fill="url(#b)" d="M109 38a249 249 0 0 0 3-5l-1-4-20-13-5 1a134 134 0 0 1-2 5c-8 13-16 12-30 5l-20-9c-2-1-3 0-4 1L20 41c0 1 0 3 2 4l20 9c26 13 49 12 67-16zm0 0"/></svg>