<svg xmlns="http://www.w3.org/2000/svg" fill="none" viewBox="0 0 100 100"><g clip-path="url(#a)"><path fill="#69D3A7" d="M4.78 63.247A50.046 50.046 0 0 1 3 50.002C3 29.497 15.878 10.749 35.047 3.356L37.56 9.86C21.06 16.226 9.977 32.356 9.977 50.002A43.1 43.1 0 0 0 11.505 61.4l-6.726 1.847Z"/><path fill="url(#b)" d="M91.44 30.194c-7.46-14.321-22.144-23.22-38.312-23.22a43.057 43.057 0 0 0-16.538 3.272l-2.674-6.44A49.989 49.989 0 0 1 53.128-.001c18.783 0 35.835 10.333 44.5 26.972l-6.189 3.223Z"/><path fill="#fff" d="M38.16 39.685c4.046 0 7.342 2.158 9.036 5.921l.134.295 6.795-2.308-.145-.347c-2.631-6.409-8.692-10.392-15.82-10.392-5.01 0-9.083 1.606-12.448 4.904-3.345 3.277-5.038 7.399-5.038 12.255 0 4.812 1.693 8.913 5.038 12.19 3.365 3.298 7.438 4.904 12.448 4.904 7.128 0 13.189-3.983 15.82-10.386l.145-.348-6.806-2.313-.129.305c-1.516 3.7-4.892 5.91-9.03 5.91-2.818 0-5.198-.985-7.084-2.923-1.908-1.964-2.873-4.432-2.873-7.334 0-2.923.944-5.343 2.873-7.399 1.88-1.948 4.266-2.934 7.084-2.934Z"/><path fill="#fff" d="m80.721 33.486-9.684 24.503-9.747-24.503h-7.975L66.986 66.93 57.26 90.518l6.972 1.386 24.024-58.418H80.72Z"/><path fill="url(#c)" d="m58.507 87.477-1.699 4.112a2.26 2.26 0 0 1-1.977 1.402c-.574.022-1.152.038-1.736.038-19.995-.01-37.685-14.107-42.068-33.53L4.22 61.036c2.46 10.894 8.633 20.782 17.384 27.85 8.853 7.146 20.005 11.092 31.415 11.113h.101c.67 0 1.335-.016 2-.043a9.256 9.256 0 0 0 8.145-5.717l2.218-5.375-6.977-1.387Z"/></g><defs><linearGradient id="b" x1="47.912" x2="85.964" y1="-3.229" y2="37.441" gradientUnits="userSpaceOnUse"><stop offset=".094" stop-color="#58D09E"/><stop offset=".988" stop-color="#58D09E" stop-opacity="0"/></linearGradient><linearGradient id="c" x1="2.466" x2="75.162" y1="72.752" y2="92.102" gradientUnits="userSpaceOnUse"><stop offset=".077" stop-color="#58D09E"/><stop offset=".762" stop-color="#1B1E2E"/></linearGradient><clipPath id="a"><path fill="#fff" d="M0 0h100v100H0z"/></clipPath></defs></svg>