<svg xmlns="http://www.w3.org/2000/svg" fill="none" viewBox="0 0 100 100"><path fill="#69D3A7" d="M5 63A50 50 0 0 1 35 3l3 7a43 43 0 0 0-26 51l-7 2Z"/><path fill="url(#a)" d="M91 30a43 43 0 0 0-54-20l-3-6a50 50 0 0 1 64 23l-7 3Z"/><path fill="#1B1E2E" d="M38 40c4 0 8 2 9 6l7-2v-1c-3-6-9-10-16-10a17 17 0 0 0-17 17c0 5 1 9 5 12 3 4 7 5 12 5 7 0 13-4 16-10v-1l-7-2c-1 4-5 6-9 6-3 0-5-1-7-3s-3-4-3-7 1-5 3-7 4-3 7-3Z"/><path fill="#1B1E2E" d="M81 33 71 58 61 33h-8l14 34-10 24 7 1 24-59h-7Z"/><path fill="url(#b)" d="m59 87-2 5-2 1h-2c-20 0-38-14-42-34l-7 2a50 50 0 0 0 49 39h2c4 0 7-2 8-6l2-5-6-2Z"/><defs><linearGradient id="a" x1="47.9" x2="86" y1="-3.2" y2="37.4" gradientUnits="userSpaceOnUse"><stop offset=".1" stop-color="#58D09E"/><stop offset="1" stop-color="#58D09E" stop-opacity="0"/></linearGradient><linearGradient id="b" x1="2.5" x2="75.2" y1="72.8" y2="92.1" gradientUnits="userSpaceOnUse"><stop offset=".1" stop-color="#58D09E"/><stop offset=".8" stop-color="#1B1E2E"/></linearGradient></defs></svg>