<svg xmlns="http://www.w3.org/2000/svg" viewBox="0 0 128 128"><path fill="#A80030" d="m74 68 3 1a27 27 0 0 0 2-2l-5 1m11-3 2-6-1 4c-4 3-1-1 0-3-5 5-1 3-1 5m4-11c0-4-1-2-1-1 0 0 1 3 1 1M66 3l2 1c1 0 2-1-2-1m2 1h-1 1m35 52-2 7-2 1c-2 3 0 2-1 4-2 2-7 7-9 7l1-2c-3 2-2 3-7 5v-1c-11 6-27-5-27-20l-1 2c0-8 4-16 11-19 6-3 14-2 19 3a17 17 0 0 0-28 1c-3 2-3 8-5 9-2 13 4 19 13 26v2l-8-6 4 5-7-7c5 8 19 15 27 11-3 1-8 1-12-1l-4-3c11 4 22 3 31-4l6-5-1 2c2-4-1-1 2-6l2 1c-1-3 3-7 3-11v5c2-4 0-5 1-8l1 3c-1-3 1-6 2-8-1 0-2 2-2-3 0-2 0-1 1-1-1 0-2-2-2-5l1 2-1-6c-1-3 0 1-2-1-2-6 2-1 2-4 3 4 4 10 5 13l-2-9s-2-7 1-2c-3-10-12-19-19-23l1 2c-4-2-3-2-3-3-4-2-4 0-6 0-6-4-7-3-13-5l1 1h-9l2-1h-7l3-1h-6c-5 2-15 5-20 10v-1c-2 3-10 8-11 12l-3 7c-2 3-3 1-2 1l-6 16v15c-2 28 20 56 43 62l13 1-10-2c-4-2-5-4-7-6l1 2-7-4 1-1c-2 0-5-3-5-4h-2l-3-6-1 1c-1-1-8-10-4-8l-3-3 1-1-3-6 2 2c-4-12-5-1-8-12h1l-2-3 1-3c-4-4-1-16-1-23l5-10h-1c2-4 12-15 16-14 3-3 0 0 0-1 5-5 6-4 9-5 4-2-3 1-1 0 6-2 4-4 13-5l-3 2c5-3 16-2 24 1 8 4 18 16 18 27 0 4 1 9-1 14l2-2M51 70v2l4 5-4-7m3 0-1-2 2 4-1-2m57-12v1a37 37 0 0 1-4 11 36 36 0 0 0 4-12M66 2h5-5M17 28c1 3-2 4 1 3 1-4-1-1-1-3m-3 14 1-4c-2 2-1 3-1 4"/></svg>