<svg xmlns="http://www.w3.org/2000/svg" fill="none" viewBox="0 0 512 512"><path fill="#5865F2" d="M434 90c-33-15-69-27-106-33-4 8-10 19-13 28-40-6-79-6-118 0-3-9-9-20-13-28-37 6-73 18-106 33A443 443 0 0 0 2 387c45 33 87 53 130 66 10-14 19-29 27-45-15-6-29-13-43-22l10-8c85 39 176 39 260 0l10 8c-14 9-28 16-44 22 8 16 18 31 28 45 42-13 85-33 130-66 10-113-18-210-76-297ZM171 327c-25 0-46-23-46-52s20-53 46-53 46 24 46 53-20 52-46 52Zm170 0c-25 0-46-23-46-52s20-53 46-53 47 24 46 53c0 29-20 52-46 52Z"/></svg>