<svg xmlns="http://www.w3.org/2000/svg" fill="none" viewBox="0 0 100 100"><g fill="#2496ED"><path d="M99 41s-3-2-8-2h-4c-1-7-7-10-7-10l-2-1-1 1-2 6c-1 4-1 8 1 11-2 2-6 2-7 2H3c-2 0-3 1-3 3 0 6 1 12 3 17 2 6 6 10 10 13 5 3 13 5 22 5l12-1c6-1 11-3 16-6l11-9c5-6 8-13 11-18 6 0 10-3 12-5l3-4v-1l-1-1Z"/><path d="M9 46h9l1-1v-8H8v8l1 1Zm12 0h9l1-1v-8H21v9Zm13 0h9v-9H33v8l1 1Zm12 0h9l1-1v-8H45v8l1 1ZM21 35h9l1-1v-8l-1-1h-9v10Zm13 0h9V25h-9l-1 1v8l1 1Zm12 0h9l1-1v-8l-1-1h-9l-1 1v8l1 1Zm0-12h10v-8l-1-1h-9l-1 1v8h1Zm12 23h9l1-1v-8H57v8l1 1Z"/></g></svg>