<svg xmlns="http://www.w3.org/2000/svg" preserveAspectRatio="xMidYMid" viewBox="-17 0 289 289"><path fill="#5294CF" d="M165 289h4l57-29 1-1V30l-1-1-57-29h-4v289"/><path fill="#1F5B98" d="M91 289h-4l-57-29-1-2-1-227 2-2L87 0h4v289"/><path fill="#2D72B8" d="M87 0h82v289H87V0Z"/><path fill="#1A476F" d="m256 138-2-1-28-2-57-2H87l-57 2V91l57-13h82l57 13 21 11v-7l9-1-1-2-28-20-1 1-57-18H87L30 73V29L0 64v30l9 1v8l-9 4v31h9v13H0v30l9 5v7l-9 1v31l30 35v-44l57 18h82l57-18h1l28-20 1-2-9-1v-7h-1l-19 10-1 1-57 14H87l-57-14v-44l57 3h82l57-3 1 1 27-2 2-1h-9v-13h9"/><path fill="#2D72B8" d="M226 216v44l30-35v-31l-30 22m0-19 30-16v-30l-30 2v44m0-106v44l30 3v-31l-30-16m0-18 30 21V64l-30-35v44"/></svg>