<svg xmlns="http://www.w3.org/2000/svg" viewBox="0 0 128 128"><defs><linearGradient id="a" x1=".5" x2=".5" y1="10.9" y2="-1.6" gradientTransform="matrix(77 0 0 7 32 54)" gradientUnits="userSpaceOnUse"><stop offset=".3" stop-color="#473788"/><stop offset=".9" stop-color="#2c2255"/></linearGradient><linearGradient id="b" x1=".5" x2=".5" y1="9" y2="-3.5" gradientTransform="matrix(77 0 0 7 32 67)" gradientUnits="userSpaceOnUse"><stop offset=".3" stop-color="#473788"/><stop offset=".9" stop-color="#2c2255"/></linearGradient><linearGradient id="c" x1=".5" x2=".5" y1="2.2" y2="-1.7" gradientTransform="matrix(70 0 0 22 36 80)" gradientUnits="userSpaceOnUse"><stop offset=".3" stop-color="#473788"/><stop offset=".9" stop-color="#2c2255"/></linearGradient></defs><path fill="#2c2255" d="M36 80H16c3 9 8 17 15 24a54 54 0 0 0 48 16c12-2 22-7 31-16 7-7 12-15 14-24ZM25 54H15a59 59 0 0 0-1 7h113a59 59 0 0 0-1-7M14 67a59 59 0 0 0 1 7h111l1-7m-2-19A61 61 0 0 0 80 8a61 61 0 0 0-10 0c-15 0-28 5-39 16-7 7-12 15-15 24"/><path fill="#f7941e" d="M11 64c0-30 22-54 51-59h-2a59 59 0 1 0 0 118h2c-29-5-51-29-51-59Zm0 0"/><path fill="url(#a)" d="M109 61a38 38 0 0 0-1-7H33a38 38 0 0 0-1 7Zm0 0"/><path fill="url(#b)" d="M109 67H32l1 7h75a38 38 0 0 0 1-7Zm0 0"/><path fill="url(#c)" d="M70 102c16 0 29-9 35-22H36c6 13 19 22 34 22Zm0 0"/><path fill="#fff" d="M27 67h100a56 56 0 0 0 0-3v-3H14a61 61 0 0 0 0 3v3Zm8-19H16l-1 6h111a55 55 0 0 0-2-6m-6 26H15l1 6h108a56 56 0 0 0 2-6Zm0 0"/></svg>