<svg xmlns="http://www.w3.org/2000/svg" fill="none" viewBox="0 0 100 100"><path fill="#fff" d="M100 52c0-8-5-16-13-18v-6a28 28 0 0 0-51-16c-2-2-5-3-9-3a15 15 0 0 0-14 20C5 32 0 39 0 47c0 9 5 16 13 19a28 28 0 0 0 51 22c2 2 5 3 9 3a15 15 0 0 0 14-20c8-3 13-10 13-19Z"/><path fill="#FED10A" d="m39 43 22 10 22-19 1-5a25 25 0 0 0-45-14l-4 19 4 9Z"/><path fill="#24BBB1" d="m17 66-1 5a25 25 0 0 0 45 14l4-19-5-9-22-10-21 19Z"/><path fill="#EF5098" d="m17 28 15 4 3-17c-2-2-5-3-7-3a12 12 0 0 0-11 16Z"/><path fill="#1BA9F5" d="M15 32C9 34 4 40 4 47s4 13 10 16l22-19-4-8-17-4Z"/><path fill="#93C83E" d="m65 85 7 2a12 12 0 0 0 11-16l-14-3-4 17Z"/><path fill="#07C" d="m68 64 17 4c6-2 11-9 11-16s-4-13-11-15L64 56l4 8Z"/></svg>