<svg xmlns="http://www.w3.org/2000/svg" fill="none" viewBox="0 0 100 100"><g fill="#2DD0ED"><path d="M37 21c-14-2-24 1-28 8-3 5-2 12 2 20a1 1 0 1 0 2-2c-3-6-4-13-2-17 4-6 13-8 25-6a1 1 0 1 0 1-3ZM18 58c5 6 12 11 20 16 19 11 39 13 49 7a1 1 0 0 0-1-3c-9 7-29 4-47-7a81 81 0 0 1-20-15 1 1 0 0 0-1 2Z"/><path d="M84 56c8-10 11-20 7-27-3-5-9-8-18-8a1 1 0 0 0 0 2c8 0 13 3 16 7 3 6 1 15-7 24a1 1 0 1 0 2 2ZM62 22l-24 9C18 43 6 59 7 71a1 1 0 1 0 3 0C8 60 21 45 39 34a81 81 0 0 1 24-10 1 1 0 0 0-1-2Z"/><path d="M30 80c5 12 12 20 20 20 6 0 12-4 16-11a1 1 0 1 0-2-2c-4 7-9 10-14 10-7 0-13-7-17-18a1 1 0 1 0-3 1Zm41-3c2-7 4-16 4-24 0-23-8-42-19-47a1 1 0 0 0-1 3c10 4 17 22 17 44a82 82 0 0 1-3 25 1 1 0 0 0 2-1Zm25-1a6 6 0 1 0-13 0 6 6 0 0 0 13 0Zm-2 0a4 4 0 1 1-8 0 4 4 0 0 1 8 0Zm-84 6a6 6 0 1 0 0-12 6 6 0 0 0 0 12Zm0-2a4 4 0 1 1 0-8 4 4 0 0 1 0 8Z"/><path d="M50 13a6 6 0 1 0 0-13 6 6 0 0 0 0 13Zm0-3a4 4 0 1 1 0-7 4 4 0 0 1 0 7Zm1 47a5 5 0 0 1-2-9 5 5 0 0 1 2 9Z"/></g></svg>