<svg xmlns="http://www.w3.org/2000/svg" fill="none" viewBox="0 0 128 128"><path fill="#fff" d="m89.7 24.8-.2-.2h-.1a60.2 60.2 0 0 1-7.1 3.8 33.6 33.6 0 0 1-20 3.3h-.4c-1.6-.2-3.2-.4-5-.4-3.7-.1-8 .4-15.1 2.7a30 30 0 0 0-15 11.3 86.2 86.2 0 0 0-3.4 5l-.8 1.2a15.5 15.5 0 0 1-3.2 3.8A1081.4 1081.4 0 0 0 4.5 66.4L3 67.6l-.4.3-.1.1-.2.1v.4l.1.3h.4l10.4-3.4-1.6 1.8a158.5 158.5 0 0 0-7.4 9.1l-.6-.6.1.9v.1l.1.1a24.2 24.2 0 0 0 3.4 4c1 1 2.2 1.9 3.5 2.4a6 6 0 0 0 4.2.5l1.7-.7a21 21 0 0 0 8 2.6l.8.1-.5-.6h-.1a54.7 54.7 0 0 1-3.6-4.9l.8-.5 4.3 1.5.5.2V81l-.5-3.7 4 1.5.4.1v-.5l-.6-3.5 1.5-.7.1-.1V74l4.5-17 17.9-12.2-1.2 2.8a21.4 21.4 0 0 1-9.6 11c-.3 0-.7.2-1 .4h-.1l-3 1.1-.1.1-.4.4c-.9 1.1-1.6 2-2.2 3.4-.6 1.6-1 4-1.4 8.4v.4h.4c1.7-.5 3.4-.6 4.9-.2a12.5 12.5 0 0 1 9 11.1c.1 1.3-.1 2.3-.6 2.9-.5.6-1.7 1.7-3.3 3h-3.4v2.8h-3.7v2.8l-.5.3-.2.2a11 11 0 0 1-4.5-1.3 21.1 21.1 0 0 1-2.2-1.2l-.6-.4v.6c0 1.3.6 2.9 1 4.1l1 2v.1l.2.3v.1h.2l.3.2c1.4.9 2.9 1.6 4.4 2.3 1.4.5 3 1 4.5 1.3 1.6.2 3.1.2 4.5-.4 1.2-.4 2.8-1.4 4.8-2.6l4.4-2.8 2.2-1.5c5-3.1 10.5-6.6 15.7-8.9l31.4-8.2h.1V79l4.2-10.8.3-.5-.6.1-23.6 6.3v-9l27.9-7.4h.1v-.2l4.2-10.8.3-.5-.6.1-31.9 8.4v-9l36.2-9.5h.1V36l4-10-.2-.7V25h-.4L87.7 35a17 17 0 0 0 2.5-7 11.2 11.2 0 0 0-.2-3.3l-.3.1Zm0 0-.2-.2.3-.3.2.4-.3.1Zm-.3.1ZM64.7 56.7l7-1.9-2.3 5.8-7 1.9 2.3-5.8Zm4.3 6.6-2.2 5.8-7 1.9 2.2-5.8 7-1.9Zm10-2.1-2 5.7-7 1.9 2-5.8 7-1.8Z"/><path fill="#fff" d="M43.7 104.1 42 104a20 20 0 0 1-4.6-1.4 32 32 0 0 1-4.5-2.3h-.4l-.1-.3-.6-.4.3-.2-.2-.2-.7-1.7a12 12 0 0 1-1-4.2V92l1 .7c.7.5 1.4 1 2.2 1.3a11 11 0 0 0 4.2 1.2l.1-.1.3-.2V92h3.7v-2.9h3.7c1.7-1.4 2.7-2.4 3.2-3 .4-.4.6-1.4.5-2.6 0-1.3-.4-2.7-1-4.1-.8-1.5-1.8-3-3-4-1.4-1.3-3-2.2-4.8-2.7a9.3 9.3 0 0 0-4.7.1l-.9.2.1-.8c.4-4.3.8-6.8 1.5-8.5.5-1.5 1.3-2.4 2.2-3.5h.1l.3-.4v-.1h.2l3-1.2 1.1-.5a19.5 19.5 0 0 0 6.2-5.1c1.3-1.6 2.4-3.5 3.2-5.5l.8-2L36.5 57 32 74v.2l-.3.1-1.2.6.6 4.4-4.4-1.6.5 4.2L22 80l-.5.3a47.1 47.1 0 0 0 3.2 4.2c0 .2.2.3.2.3v.1l.2.1.9 1h-1.5c-2.6-.4-5.3-1.2-8-2.7-.5.3-1 .5-1.6.6-1.4.4-2.9.3-4.4-.4C9.4 83 8.2 82.1 7 81a24.8 24.8 0 0 1-3.2-3.7l-.1-.1-.2-.3v-.2L3 74.9l1.2 1a157.4 157.4 0 0 1 8-9.9l-9.4 3-.7.2L2 68l.4-.3.2-.2.8-.6 1-.7a5375.7 5375.7 0 0 1 14.9-11.1c.9-.7 1.9-2 3-3.8l.8-1.2 3.4-5a29.6 29.6 0 0 1 15.1-11.5A45.9 45.9 0 0 1 62 31.4h.3a27.4 27.4 0 0 0 13-.5 49.8 49.8 0 0 0 14-6.4v-.1l.7-.4.3 1 .1.7V28c-.1 2.2-.9 4.3-2 6.5l37.2-9.9.4 1.4v.2l-4 10.3h-.3l-36 9.5v8.5l32.6-8.6-.4 1-4.2 11-.3.2-27.7 7.3v8.4l23.2-6.2 1.1-.3-.4 1.1-4.2 11-.3.1-31.4 8.3c-5 2.2-10.5 5.6-15.6 8.9L56 98h-.2l-4.4 2.9a32.5 32.5 0 0 1-4.8 2.6c-.8.4-1.8.5-2.9.5ZM33 99.6l.3.2c1.4.9 3 1.6 4.5 2.3 1.5.6 3 1 4.4 1.3 1.6.2 3 .1 4.3-.3 1-.4 2.5-1.3 4.7-2.6l4.4-2.9h.1l2.2-1.4c5.1-3.4 10.5-6.7 15.6-9L105 79l4.2-10.8-24 6.3V65l28.1-7.4 4.2-10.8L85 55.2v-9.6l36.4-9.6 3.9-10-.2-.6-38.2 10 .4-.6c1.4-2.3 2.3-4.6 2.5-6.9a11 11 0 0 0-.2-2.8h-.2V25h-.1v.2h-.2a57.6 57.6 0 0 1-13.7 6.1c-2.7.8-5.2 1.2-7.3 1.1-2.2 0-4-.2-6-.4H62c-1.7-.2-3.3-.4-5-.4-4.3-.1-8.8.7-15 2.7-3.3 1-6.2 2.6-8.9 4.8-2.1 1.7-4 3.8-6 6.4a86 86 0 0 0-3.4 4.9l-.8 1.2a13 13 0 0 1-3.2 4 1095.5 1095.5 0 0 0-14.9 11l-1 .8-.7.6-.2.1-.1.1v.2l11.5-3.7-.8.9-1.6 1.8a158 158 0 0 0-7.3 9.2l-.2.2-.1-.1v.3a23.1 23.1 0 0 0 3.2 3.6A13 13 0 0 0 11 83a6 6 0 0 0 3.9.4l1.7-.7h.2a21 21 0 0 0 7.9 2.6 49.2 49.2 0 0 1-3.6-5l-.2-.2.3-.1.8-.6h.1l4.4 1.6-.5-4.2 4.4 1.6-.5-3.8.2-.1 1.4-.7L36 56.7l18.7-12.8-1.5 3.7a23.5 23.5 0 0 1-6.9 9.3 17.2 17.2 0 0 1-4 2.3l-3 1.1-.2.3-.1.1c-1 1.1-1.6 1.9-2.2 3.3-.6 1.7-1 4-1.4 8.3 2-.4 3.6-.5 5-.1a12 12 0 0 1 5 2.8 13.9 13.9 0 0 1 4.3 8.6c.1 1.3-.1 2.4-.7 3-.4.7-1.5 1.7-3.3 3.1l-.1.1h-3.2v2.6l-.2.1-.1.1h-3.4v2.7h-.2l-.4.4-.2.2h-.2c-1 0-2.4-.2-4.6-1.3a21.3 21.3 0 0 1-2.3-1.3c0 1 .3 2.4 1 4 .2.7.6 1.4.9 2l.1.2.1.1Zm26.4-28.2 2.5-6.5 7.7-2-2.5 6.5-7.7 2Zm3-6-2 5.1 6.3-1.7 2-5-6.4 1.6Zm7 3.8 2.5-6.5 7.8-2-2.5 6.5-7.8 2Zm3-6-2 5.1 6.3-1.6 2-5.1-6.3 1.7ZM61.9 63l2.5-6.5 7.8-2-2.5 6.5-7.8 2Zm3-6-2 5.1 6.3-1.6 2-5.1-6.3 1.6Z"/></svg>