<svg xmlns="http://www.w3.org/2000/svg" viewBox="0 0 128 128"><path d="M90 25h-1a60 60 0 0 1-2 1 69 69 0 0 1-5 2c-4 2-9 4-14 4h-6l-5-1-15 3c-7 2-12 7-15 11l-4 5v1l-4 4-10 8a4308 4308 0 0 0-4 3l-2 2H2h1-1v1h1l10-4-1 2-8 9v1a24 24 0 0 0 1 1 24 24 0 0 0 2 3l4 2 4 1 2-1 8 3v-1a55 55 0 0 1-1-1 47 47 0 0 1-3-4h1l4 1h1l-1-4 4 2h1v-1l-1-3 2-1 4-17 18-12-1 3-7 9a17 17 0 0 1-3 1 11 11 0 0 1-1 1l-3 1v1c-1 1-2 1-2 3l-2 8v1l5-1c4 2 7 4 8 7l1 5v2l-4 4h-3v2h-4v4l-5-2a21 21 0 0 1-2-1h-1l1 4a28 28 0 0 0 1 2v1h1a32 32 0 0 0 5 2l4 2 4-1 5-2 5-3a774 774 0 0 1 18-10l31-9 4-11h1-1l-24 6v-9l28-7 5-11v-1h-1l-32 9v-9l37-10 4-10-1-1-37 10 2-7v-2a8 8 0 0 0 0-1zm0 0v-1 1zm-1 0zM65 57l7-2-3 6-7 1 3-5zm4 6-2 6-7 2 2-6 7-2zm10-2-2 6-7 2 2-6 7-2z"/><path fill="#fff" d="M44 104a12 12 0 0 1-2 0l-5-1a32 32 0 0 1-4-3h-1v-1l-1-1-1-5v-1l1 1a21 21 0 0 0 2 1l5 1v-3h4v-3h3l4-3v-2l-1-5a13 13 0 0 0-3-4 11 11 0 0 0-5-2h-5v-1l1-8 3-4 3-1a11 11 0 0 0 1-1 16 16 0 0 0 3-2 20 20 0 0 0 3-3l4-6v-2L36 57l-4 17-2 1 1 4-4-1v4l-5-2a47 47 0 0 0 2 3l1 2 1 1h-1c-3 0-6-1-8-3a10 10 0 0 1-2 1h-4l-4-3a25 25 0 0 1-3-4H3v-2l1 1a157 157 0 0 1 8-10l-9 3H2v-1h1v-1l1-1a5376 5376 0 0 1 18-15l1-1 4-5c1-3 3-5 6-6a28 28 0 0 1 9-5 46 46 0 0 1 20-3l6 1 7-1 7-3a70 70 0 0 0 5-2 56 56 0 0 0 2-2h1v4c0 2 0 4-2 6l38-9v1l-4 10v1l-36 9v8l32-8v1l-4 11h-1l-27 7v9l23-6 1-1v1l-5 11v1l-31 8c-5 2-11 5-16 9l-2 1-5 3-4 3h-3zm-11-4a32 32 0 0 0 5 2l4 1h4l5-3 4-2h1a706 706 0 0 1 2-2l15-9 32-8 4-11-24 7V65l28-8 4-10-32 8v-9l37-10 3-10v-1L87 35c2-2 3-5 3-7v-2a7 7 0 0 0 0-1h-1l-1 1a70 70 0 0 1-6 3l-7 2-7 1H57c-4-1-9 0-15 2l-9 5-6 6-3 5-1 2-3 4-10 7a4107 4107 0 0 0-5 4H4l-1 1 11-3-1 1a64 64 0 0 0-1 1L5 77H4a23 23 0 0 0 3 4l4 2h4a10 10 0 0 0 1 0h1l8 2a49 49 0 0 1-2-1 47 47 0 0 1-2-4l1-1 4 2v-4l4 1v-3l1-1 5-17 19-13-2 4-3 5a20 20 0 0 1-4 4 17 17 0 0 1-3 2 12 12 0 0 1-1 0l-3 1v1l-2 3-2 8h5a12 12 0 0 1 5 3 14 14 0 0 1 4 4l1 5-1 3-3 3h-4v3h-3v2l-1 1-5-1a21 21 0 0 1-2-2l1 4a26 26 0 0 0 1 2v1zm26-29 3-6 8-2-3 6-8 2zm3-6-2 6 7-2 2-5-7 1zm7 4 3-6 8-2-3 6-8 2zm3-6-2 5 7-1 2-5-7 1zm-10 0 2-7 8-2-2 7-8 2zm3-6-2 5 6-2 2-5-6 2z"/></svg>