<svg xmlns="http://www.w3.org/2000/svg" viewBox="0 0 128 128"><defs><linearGradient id="a" x1="64" x2="64" y1="15.5" y2="114.4" gradientUnits="userSpaceOnUse"><stop offset="0" stop-color="#BF0000"/><stop offset="1" stop-color="#8F0000"/></linearGradient></defs><path fill="url(#a)" d="M4 0a4 4 0 0 1-4 4v6a4 4 0 0 1 4 4 4 4 0 0 1-4 5v5a4 4 0 0 1 0 9v5a4 4 0 0 1 4 5 4 4 0 0 1-4 4v6a4 4 0 0 1 4 4 4 4 0 0 1-4 4v6a4 4 0 0 1 4 4 4 4 0 0 1-4 4v6a4 4 0 0 1 4 4 4 4 0 0 1-4 5v5a4 4 0 0 1 4 5 4 4 0 0 1-4 4v5a4 4 0 0 1 4 5 4 4 0 0 1-4 4v6a4 4 0 0 1 4 4h6a4 4 0 0 1 4-4 4 4 0 0 1 5 4h5a4 4 0 0 1 4-4 4 4 0 0 1 5 4h5a4 4 0 0 1 5-4 4 4 0 0 1 4 4h6a4 4 0 0 1 4-4 4 4 0 0 1 4 4h6a4 4 0 0 1 4-4 4 4 0 0 1 4 4h6a4 4 0 0 1 4-4 4 4 0 0 1 5 4h5a4 4 0 0 1 5-4 4 4 0 0 1 4 4h5a4 4 0 0 1 5-4 4 4 0 0 1 4 4h6a4 4 0 0 1 4-4v-6a4 4 0 0 1-4-4 4 4 0 0 1 4-5v-5a4 4 0 0 1-4-4 4 4 0 0 1 4-5v-5a4 4 0 0 1-4-5 4 4 0 0 1 4-4v-6a4 4 0 0 1-4-4 4 4 0 0 1 4-4v-6a4 4 0 0 1-4-4 4 4 0 0 1 4-4v-6a4 4 0 0 1-4-4 4 4 0 0 1 4-5v-5a4 4 0 0 1-4-5 4 4 0 0 1 4-4v-5a4 4 0 0 1-4-5 4 4 0 0 1 4-4V4a4 4 0 0 1-4-4h-6a4 4 0 0 1-4 4 4 4 0 0 1-5-4h-5a4 4 0 0 1-4 4 4 4 0 0 1-5-4h-5a4 4 0 0 1-5 4 4 4 0 0 1-4-4h-6a4 4 0 0 1-4 4 4 4 0 0 1-4-4h-6a4 4 0 0 1-4 4 4 4 0 0 1-4-4h-6a4 4 0 0 1-4 4 4 4 0 0 1-5-4h-5a4 4 0 0 1-5 4 4 4 0 0 1-4-4h-5a4 4 0 0 1-9 0H4zm31 19h56l-4 17H49l-4 15h64l-3 11-34 34 9 1c8 0 17-3 23-5l-3 15c-9 4-14 4-20 4l-17-2-10 2-7-10 36-35H42l-8 36H17l18-83z"/></svg>