<svg xmlns="http://www.w3.org/2000/svg" fill="none" viewBox="0 0 512 512"><g clip-path="url(#a)"><path fill="url(#b)" d="M411 48c-12 14-18 47-6 80 13 33 32 26 44 60 16 44 9 104 9 104s19 55 33-4c29-110-80-213-80-240Z"/><path fill="url(#c)" d="M259 507c128 0 231-104 231-232S387 43 259 43A231 231 0 0 0 28 275c0 128 104 232 231 232Z"/><path fill="url(#d)" d="m432 418-16 10c8-11 14-22 20-33a129 129 0 0 0 19-27c13-23 28-61 28-100v-3c0-10-1-19-3-29v2-1l1 3c2 22 0 44-9 60l-1 1c5-25 7-52 1-79 0 0-2-13-18-53-9-23-26-42-41-56-12-16-24-27-30-33a89 89 0 0 1-22-32l-30-27c-11 18-46 72-29 123 7 23 27 46 47 60 1 1 12 13 17 40 5 28 2 50-9 82-13 29-47 57-78 59-68 7-92-33-92-33 24 9 50 7 67-3 16-10 26-17 34-15 8 3 14-5 8-14-8-14-25-21-41-18s-31 16-53 3l-4-3 4 1c-5-2-12-7-14-9l3 1c-20-17-18-28-17-35 1-6 4-13 10-16l5 3-2-4h1l11 6 4 5 1-3-5-7 6 5c1-4 3-8 2-15l-1-8c0-2 1-2 2 0l-1-4c2-6 36-22 38-23l10-11c2-3 3-7 4-14 0-4-2-7-37-11-9-1-14-8-17-14l-2-4-2-4c6-16 15-30 29-40 1-1-3 0-2-1l8-3c1-1-6-4-12-3s-8 1-11 3c1-2 6-3 5-3-7 1-15 5-23 9l1-2c-4 1-12 7-14 12v-3l-7 7c-20-7-37-8-51-4-3-4-5-1-12-17 0 1-1-1 0 0 1 4-1-3 0 0-12 9-28 20-36 28 9-3 0 0 0 0-3 1-3 3-3 19v4l-12 18c-8 14-17 35-25 69l13-27c-7 18-14 46-15 89l7-26a246 246 0 0 0 44 154 235 235 0 0 0 347-6Z"/><path fill="url(#e)" d="M380 451c85-10 123-97 74-99-43-1-114 104-74 99Z"/><path fill="url(#f)" d="M460 334c59-34 44-107 44-107s-23 26-38 68c-15 41-41 60-6 39Z"/><path fill="url(#g)" d="M275 494c82 26 151-38 108-59-39-19-146 47-108 59Z"/><path fill="url(#h)" d="m466 365 8-15c14-23 14-42 14-42a196 196 0 0 0-37-176c-17-19-5-13-21-27-14-15-28-31-36-37-54-46-53-55-52-57v1l-1-5s-30 30-36 79c-4 33 8 66 25 88 9 11 20 21 31 30 13 19 20 42 20 68a114 114 0 0 1-139 111c-30-6-47-21-56-31l-7-10c27 10 56 8 74-2s29-18 38-15 16-5 9-14c-6-9-22-22-45-18-18 3-35 15-59 3l-4-3 3 1-14-9 3 1c-22-17-20-28-19-35 1-5 5-12 11-15l6 3-2-4v-1l12 7 5 4s2 0 1-2c-1-1-2-4-6-7l7 4c1-4 3-7 3-14l-1-8c-1-2 0-3 2-1l-1-4c1-6 39-21 42-23 4-2 8-6 11-10 2-3 3-7 4-14 0-3-1-5-11-7l-29-4c-11-1-17-8-20-14l-2-4-2-4c7-16 18-30 32-39 1-1-3 0-2-1l8-4c2 0-6-3-13-2-7 0-8 1-12 2 2-1 7-3 5-3-7 1-16 5-24 10v-3c-4 2-13 8-15 12v-2l-8 7c-21-8-40-8-56-5-4-3-10-8-18-24 0-1 0 2-1 1-3-7-5-19-4-27 0 0-7 3-12 15l-2 5v-4l-4 7-3 6v-3a125 125 0 0 0-13 55v3l-13 18c-9 14-18 35-28 68 4-9 9-18 15-26-8 18-15 45-17 88l7-26a241 241 0 0 0 116 212c60 37 20 15 56 27l8 2-3-1c24 7 48 11 72 11 92 0 118-37 118-37v1l4-4c-14 13-47 14-60 13a728 728 0 0 0 71-25l2-1 2-1c13-6 25-13 36-22 27-22 33-43 36-57l-3 7c-7 15-22 24-39 31 8-10 16-21 22-32 6-5 7-14 11-20Z"/><path fill="url(#i)" d="M434 417c11-12 21-26 28-42 19-40 49-107 26-177-19-56-44-86-77-116-52-48-66-69-66-82 0 0-61 67-35 138 27 70 80 67 116 141 41 86-34 180-97 206 4-1 139-31 146-108 0 1-3 22-41 40Z"/><path fill="url(#j)" d="M259 166c0-4-2-7-40-11-16-1-22-16-23-22-6 15-8 30-7 48 1 12 9 25 13 32l1-1c7-8 37-19 40-21s15-11 16-25Z"/><path fill="url(#k)" d="M93 81c-1-1-1 2-2 1-3-7-5-18-4-27 0 0-7 3-12 15l-2 5v-4l-4 7-2 6v-3c-13 24-15 60-14 58 27-28 57-34 57-34-4-3-11-9-17-24Z"/><path fill="url(#l)" d="M192 375c-36-16-77-38-76-87 2-66 61-53 61-53-2 1-8 5-10 10s-6 18 6 31c19 21-40 50 51 104 3 1-21-1-32-5Z"/><path fill="url(#m)" d="M179 342c26 9 56 8 74-2 12-7 27-18 37-15a64 64 0 0 0-34-5l-15 3 4-2-8 1-5 1c-53 4-99-30-99-30-4 13 18 39 46 49Z"/><path fill="url(#n)" d="M434 417c54-53 81-118 70-190 0 0 4 37-13 75 8-37 9-83-13-131-30-64-79-98-98-112-29-21-40-42-41-47-8 18-34 77-2 129 29 48 76 62 108 106 60 82-11 170-11 170Z"/><path fill="url(#o)" d="M426 279c-19-39-43-57-65-75l5 7c19 21 48 72 27 137-39 121-198 64-215 48 7 70 124 103 200 58 44-41 79-111 48-175Z"/></g><defs><radialGradient id="b" cx="0" cy="0" r="1" gradientTransform="matrix(179 8 -12 263 483 128)" gradientUnits="userSpaceOnUse"><stop offset="0" stop-color="#FFEA00"/><stop offset=".1" stop-color="#FFDE00"/><stop offset=".3" stop-color="#FFBF00"/><stop offset=".4" stop-color="#FF8E00"/><stop offset=".8" stop-color="#FF272D"/><stop offset=".9" stop-color="#E0255A"/><stop offset="1" stop-color="#CC2477"/><stop offset="1" stop-color="#C42482"/></radialGradient><radialGradient id="c" cx="0" cy="0" r="1" gradientTransform="matrix(504 0 0 504 355 100)" gradientUnits="userSpaceOnUse"><stop stop-color="#00CCDA"/><stop offset=".2" stop-color="#0083FF"/><stop offset=".3" stop-color="#007AF9"/><stop offset=".3" stop-color="#0060E8"/><stop offset=".3" stop-color="#005FE7"/><stop offset=".4" stop-color="#2639AD"/><stop offset=".5" stop-color="#401E84"/><stop offset=".6" stop-color="#4A1475"/></radialGradient><radialGradient id="e" cx="0" cy="0" r="1" gradientTransform="matrix(169 17 -17 169 431 263)" gradientUnits="userSpaceOnUse"><stop offset="0" stop-color="#FFEA00"/><stop offset=".5" stop-color="#FF272D"/><stop offset="1" stop-color="#C42482"/></radialGradient><radialGradient id="f" cx="0" cy="0" r="1" gradientTransform="matrix(283 28 -28 283 432 99)" gradientUnits="userSpaceOnUse"><stop offset="0" stop-color="#FFE900"/><stop offset=".2" stop-color="#FFAF0E"/><stop offset=".3" stop-color="#FF7A1B"/><stop offset=".5" stop-color="#FF4E26"/><stop offset=".6" stop-color="#FF2C2E"/><stop offset=".8" stop-color="#FF1434"/><stop offset=".9" stop-color="#FF0538"/><stop offset="1" stop-color="#FF0039"/></radialGradient><radialGradient id="g" cx="0" cy="0" r="1" gradientTransform="matrix(259 26 -26 259 446 365)" gradientUnits="userSpaceOnUse"><stop offset="0" stop-color="#FF272D"/><stop offset=".5" stop-color="#C42482"/><stop offset="1" stop-color="#620700"/></radialGradient><radialGradient id="h" cx="0" cy="0" r="1" gradientTransform="matrix(407 0 0 407 382 205)" gradientUnits="userSpaceOnUse"><stop offset=".2" stop-color="#FFEA00"/><stop offset=".2" stop-color="#FFDE00"/><stop offset=".4" stop-color="#FFBF00"/><stop offset=".5" stop-color="#FF8E00"/><stop offset=".8" stop-color="#FF272D"/><stop offset=".8" stop-color="#F92433"/><stop offset=".8" stop-color="#E91C45"/><stop offset=".9" stop-color="#CF0E62"/><stop offset=".9" stop-color="#B5007F"/></radialGradient><radialGradient id="i" cx="0" cy="0" r="1" gradientTransform="matrix(481 0 0 481 352 1)" gradientUnits="userSpaceOnUse"><stop offset=".3" stop-color="#FFEA00"/><stop offset=".4" stop-color="#FD0"/><stop offset=".6" stop-color="#FFBA00"/><stop offset=".9" stop-color="#FF9100"/><stop offset=".9" stop-color="#FF6711"/><stop offset="1" stop-color="#FF4A1D"/></radialGradient><linearGradient id="d" x1="291.6" x2="191.9" y1="379.4" y2="53.6" gradientUnits="userSpaceOnUse"><stop stop-color="#000F43" stop-opacity=".4"/><stop offset=".5" stop-color="#001962" stop-opacity=".2"/><stop offset="1" stop-color="#002079" stop-opacity="0"/></linearGradient><linearGradient id="j" x1="19.8" x2="204.7" y1="200.4" y2="172.3" gradientUnits="userSpaceOnUse"><stop stop-color="#C42482" stop-opacity=".5"/><stop offset=".5" stop-color="#FF272D" stop-opacity=".5"/><stop offset=".5" stop-color="#FF2C2C" stop-opacity=".5"/><stop offset=".7" stop-color="#FF7A1A" stop-opacity=".7"/><stop offset=".8" stop-color="#FFB20D" stop-opacity=".9"/><stop offset=".9" stop-color="#FFD605"/><stop offset="1" stop-color="#FFE302"/></linearGradient><linearGradient id="k" x1="84.8" x2="63.8" y1="134.2" y2="58.9" gradientUnits="userSpaceOnUse"><stop stop-color="#891551" stop-opacity=".6"/><stop offset="1" stop-color="#C42482" stop-opacity="0"/></linearGradient><linearGradient id="l" x1="125" x2="168.2" y1="244.1" y2="304.3" gradientUnits="userSpaceOnUse"><stop offset="0" stop-color="#891551" stop-opacity=".5"/><stop offset=".5" stop-color="#FF272D" stop-opacity=".5"/><stop offset="1" stop-color="#FF272D" stop-opacity="0"/></linearGradient><linearGradient id="m" x1="207.4" x2="211.4" y1="349.7" y2="311" gradientUnits="userSpaceOnUse"><stop stop-color="#C42482"/><stop offset=".1" stop-color="#C42482" stop-opacity=".8"/><stop offset=".2" stop-color="#C42482" stop-opacity=".6"/><stop offset=".3" stop-color="#C42482" stop-opacity=".4"/><stop offset=".4" stop-color="#C42482" stop-opacity=".2"/><stop offset=".6" stop-color="#C42482" stop-opacity=".1"/><stop offset=".7" stop-color="#C42482" stop-opacity="0"/><stop offset=".8" stop-color="#C42482" stop-opacity="0"/></linearGradient><linearGradient id="n" x1="333.1" x2="492.2" y1="18.8" y2="374.4" gradientUnits="userSpaceOnUse"><stop stop-color="#FFF14F"/><stop offset=".3" stop-color="#FFEE4C"/><stop offset=".5" stop-color="#FFE643"/><stop offset=".6" stop-color="#FFD834"/><stop offset=".8" stop-color="#FFC41E"/><stop offset=".9" stop-color="#FFAB02"/><stop offset=".9" stop-color="#FFA900"/><stop offset=".9" stop-color="#FFA000"/><stop offset="1" stop-color="#FF9100"/></linearGradient><linearGradient id="o" x1="364.5" x2="289.2" y1="223.3" y2="425.6" gradientUnits="userSpaceOnUse"><stop stop-color="#FF8E00"/><stop offset="0" stop-color="#FF8E00" stop-opacity=".9"/><stop offset=".1" stop-color="#FF8E00" stop-opacity=".7"/><stop offset=".1" stop-color="#FF8E00" stop-opacity=".6"/><stop offset=".2" stop-color="#FF8E00" stop-opacity=".6"/><stop offset=".2" stop-color="#FF8E00" stop-opacity=".5"/><stop offset=".3" stop-color="#FF8E00" stop-opacity=".5"/><stop offset=".4" stop-color="#FF8E00" stop-opacity=".5"/><stop offset=".5" stop-color="#FF8E00" stop-opacity=".4"/><stop offset=".7" stop-color="#FF8E00" stop-opacity=".3"/><stop offset=".8" stop-color="#FF8E00" stop-opacity=".2"/><stop offset="1" stop-color="#FF8E00" stop-opacity="0"/></linearGradient><clipPath id="a"><path fill="#fff" d="M0 0h512v512H0z"/></clipPath></defs></svg>