<svg xmlns="http://www.w3.org/2000/svg" fill="none" viewBox="0 0 512 512"><g clip-path="url(#a)"><path fill="#45A5DC" d="M504 268c-5-7-12-11-21-14 8-2 15-6 19-11s7-12 7-20c0-11-5-21-13-28s-20-10-34-10l-16 1-21 5v18a125 125 0 0 1 37-8c9 0 16 2 20 6 5 4 7 10 7 17s-2 13-7 17c-5 3-12 5-21 5h-15v16h15c10 0 17 3 23 8s9 11 9 20-3 16-9 21c-6 4-14 7-24 7a93 93 0 0 1-38-10v19a130 130 0 0 0 40 7c15 0 28-4 37-11 9-8 13-18 13-31 0-10-3-18-8-24Z"/><path fill="#4BB748" d="m409 197-65 57v12l65 57v-26l-41-37 41-37v-26Zm-142 1v26l40 36-40 36v26l63-56v-12l-63-56Zm-58-30c-28-10-59-10-87 0-15 4-30 12-45 21v16c15-9 30-15 44-19 29-9 59-9 88 0 15 4 29 10 44 19v-16c-15-9-30-17-44-21Zm0 166a164 164 0 0 1-132-20v16c15 10 30 17 45 22 28 9 59 9 87 0 14-5 29-12 44-22v-16c-15 9-29 15-44 20Zm13-240h-11l-56 54h26l35-35 36 35h25l-55-54Zm-63 292v-18h-22v18l17 32h13l-8-32Zm-50-152H88v26h21v-26Zm-46-36L0 254v11l63 57v-26l-40-36 40-37v-25Z"/></g><defs><clipPath id="a"><path fill="#fff" d="M0 94h512v324H0z"/></clipPath></defs></svg>