<svg xmlns="http://www.w3.org/2000/svg" fill="none" viewBox="0 0 512 512"><g clip-path="url(#a)"><path fill="#E24329" d="m256 492 94-290H162l94 290Z"/><path fill="#FC6D26" d="m256 492-94-290H30l226 290Z"/><path fill="#FCA326" d="M30 202 1 290a20 20 0 0 0 7 22l248 180L30 202Z"/><path fill="#E24329" d="M30 202h132L105 27c-3-9-16-9-19 0L30 202Z"/><path fill="#FC6D26" d="m256 492 94-290h132L256 492Z"/><path fill="#FCA326" d="m482 202 29 88a20 20 0 0 1-7 22L256 492l226-290Z"/><path fill="#E24329" d="M482 202H350l57-175c3-9 16-9 19 0l56 175Z"/></g><defs><clipPath id="a"><path fill="#fff" d="M0 0h512v512H0z"/></clipPath></defs></svg>