<svg xmlns="http://www.w3.org/2000/svg" fill="none" viewBox="0 0 100 100"><g fill="#FFFCE1"><path d="M50 44c0-3 0-5-2-7l-6-2c-3 0-5 1-7 3-2 1-3 3-3 6 0 4 3 6 5 9l3 4c0 2-1 2-2 2h-1l-1-2v-1h-6a1 1 0 0 0-1 1l2 6c2 2 4 3 7 3 5 0 9-4 9-9 0-4-1-6-4-9-3-2-3-3-3-5 0-1 0-2 2-2l1 3h7Z"/><path d="M32 49H21l-1 5a1 1 0 0 0 0 1h2l-2 3-4 1-1-4 1-8c1-2 3-5 5-5 1 0 2 1 2 3l1 1h6a1 1 0 0 0 0-1c0-3 0-6-2-8l-6-2c-8 0-13 9-14 17 0 5 0 9 3 11 1 2 3 2 6 2s5 0 7-2a17 17 0 0 0 5-8h2v-1l1-5Z"/><path fill-rule="evenodd" d="M68 65V36H58L45 64l1 1h7l1-3 1-1h6v4h7ZM57 55l4-11 1-1-1 12h-4Zm19-19h5c7 0 10 3 10 9 0 7-4 13-11 14h-6v1h1l1 1h1l-1 4h-6a1 1 0 0 1-1 0l7-29Zm3 17c3-1 5-4 5-8 0-2-1-3-2-3h-4a853 853 0 0 0 3 2l-1 4a1114 1114 0 0 0-1 5Z" clip-rule="evenodd"/></g></svg>