<svg xmlns="http://www.w3.org/2000/svg" viewBox="0 0 128 128"><defs><linearGradient id="a" x1="11.2" x2="58.9" y1="59.2" y2="56.8" gradientUnits="userSpaceOnUse"><stop offset=".1" stop-color="#fc801d"/><stop offset=".2" stop-color="#b07f61"/><stop offset=".4" stop-color="#577db3"/><stop offset=".5" stop-color="#1e7ce6"/><stop offset=".6" stop-color="#087cfa"/></linearGradient><linearGradient id="b" x1="89" x2="73.1" y1="54.1" y2="6.5" gradientUnits="userSpaceOnUse"><stop offset="0" stop-color="#fe2857"/><stop offset=".1" stop-color="#cb3979"/><stop offset=".2" stop-color="#9e4997"/><stop offset=".3" stop-color="#7557b2"/><stop offset=".3" stop-color="#5362c8"/><stop offset=".4" stop-color="#386cda"/><stop offset=".5" stop-color="#2373e8"/><stop offset=".7" stop-color="#1478f2"/><stop offset=".8" stop-color="#0b7bf8"/><stop offset="1" stop-color="#087cfa"/></linearGradient><linearGradient id="c" x1="18.7" x2="78.8" y1="26.6" y2="126" gradientUnits="userSpaceOnUse"><stop offset="0" stop-color="#fe2857"/><stop offset=".1" stop-color="#fe295f"/><stop offset=".2" stop-color="#ff2d76"/><stop offset=".3" stop-color="#ff318c"/><stop offset=".4" stop-color="#ea3896"/><stop offset=".6" stop-color="#b248ae"/><stop offset=".8" stop-color="#5a63d6"/><stop offset="1" stop-color="#087cfa"/></linearGradient></defs><path fill="url(#a)" d="M23 88 6 74l10-18 16 5Zm0 0"/><path fill="#087cfa" d="m122 37-2 67-45 19-25-16Zm0 0"/><path fill="url(#b)" d="m122 37-22 21-29-35L85 7Zm0 0"/><path fill="url(#c)" d="m50 107-36 13 8-27 10-32-27-9L22 5l38 5 40 48Zm0 0"/><path d="M27 27h74v74H27Zm0 0"/><path fill="#fff" d="M37 87h27v4H37Zm13-45v-5H37v5h3v17h-3v5h13v-5h-4V42Zm13 22a11 11 0 0 1-5-1 12 12 0 0 1-4-3l4-4 3 2a5 5 0 0 0 2 1 3 3 0 0 0 3-1 5 5 0 0 0 1-4V37h6v17a12 12 0 0 1-1 5 8 8 0 0 1-5 5 12 12 0 0 1-4 0"/></svg>