<svg xmlns="http://www.w3.org/2000/svg" viewBox="0 0 128 128"><path fill="#d33833" d="M109 62c0 25-20 46-45 46S19 87 19 62s20-46 45-46 45 20 45 46"/><path fill="#ef3d3a" d="M21 73s-3-48 41-49l-3-5-24 8-7 8-6 11-3 13 1 9"/><path fill="#231f20" d="M33 30a45 45 0 0 0 31 76c12 0 23-5 31-13a45 45 0 0 0-31-76c-12 0-23 5-31 13zm-2 65a48 48 0 0 1 33-80c13 0 24 5 33 13a48 48 0 0 1-33 81c-13 0-24-5-33-14"/><path fill="#f0d6b7" d="m83 62-7 1-9 1H55l-4-1-4-5-3-8-1-2-4-2-3-4-1-5 2-5 4-2 4 2 1 4 2-1h1l-1-4v-5l1-7v-4l3-5 6-4 9-4 11 1 9 7 4 7 3 5 1 12-2 11-4 9-4 5"/><path fill="#335061" d="m88 57-4 4v16l-4 15h-1l1 16 6-1-1-15h-3l8-1 4-10 3-15-7-8-2-1zm-41 3-4 1-14 10 1 2 4 12 1 19 2 2 17 6 1-1-2-14v-4l24-1 2-2-15-7 3-5-4 2-2-2-2-9-1-1-4-1-3-3-4-4z"/><path fill="#6d6b6d" d="m37 32 4-2 4 2 1 4 2-1 1-2-1-4 1-9-1-5 3-4 7-5-2-3-10 5-3 3-3 5-3 5-1 5 1 6"/><path fill="#dcd9d8" d="M59 4h-2L46 8l-4 5-2 3h4s2-7 12-10c7-2 5-2 3-2zM48 15l-9 2-3 9 1 6 1-1s-3-12 11-14l-1-2z"/><path fill="#f7e4cd" d="M70 0a11 11 0 0 0-4 1C56 5 48 12 49 17v8s3-15 17-18c12-3 19 0 21 3 0 0-8-10-17-10zm18 12s-5 0-5 4l1 1s4-4 6-2l-2-3zm-25 2-3 1c-4 3-3 6-3 7l1 1 2-5c2-1 5-2 7 0 0 0-1-4-4-4zm27 10-4 3c0 3 4 1 4 1v-4zm-21 0s-4 1-4 3 4 3 6 2l-2-5zm-31 7-3 4v5l2 5 2 1c-3-4-1-7-1-11 1-3 8 1 8 1l-1-3-2-2h-5zm39 7-2 5 4-3-2-1a1 1 0 0 0 0-1zm-2 5zm-29 1-2 3v7l6 9h5c-7-5-8-16-8-17l-1-2zm19 3h-1l1 4c0-3 2-4 2-4h-2z"/><path fill="#49728b" d="M46 59 29 71l2 5 4 19v10l3 1c3-8-4-35-4-35l17-7-5-5zm6 20v1l-1 4 1 8h3V82l-3-3zm0 14-7 1 2 1 5 1v-3zm36-36-3 4 12 8v-4l-9-8zm-3 33-6 2v4c3 2 6-1 6-1v-5z"/><path fill="#fff" d="M51 63v1l2 3 7 3v-5l-5-1-4-1zm50 24-6 2-5 2h-3l-2 1 2 14 6-2 13-1 2-5-3-11h-4zm-22 5H69l-16 1v7l2 11 3 14 8 2 13-1v-2l-1-14 1-18zm1-2-4-9-4-6 2-2h4l4 1v6l-2 10"/><path fill="#dcd9d8" d="M52 65v1l3 2 4 1v-2l-7-2zm24 7-4 1 7 16h1l1-2-5-11s1-2 2-1l4 2v-3l-6-2zm16 18-2 1 2 10c-1-1-5 1-5 1v3h2l6-1 2 2h5l3-1 3-4v-3l-2-5-2 8-10-1-2-10zm-13 0-3 2s0 17 2 30c0 0-5 3-13 4h15l2-1-3-29v-6zm4 19h-2v10l4-1-1-9a1 1 0 0 0-1 0z"/><path fill="#d33833" d="m85 64-7 3 1 2h3l-3 1v2l8 1v-3l-1-6h-1zm-23 1c-2 0-2 4-2 6l2 6 1 1c1 1 4-1 5-1l5-4v-2l-4-1 4-1-3-2-7-2a2 2 0 0 0-1 0zm14 3-2 1 1 3c3 1 3-4 1-4z"/><path fill="#ef3d3a" d="m85 63-7 3v6l2 1v-2l2-1v-3l2-1h4l-1-3zm-22 1h-2c-4 3-1 9 1 13a552 552 0 0 0-1-6c0-4 1-4 5-4l3 1c1 2-1 2 1 3 3 1 7-1 6-3l-4-1-4-2-5-1Zm-1 13v2l1-1-1-1z"/><path fill="#231f20" d="M68 0 58 2l-7 2c-5 3-10 5-12 11-3 2-5 7-4 12v4l-1 1c-2 5 0 10 2 13 1 2 3 4 6 4l1 5 2 4-4 3-9 5c-2 2-5 2-5 5l3 7 2 7c2 5 2 11 2 16l1 5c0 2 2 2 4 3 4 2 9 5 14 4l5 13c5 2 15 2 21 1l4-2v-3c1-1 4-1 4-3 1-3-1-7-1-11 1 0 3 0 2-2l7-1 1 2 9-1c3-1 5-7 4-10l-3-8c-2-5-10-2-14 0l5-16 2-6-5-5-4-5c-1-1 1-3 2-4l1-5c3-11 4-25-1-33-1-3-5-8-8-10-4-3-10-4-16-4Zm0 3c5 0 10 2 14 4 3 1 5 5 7 7-3-1-5 1-5 4 3-3 7-1 8 2 2 2 2 6 2 10 0 9-2 18-6 24l-4 5c-4 2-10 5-15 3-7-2-10-7-14-12 0 3 2 5 4 8l6 5c-2-1-5-1-6 1-4-1-8-1-10-4a32 32 0 0 1-5-12c1-1 3-2 2-4l-4 2c-4 1-7-5-6-9 0-3 2-6 6-5 2 0 3 3 4 5l4-1-2-8c1-4 3-8 1-13 2-5 8-9 13-11l6-1zM56 5v1l-1 1-3 2-4 5h-2l-4 1c2-5 8-8 13-10h1zm8 10c-2 0-5 3-6 5v3c2-3 4-6 9-5 1-2-1-3-2-3a3 3 0 0 0-1 0zm-16 1c1 4-2 10-1 15 1 1 2 4 0 4 0-5-5-7-9-5-1-3-1-8 1-10 2-3 5-4 9-4zm41 7 2 6-5 1c0 4 6 2 7 0l-3-7h-1zm-20 0c-1 2 1 6 2 7-1 2-4 1-5 0-2 3 3 4 5 3l2-1c1-2-1-3-1-4-2-1-2-3-3-5zm11 2h-1c0 5 3 9 6 12 1 1 3 2 1 5-2 0-6 3-9 2l-2-3c-1 2 0 4 1 5 5 0 9-2 13-4v-4l-1-1-8-10v-2zm-39 9c-2 0-3 1-3 3 0-1 1-2 2-1v6c0-2 0-6 2-6l2 4c1-4-1-6-3-6zm50 10c-3 1-5 3-9 3v3c5 0 7-3 9-6zm-22 2c1 4 7 5 12 5v-3c-4 0-9 0-12-2zm-1 3c-2 0 0 1 0 2l4 4h9l2-2c-6 0-13 1-15-4zm20 10 5 5 3 3-1 4c0 4-2 10-4 14l-2 4-7 1 8-14-2-2c2-4 1-15-4-12l4-3zm-42 2 4 4 9 5 1 6c1 2 1 6 5 4l-2 4 5 3 6 3-21 1-1-5v-7c-1-1-1 1-1 2v10l-3-2v3c0 1-2 0-2 2h6l2 16c-7 0-12-3-17-6 0-11-2-23-7-33 5-4 10-8 16-10zm39 3h1l1 6v3l-8-1v-2l3-1h-3l-1-2 7-3zm-5 0-4 3-6-2h1c2 1 6-1 9-1zm-28 0 7 1-1 3c-1 0-7-3-6-4zm10 1h1l7 2 3 2-4 1 4 1v2l-5 4c-1 0-4 2-5 1l-1-1-2-6c0-2 0-6 2-6zm14 3c2 0 2 5-1 4l-1-3 2-1zm1 5 4 2-1 13c-2-4-4-10-7-13l1-1 3-1zm7 1c2 0 4 2 4 3l-7 12 2-14a4 4 0 0 1 1-1zm-12 2c3 4 4 8 6 13l-13-6c1-3 4-5 7-7zm29 12 3 2 3 8c0 3-1 6-4 7h-6l5-2h-9l-2-11c2-2 7-2 9-4a2 2 0 0 1 1 0zm0 3c-3 0-6 1-7 3 3 0 4-2 7-3zm-13 1h1c2 3 2 8 2 11l-3 1-2-12h2zm-19 0 9 1 1 13 1 18c-6 2-14 2-21 0-3-10-5-19-6-30l16-2zm15 1 1 13-4 1-1-14h4zm14 2-3 1 7-1h-4zm0 3-3 1h8l-5-1zm-15 11h1l1 9-4 1v-10h2z"/><path fill="#81b0c4" d="M84 74a4 4 0 0 0-1 1l-2 14 7-12c0-1-2-3-4-3zm-12 2c-3 2-6 4-7 7l13 6c-2-5-3-9-6-13z"/><path fill="#f0d6b7" d="m80 64-4 3-6-2h1c2 1 6-1 9-1"/><path fill="#1d1919" d="M79 77a1 1 0 1 1-2 0 1 1 0 0 1 2 0m1 4a1 1 0 1 1-2 0 1 1 0 0 1 2 0"/></svg>