<svg xmlns="http://www.w3.org/2000/svg" viewBox="0 0 128 128"><defs><linearGradient id="a" x1="22" x2="17.1" y1="9.8" y2="14.8" gradientTransform="scale(4)" gradientUnits="userSpaceOnUse"><stop offset=".2" stop-color="#0052cc"/><stop offset="1" stop-color="#2684ff"/></linearGradient><linearGradient id="b" x1="16.6" x2="11" y1="15.6" y2="21.1" gradientTransform="scale(4)" gradientUnits="userSpaceOnUse"><stop offset=".2" stop-color="#0052cc"/><stop offset="1" stop-color="#2684ff"/></linearGradient></defs><path fill="#2684ff" d="M108 16H62c0 12 9 21 21 21h8v8c0 12 9 21 21 21V20a4 4 0 0 0-4-4zm0 0"/><path fill="url(#a)" d="M85 39H39c0 12 9 21 21 21h8v8c0 12 10 21 21 21V43a4 4 0 0 0-4-4zm0 0"/><path fill="url(#b)" d="M62 62H16c0 12 9 21 21 21h8v8c0 12 10 21 21 21V66a4 4 0 0 0-4-4zm0 0"/></svg>