<svg xmlns="http://www.w3.org/2000/svg" viewBox="0 0 128 128"><path fill="#0868AC" d="M10 32C-1 48 0 69 8 86l1 1 1 1v1l1 1v1l1 1 1 1 1 2 2 2 1 2h1a75 75 0 0 0 1 2 80 80 0 0 0 2 2l2 2 2 2 2 1 1 1 1 1 1 1 1 1h1l1 1 1 1 2 1h1l2 1v1h2v1l2 1h1a67 67 0 0 0 2 1h1l2 1 2 1h1l2 1c54 9 69-33 69-33-13 17-36 22-58 17l-2-1h-1a72 72 0 0 1-2-1 72 72 0 0 1-3-1l-2-1h-1a93 93 0 0 1-2-1l-2-1h-1a59 59 0 0 1-1-1l-1-1a81 81 0 0 1-2-1h-1a59 59 0 0 1-2-2 89 89 0 0 1-2-1v-1a64 64 0 0 1-2-1 83 83 0 0 1-2-2 83 83 0 0 1-2-1v-1l-2-1v-1a71 71 0 0 1-2-1 67 67 0 0 1-2-2v-1a71 71 0 0 1-1-1l-1-1a78 78 0 0 1-1-2 56 56 0 0 1-7-58m26-2c-8 11-8 27-1 39a51 51 0 0 0 3 6l4 5a48 48 0 0 0 2 2 52 52 0 0 0 2 2 55 55 0 0 0 2 2h1a54 54 0 0 0 2 2h1l1 1 1 1h1l1 1h1l1 1 2 1h2l1 1h2v1h3c41 7 50-25 50-25-8 13-25 19-43 14a50 50 0 0 1-2-1h-1a45 45 0 0 1-1 0l-1-1a56 56 0 0 1-2 0v-1a48 48 0 0 1-2-1h-1l-1-1a45 45 0 0 1-1 0h-1a48 48 0 0 1-1-2h-1a62 62 0 0 1-1-1 57 57 0 0 1-2-1l-1-1c-7-6-14-14-17-24-3-9-2-20 3-29m23-1c-5 7-6 15-2 23 3 8 10 14 18 17l1 1h2c23 5 29-11 31-14-5 8-15 10-26 7l-2-1a33 33 0 0 1-4-1 33 33 0 0 1-5-3C76 30 70 16 76 4"/></svg>