<svg xmlns="http://www.w3.org/2000/svg" fill="none" viewBox="0 0 100 100"><path fill="url(#a)" d="M50 74c22 31 44-8 44-31C94 15 66 0 50 0 24 0 0 21 0 50c0 32 28 50 50 50-5-1-22-4-22-42 0-26 9-37 22-32 0 0 15 6 15 24 0 19-15 24-15 24Z"/><path fill="url(#b)" d="M50 26c-15-5-33 7-33 31 0 39 30 43 33 43 26 0 50-21 50-50 0-32-28-50-50-50 6-1 33 7 33 43 0 24-20 37-33 31 0 0-15-5-15-24 0-18 15-24 15-24Z"/><defs><linearGradient id="a" x1="14.8" x2="89.5" y1="14.8" y2="80.4" gradientUnits="userSpaceOnUse"><stop/><stop offset="1" stop-color="#fff"/></linearGradient><linearGradient id="b" x1="85.2" x2="4.4" y1="85.2" y2="30" gradientUnits="userSpaceOnUse"><stop/><stop offset="1" stop-color="#fff"/></linearGradient></defs></svg>