<svg xmlns="http://www.w3.org/2000/svg" preserveAspectRatio="xMinYMin meet" viewBox="0 0 256 233"><g fill="none" fill-rule="evenodd"><path fill="#000" d="M0 0h24v158h94v19H0V0zm183 47c16-3 34 1 47 11 14 10 21 27 22 44 3 19 0 39-10 55a57 57 0 0 1-43 23c-16 2-34-2-48-12a67 67 0 0 1-22-44c-2-17 0-36 11-52 9-15 26-24 43-25zm3 18c11-1 23 2 32 10 7 8 12 19 13 30 1 12 0 25-6 36a38 38 0 0 1-57 13c-9-7-14-17-16-26-2-14-1-29 4-41 6-12 17-21 30-22z"/><path fill="#3492FF" d="M0 205h256v28H0v-28z"/></g></svg>