<svg xmlns="http://www.w3.org/2000/svg" xml:space="preserve" viewBox="0 0 128 128"><path fill="navy" d="M127 15c0-8-6-14-14-14S99 7 99 15s6 14 14 14 14-6 14-14m-63 0a49 49 0 1 0 0 98 49 49 0 0 0 0-98zm6 29a14 14 0 1 1 29 0 14 14 0 0 1-29 0z"/><path fill="gray" d="M66 128v-1l6-1v2h-6zm-5 0h-6v-2l6 1v1zm16-1v-2l5-1 1 1-6 2zm-27-1-6-1 1-2 5 2v1zm38-3-1-1 5-2 1 1-5 2zm-49 0-5-2 1-2 5 3-1 1zm59-5-1-1 5-3 1 1-5 3zm-69 0-4-4 1-1 4 3-1 2zm78-6-1-2 4-3 1 1-4 4zm-87-1-3-4 1-1 3 4-1 1zm95-8-2-1 3-4 2 1-3 4zm-102 0-3-5 1-1 3 5-1 1zm108-9-2-1 3-5 1 1-2 5zM7 93l-2-5h1l2 5H7zm118-9-1-1 1-5h1l-1 6zM3 83l-2-6h2l1 5-1 1zm124-10h-1v-6h2l-1 6zM1 72l-1-6h2v6H1zm126-10-1-6h2v6h-1zM2 61H0l1-6h1v6zm123-10-1-5 1-1 2 6h-2zM3 50H2l1-6 2 1-2 5zm119-9-2-5 1-1 2 5-1 1zM6 40l-1-1 2-5 2 1-3 5zm6-10-2-1 4-4 1 1-3 4zm6-9-1-1 4-4 1 2-4 3zm8-7-1-1 5-3 1 1-5 3zm67-5-5-3 1-1 5 2-1 2zM36 8l-1-1 5-2v1l-4 2zm47-4-5-1V2l6 1-1 1zM46 4l-1-1 6-2v2l-5 1zm27-2-6-1V0h6v2zM56 2V0h6v2h-6z"/></svg>