<svg xmlns="http://www.w3.org/2000/svg" fill="none" viewBox="0 0 100 100"><path fill="#1F305F" fill-rule="evenodd" d="m98 17-5 2-11 1c-9 4-11 20-22 26-7 4-15 5-21 7s-9 3-13 7l-7 8c-3 5-16 1-19 6 2 2 3 2 6 1-1 2-5 3-4 5 0 0 9 1 17-3 4-2 7-5 13-6 7-1 16 2 25 3l-6 8c-1 1 0 2 2 1l10-4c4-2 5-5 8-8 3 4 12 5 14 1-3-1-4-9-3-13l4-12 3-13c1-3 4-5 7-7 2-2 4-3 4-8l-2-2Z" clip-rule="evenodd"/><path fill="#C0765A" d="M3 79c6 0 7 0 12-2l13-8c7-2 14-2 22-1l6 1c3-2 3-6 5-7-1 9-4 15-8 20 8-2 13-7 16-13l3-7v4c5-4 8-9 10-16l6-17 6-5c2-2 5-4 5-7-3 0-3-1-4-2l-3 1h-4c-13 1-14 14-23 23l-2 2-9 4-15 5-10 4-3 2-4 5-3 5c-3 2-13 1-17 3l-1 1 6 1c0 2-5 3-4 4Z"/><path fill="#1F305F" fill-rule="evenodd" d="M83 25c2 2 6 0 5-3-2 0-4 1-5 3Z" clip-rule="evenodd"/><path fill="#1F305F" d="m96 22-1 4h-1l2-5v1Zm0-1-3 5c0 1 0 1 0 0l2-5h1Zm-1 0c-1 1-3 3-3 5 0 1-1 1 0 0 0-2 2-4 3-5 0-1 0-1 0 0Z"/><path fill="#1F305F" d="M95 20c-1 1-4 4-4 6h-1l4-6h1Z"/></svg>