<svg xmlns="http://www.w3.org/2000/svg" viewBox="0 0 128 128"><path d="M12 24C6 24 1 29 1 35v58c0 6 5 11 11 11h104c6 0 11-5 11-11V35c0-6-5-11-11-11H12zm0 10h104l1 1v58l-1 1H12l-1-1V35l1-1z" color="#000" font-family="sans-serif" font-weight="400" overflow="visible" style="line-height:normal;font-variant-ligatures:normal;font-variant-position:normal;font-variant-caps:normal;font-variant-numeric:normal;font-variant-alternates:normal;font-variant-east-asian:normal;font-feature-settings:normal;font-variation-settings:normal;text-indent:0;text-align:start;text-decoration-line:none;text-decoration-style:solid;text-decoration-color:#000;text-transform:none;text-orientation:mixed;white-space:normal;shape-padding:0;shape-margin:0;inline-size:0;isolation:auto;mix-blend-mode:normal;solid-color:#000;solid-opacity:1"/><path d="M21 84V44h11l12 15 12-15h12v40H56V61L44 76 32 61v23H21zm73 0L76 65h12V44h12v21h11zm0 0"/></svg>