<svg xmlns="http://www.w3.org/2000/svg" xmlns:xlink="http://www.w3.org/1999/xlink" viewBox="0 0 254 254"><linearGradient id="b" x1="50%" x2="50%" y1="100%" y2="0%"><stop offset="0" stop-color="#574c4a"/><stop offset="1" stop-color="#80716d"/></linearGradient><linearGradient id="c" x1="88.8%" x2="30.1%" y1="98.3%" y2="-8.7%"><stop offset="0" stop-color="#268d83"/><stop offset="1" stop-color="#2ea19e"/></linearGradient><linearGradient id="a"><stop offset="0" stop-color="#db7c7c"/><stop offset="1" stop-color="#c83737"/></linearGradient><radialGradient xlink:href="#a" id="d" cx="41.4%" cy="42.7%" r="50%"/><radialGradient xlink:href="#a" id="e" cx="44.3%" cy="42.7%" r="50%"/><path fill="url(#b)" d="M0 171V82C0 10 10 0 82 0h89c72 0 82 10 82 82v89c0 72-10 82-82 82H82c-72 0-82-10-82-82z"/><path fill="url(#c)" d="M9 1C-4 80 3 153 3 153h39c-4-19-17-109-6-110 6 1 33 77 33 77l12-1 12 1s27-76 33-77c11 1-2 91-6 110h39s6-73-6-152h-36c-7 0-33 46-36 46S52 1 45 1z" transform="translate(46 47)"/><path fill="url(#d)" d="M73 144a9 9 0 1 1-18 0 9 9 0 0 1 18 0z" transform="translate(46 47)"/><path fill="url(#e)" d="M107 144a9 9 0 1 1-18 0 9 9 0 0 1 18 0z" transform="translate(46 47)"/><path d="M197 50c5 38 7 75 7 102 0 28-2 46-2 46h-33l-3 3h39s6-74-6-153zM94 49c10 12 28 42 30 42-6-8-22-35-30-42zM79 88c-11 0 2 90 6 110H51l-2 3h39c-4-20-17-109-6-110l-3-3zm90 0c-6 1-33 76-33 76h-21v3l12-1 12 1s27-75 33-76l-3-3z" opacity=".1"/><path fill="#fff" d="M55 48c-13 79-6 153-6 153l2-3c-1-17-4-80 6-148h36l3 2c-2-3-4-4-5-4zm108 0c-7 0-33 46-36 46l2 2c3 0 29-46 36-46h32l2-2zM84 93c9 13 31 74 31 74v-3c-5-15-25-70-31-71zm90 0c6 15-5 90-8 108l3-3c5-27 16-105 5-105z" opacity=".3"/></svg>