<svg xmlns="http://www.w3.org/2000/svg" viewBox="0 0 128 128"><path d="m55 4-4 1c-10 4-17 8-19 11v3l4 3 3 3c6 6 9 13 8 20 0 9-4 17-12 26L25 81c-5 3-7 5-9 8-5 6-3 12 4 17s19 9 33 11l11 1 1-1 1-2c7-13 11-25 11-37a55 55 0 0 0-2-17l5-2a316 316 0 0 1 38-9c1-1-1-3-3-6-10-9-26-17-46-20l-6-3-7-17h-1zm2 4 1 6h-1a186 186 0 0 1-15-2l7-4 7-3 1 3zm-11 6 12 2-4 3-5 2h-1l-2-2a48 48 0 0 1-6-6l6 1zm-5 3 3 3-7-2-2-1 4-3 2 3zm20 3 1 3-9-1 3-2 4-2 1 2zm-18 3 2 7-2-3-3-4-2-2 3 1 2 1zm8 1 6 1a71 71 0 0 1-9 7v-2a63 63 0 0 0-3-7l6 1zm8 3 2 6v4l-3-1-8-3 4-4 5-3v1zm9 0 7 2-4 2a872 872 0 0 0-9 4c1-2 1-5-1-8v-1l7 1zm10 5a34 34 0 0 1-4 10l-3-1-4-2-2-1 7-4c5-4 6-5 7-4l-1 2zm5-2 14 5-2 1a158 158 0 0 0-18 6l1-3a89 89 0 0 0 3-10l2 1zm-30 7 4 2 1 1-8 7v-2l-1-8h4zm45 2a91 91 0 0 1-12 15l-2-2a33 33 0 0 0-7-8 409 409 0 0 1 21-5zm5-1a61 61 0 0 1 13 11l-4 1a165 165 0 0 0-23 3l2-2a95 95 0 0 0 10-14l2 1zm-35 6 2 1-11 6 1-4 2-5v-1l2 1 4 2zm-9 0-4 9-2-1a56 56 0 0 0-3-2l9-8v2zm19 6 5 5a278 278 0 0 1-21 7l2-3 9-10 1-1h1l3 2zm-8-2-2 3-6 7-4 5v-1l-1-6-1-1 3-1a250 250 0 0 0 11-6zm-20 6 2 1-7 5 1-2 2-4 1-1 1 1zm5 6 1 4a151 151 0 0 1-15 7l-3 1a610 610 0 0 1 15-13l1-1v1l1 1zm-5 0a953 953 0 0 1-12 11c-3 2-3 2 0-2l8-7 5-3-1 1zm24 2 1 5v3h-1l-10-6 10-3v1zm-6 6a1017 1017 0 0 1 5 4l-12 6v-2a60 60 0 0 0 1-11l6 3zm-9-1v8l-2 3-4-4-3-5 9-3v1zm-10 5 5 6 2 2a70 70 0 0 1-16 7l2-4 6-12c0-1 1-1 1 1zm-5 0-1 2-6 12-2-8-1-2 5-2a89 89 0 0 1 5-2zm31 4-2 11-6-2-6-4 1-1 11-6 1-1 1 1v2zm-44 4a31 31 0 0 0 3 8l-16 5h-1v-1l2-5a32 32 0 0 1 12-9v2zm32 4 8 4h1l-1 1a123 123 0 0 1-18 7l6-13 4 1zm-8 0a65 65 0 0 1-6 14 27 27 0 0 1-10-8l5-3a131 131 0 0 0 11-3zm17 6-1 4-3 10-12-3-4-2 2-1a192 192 0 0 0 18-8zm-39 2-7 9-3 4-1-1-4-4-1-5v-1h1a108 108 0 0 0 15-3v1zm8 4 3 2 1 1a1396 1396 0 0 1-21 7l6-7 5-7 2 1 4 3zm2 11-3 5-6-1-7-4h-1l2-1 19-5-4 6zm10-5c4 2 8 2 13 3h2l-4 1a174 174 0 0 1-23 7l2-2a184 184 0 0 0 7-10l3 1zm14 8-3 7-16-2-3-2 4-1a141 141 0 0 0 19-5l-1 3z"/></svg>