<svg xmlns="http://www.w3.org/2000/svg" viewBox="0 0 128 128"><path fill="#439934" fill-rule="evenodd" d="M88 43a57 57 0 0 1 2 32v1h-1l-10 1-11 2c-1 0-2 0-3 2V46h2l7-1 10-2h4z" clip-rule="evenodd"/><path fill="#45A538" fill-rule="evenodd" d="m62 110-5-4a63 63 0 0 1-20-40v-7l3-18v1l6 15 16 49 1 1-1 3z" clip-rule="evenodd"/><path fill="#46A037" fill-rule="evenodd" d="M88 43h-4l-10 2-7 1h-2V26a1259 1259 0 0 0-1-16V4l3 5c1 3 3 4 5 6 7 8 13 17 16 28z" clip-rule="evenodd"/><path fill="#409433" fill-rule="evenodd" d="M65 81c1-2 2-2 3-2l11-2 10-1h1l-2 6-3 8a49 49 0 0 1-6 9l-7 7-3 3h-1l-1-1-1-3a41 41 0 0 1-2-10l1-3V81z" clip-rule="evenodd"/><path fill="#4FAA41" fill-rule="evenodd" d="M65 81v11h-1l-5-14-9-25a4499 4499 0 0 0-6-20l-1-1 5-9 1 1a6167 6167 0 0 1 6 20l9 26 1 1v10z" clip-rule="evenodd"/><path fill="#4AA73C" fill-rule="evenodd" d="m43 32 1 1a4499 4499 0 0 1 6 20l9 25 5 14h1l-1 3-1 8v4l-1-1-16-49a3889 3889 0 0 0-6-15v-1l3-9z" clip-rule="evenodd"/><path fill="#57AE47" fill-rule="evenodd" d="m65 71-1-1-9-26a6167 6167 0 0 0-6-20l-1-1 6-8 1 1 5 15 4 14h1v26z" clip-rule="evenodd"/><path fill="#60B24F" fill-rule="evenodd" d="M65 45h-1l-4-14-5-15-1-1 6-6c2-1 3-3 3-5l1-1v7a257 257 0 0 1 1 16v19z" clip-rule="evenodd"/><path fill="#A9AA88" fill-rule="evenodd" d="M63 107v-4l1-8a41 41 0 0 0 2 10l-1 1-2 6-1 1v-3l1-3z" clip-rule="evenodd"/><path fill="#B6B598" fill-rule="evenodd" d="m62 113 1-1 2-6 1-1 1 3-1 1-2 7-1 1-1-4z" clip-rule="evenodd"/><path fill="#C2C1A7" fill-rule="evenodd" d="m63 117 1-1 2-7 1-1 1 1-1 2v2l-3 7v1l-1-4z" clip-rule="evenodd"/><path fill="#CECDB7" fill-rule="evenodd" d="M64 121v-1l3-7v-1 6h-1l-2 5v1-3z" clip-rule="evenodd"/><path fill="#DBDAC7" fill-rule="evenodd" d="M64 124v-1l2-5h1v3l-2 3h-1z" clip-rule="evenodd"/><path fill="#EBE9DC" fill-rule="evenodd" d="m65 124 2-3v4l-2-1z" clip-rule="evenodd"/><path fill="#CECDB7" fill-rule="evenodd" d="m67 111 1-2h1l-2 2z" clip-rule="evenodd"/><path fill="#4FAA41" fill-rule="evenodd" d="M64 95z" clip-rule="evenodd"/></svg>