<svg xmlns="http://www.w3.org/2000/svg" viewBox="0 0 128 128"><path fill="#850000" d="m70 39-5 1 3 1 3 2h1l-4-1a57 57 0 0 0-8-2h-5c-1 0-2 1-2 3l1 3v3l1 1a24 24 0 0 0 14 12c1 0 1 0 0 0l-3-1a10 10 0 0 0-1 0l-6-4a21 21 0 0 1-6-7l-1-6-1-1H40c-7 2-14 4-21 8a95 95 0 0 0-4 2l-1 1h-1l-5 4-1 1a97 97 0 0 0-6 5h2a60 60 0 0 1 6-2 35 35 0 0 1 18 2l6 3a38 38 0 0 1 5 5v-9h11l1 2a124 124 0 0 0 4 7l1-1v-1l1-1 1-3a85 85 0 0 1 2-2v-1h11v18l1-1 1-1 3-3a17 17 0 0 1 5-2h6a122 122 0 0 0 7-1v-4l3-1a11 11 0 0 0 2 0l2-1 4-1 5-1h2l1-1h2a34 34 0 0 1 2 0l5-2 3-1 2-3 2-3-1-2-2-1h-1v2a16 16 0 0 0-1 1c0 1 0 0 0 0l1-3v-1h-1l-3-1-1-1h-1a24 24 0 0 0-1-1l-5-1a458 458 0 0 0-4-1 36 36 0 0 1-1-1h-1l-3-1a26 26 0 0 0-1 0h-1l-6-2h-1a26 26 0 0 0-2 0l-2-1a354 354 0 0 0-20-2zm-12 5 7 3 4 3v1l-1-1-2-1 1 2 1 1h-1l-3-1 2 2 1 1h-2a35 35 0 0 0 3 4l-4-3-6-6-1-4v-1h1zm32 4h3l2 1h2l2 1h3l1 1h-1l-4 1-5-1-4-2-1-1h-2l1-1 3 1zm12 14zm0 0h-1a58 58 0 0 0-11 5l-1 2v2s0 1 0 0l-1-2v-2l3-2 5-2h1l5-1zm-32 1v-1 1zm0 0"/><path fill="#850000" d="M49 82v7h10a210 210 0 0 0 0-14 173 173 0 0 1-5 7l-4-6a4 4 0 0 1-1-1v7zm0 0"/></svg>