<svg xmlns="http://www.w3.org/2000/svg" viewBox="0 0 128 128"><path fill="#00618A" d="M117 98c-7 0-12 0-17 2l-3 2 1 3 5 5 5 4 11 5 5 5 3 2-1-3-3-3-9-8c-3-2-9-5-10-8l6-2 9-1 4-1v-1l-5-5-14-10-9-5-3-1-4-7-7-15-4-10c-9-14-18-23-33-32l-11-3h-6l-4-3C18 5 5-2 2 7c-3 5 3 11 5 14l4 6 2 4 4 12 3 5 3 3c-2 2-2 4-2 7-3 9-2 21 2 28 1 2 5 7 9 5 4-1 3-6 4-10l1-3 3 8 11 11 7 5h-1l-2-2-4-5-10-16-3-8-2-3-4 6-2 13c-3-1-4-3-5-6-3-6-3-16-1-23 1-1 3-7 2-9l-3-4-3-5-5-15-5-7-4-6-1-4 2-1c1-1 4 0 5 1l8 4 4 3h2l9 1 12 6c11 7 20 17 27 29l2 6 6 13c2 4 3 8 6 11 1 2 6 3 9 4l6 2 8 6c1 1 6 3 6 5zM30 23l-4 1 3 4 2 4v-1l2-4-1-2-2-2z"/></svg>