<svg xmlns="http://www.w3.org/2000/svg" fill="none" viewBox="0 0 100 100"><path fill="url(#a)" fill-rule="evenodd" d="M88.0383 17.5494C70.117 -3.45817 38.5588 -5.96008 17.5512 11.9612C-3.45634 29.8826 -5.95825 61.4407 11.9631 82.4482C29.8844 103.456 61.4425 105.958 82.45 88.0365C103.458 70.1151 105.96 38.557 88.0383 17.5494ZM63.1289 43.7918C65.0559 43.7918 66.2863 45.8797 65.3194 47.5464L65.0414 48.0257L46.1723 79.0703C45.8216 79.6473 45.1953 79.9993 44.5204 79.9993H42.7192C41.485 79.9993 40.5825 78.8341 40.8917 77.6391L46.0118 57.8436C46.421 56.2609 45.2263 54.7177 43.5916 54.7177H35.7272C34.0925 54.7177 32.8978 53.1747 33.3068 51.592L41.0327 21.7061C41.3137 20.7003 42.2244 19.9923 43.2687 20.0041C43.3951 20.0056 43.5099 20.0077 43.6051 20.0107L51.5254 20.0105C53.0406 20.0098 54.208 21.3463 54.0038 22.8475L53.955 23.205L50.9346 40.8707C50.6736 42.3976 51.8496 43.7918 53.3988 43.7918H63.1289Z" clip-rule="evenodd"/><mask id="d" width="100" height="100" x="0" y="0" maskUnits="userSpaceOnUse" style="mask-type:alpha"><path fill="url(#b)" d="M49.9982 99.9986C77.6115 99.9986 99.9965 77.6137 99.9965 50.0004C99.9965 22.3872 77.6115 0.00219727 49.9982 0.00219727C22.385 0.00219727 0 22.3872 0 50.0004C0 77.6137 22.385 99.9986 49.9982 99.9986Z"/></mask><g filter="url(#c)" mask="url(#d)"><path fill="#fff" d="M2.77853 33.5652C0.175795 41.043 -0.613778 49.0319 0.474798 56.8744C1.56338 64.7171 4.49897 72.1891 9.03996 78.6751C13.5809 85.1614 19.5974 90.4765 26.5943 94.1828C33.5911 97.8892 41.368 99.8806 49.285 99.9936C57.202 100.107 65.0325 98.3377 72.1322 94.8326C79.2319 91.3274 85.3975 86.1861 90.1218 79.8321C94.8459 73.4781 97.9935 66.0931 99.3055 58.2846C100.617 50.4764 100.056 42.4679 97.6675 34.9189L83.1301 39.5183C84.79 44.7651 85.18 50.3312 84.2683 55.7582C83.3566 61.1853 81.1689 66.3181 77.8852 70.7344C74.6019 75.1508 70.3165 78.7239 65.3819 81.1601C60.4476 83.5965 55.0051 84.8257 49.5025 84.7472C44 84.6687 38.5946 83.2845 33.7318 80.7086C28.8687 78.1327 24.6871 74.4385 21.531 69.9305C18.3748 65.4221 16.3345 60.2291 15.5779 54.7782C14.8213 49.3272 15.3701 43.7746 17.1791 38.5773L2.77853 33.5652Z"/></g><defs><radialGradient id="a" cx="0" cy="0" r="1" gradientTransform="matrix(97 0 0 994 10 50)" gradientUnits="userSpaceOnUse"><stop stop-color="#31B2F3"/><stop offset=".5" stop-color="#F27CEC"/><stop offset="1" stop-color="#FD6641"/></radialGradient><radialGradient id="b" cx="0" cy="0" r="1" gradientTransform="matrix(97 0 0 994 10 50)" gradientUnits="userSpaceOnUse"><stop stop-color="#F27CEC"/><stop offset=".5" stop-color="#31B2F3"/><stop offset="1" stop-color="#7D7573"/></radialGradient><filter id="c" width="150" height="116.4" x="-25" y="9" color-interpolation-filters="sRGB" filterUnits="userSpaceOnUse"><feFlood flood-opacity="0" result="BackgroundImageFix"/><feBlend in="SourceGraphic" in2="BackgroundImageFix" result="shape"/><feGaussianBlur result="effect1_foregroundBlur_790_2970" stdDeviation="12.5"/></filter></defs></svg>