<svg xmlns="http://www.w3.org/2000/svg" viewBox="0 0 128 128"><path fill="#83CD29" d="M113 30 69 5c-3-2-7-2-10 0L15 30c-3 2-5 5-5 8v52c0 3 2 6 5 8l12 6c5 3 7 3 10 3 8 0 13-5 13-14V43l-1-2h-6l-2 2v50c0 4-4 8-10 5l-12-7-1-1V38l1-1 44-25h2l44 25v54l-44 25h-2l-11-6-1-1-7 4 1 1 15 9a9 9 0 0 0 4 1l5-1 44-25c3-2 4-5 4-8V38c0-3-1-6-4-8zM78 81c-12 0-14-3-15-9l-2-1h-5l-2 2c0 7 5 16 24 16 14 0 22-5 22-15s-6-12-20-14-15-3-15-6 1-6 11-6c9 0 13 2 14 8l1 1h7v-1c-1-11-8-16-22-16-13 0-20 5-20 14 0 10 7 13 20 14 14 1 15 4 15 6 0 5-4 7-13 7z"/></svg>