<svg xmlns="http://www.w3.org/2000/svg" fill="none" viewBox="0 0 32 32"><path fill="url(#a)" d="M18 28 6 24v-1l12 5Z"/><path fill="#E8B57E" d="m30 7-1 2-6 2v1l-5 4c0 1 0 0 0 0s0 1 0 0h-1l-2-1-2-2-5-1-4-1-3-4 10-3 4 5v1-1l3-4 12 2Z"/><path fill="url(#b)" d="m15 15-2-2-5-1 7-2v5Z"/><path fill="url(#c)" d="m15 10-7 2H7l-3-1-3-4 10-3 4 5v1Z"/><path fill="url(#d)" d="m15 10-7 2H7l8-3v1Z"/><path fill="#D1A578" d="M4 11 1 7l3 4Z"/><path fill="url(#e)" d="M23 11v1l-5 4c0 1 0 0 0 0s0 1 0 0h-1l-2-1v-5l8 1Z"/><path fill="url(#f)" d="m30 7-1 2-5 2h-1l-8-1a1 1 0 0 1 0-1l3-4 12 2Z"/><path fill="url(#g)" d="m24 11-1 1-8-2V9l9 2Z"/><path fill="url(#h)" d="M15 10v5-5Z" opacity=".8"/><path fill="#BF9064" d="M18 28 6 24l-1-1V13l-5-3 13 3 4 3h1c0 1 0 0 0 0s0 1 0 0l5-4 9-4-5 4-1 10-8 6Z"/><path fill="#BE8F63" d="M18 16v12L6 24l-1-1V13l13 3c0 1 0 0 0 0Z"/><path fill="url(#i)" d="M18 28 6 24l-1-1 13 5Z" opacity=".5"/><path fill="#322212" d="M12 21v4l5 2v-4l-5-2Zm0 0 2 1v2l-2-1v-2Zm0 4v-2l2 1v2l-2-1Zm5 2-2-1v-2l2 1v2Zm0-2-2-1-1-2 3 1v2Zm-1-1h-1 1Z"/><path fill="#322212" d="M15 24v-1h1l-1-1v2Zm1 0v-2 2Zm-1 1 1 1-1-1Zm1 0-1 1 1-1Zm-1 0v1-1Zm1 0v1-1Zm-1 0h1-1Zm1 0v1-1Zm0 1h-1 1Zm-1 0v-1 1Zm0-1Zm2 1h-1 1Zm-4-2v2-2Zm0 0 1 1h-1s0-1 0 0v-1Zm1 0Zm0 0Zm0 0h-1 1Zm-1 0Zm0-1h1-1l1-1h-1v-1 2Z"/><path fill="url(#j)" d="M18 16v1L5 13l-5-3 13 3 4 3h1c0 1 0 0 0 0Z"/><path fill="url(#k)" d="M12 18v-3l-5-3-2-1 5 3v3l2 1Z"/><path fill="#D4A271" d="M18 16v1l-1-1-4-3 4 3h1c0 1 0 0 0 0Z"/><path fill="#DEB37E" d="M13 13 0 10l13 3Z"/><path fill="#DBAC76" d="m27 12-1 10-8 6V16s0 1 0 0l9-4Z"/><path fill="#322212" d="M23 20v4l3-2v-4l-3 2Zm0 0 2-1v2l-2 1v-2Zm0 4v-2l2-1v2l-2 1Zm3-2-1 1v-2l1-1v2Zm0-2-1 1v-2l1-1v2Zm0 0h-1 1Z"/><path fill="#322212" d="M25 20v-1h1-1v1Zm1 0v-2 2Zm0 2-1-1 1 1Zm-1 0 1-1-1 1Zm0-1v1-1Zm1 0v1-1Zm-1 0h1-1Zm1 0v1-1Zm0 1h-1 1Zm-1 0v-1 1Zm0 0v-1 1Zm1-1Zm-2 1v1-1Zm0 1v-1 1Zm0-1Zm0-1Zm0 0v1-1Zm0 1Zm0-1v-1h1v-1l-1 1s0 1 0 0v1Z"/><path fill="#CE9C6B" d="m27 12-9 5v-1s0 1 0 0l5-4 9-4-5 4Z"/><path fill="#D7A977" d="m23 12-5 4v1-1s0 1 0 0l5-4Z"/><path fill="url(#l)" d="m22 17 1-1v-2h1l5-5-2 1-5 4v3Z"/><defs><linearGradient id="a" x1="11.6" x2="11.5" y1="25.7" y2="25.8" gradientUnits="userSpaceOnUse"><stop/><stop offset="1"/></linearGradient><linearGradient id="b" x1="12.7" x2="15.1" y1="11.3" y2="12.3" gradientUnits="userSpaceOnUse"><stop offset=".4"/><stop offset=".4"/><stop offset=".6"/><stop offset=".8"/></linearGradient><linearGradient id="c" x1="9.8" x2="6.7" y1="10.8" y2="6.4" gradientUnits="userSpaceOnUse"><stop/><stop offset="1"/></linearGradient><linearGradient id="d" x1="11.2" x2="11.1" y1="11" y2="10.5" gradientUnits="userSpaceOnUse"><stop offset=".1"/><stop offset=".1"/><stop offset=".3"/><stop offset=".5"/><stop offset=".7"/><stop offset=".9"/><stop offset="1"/></linearGradient><linearGradient id="e" x1="18.8" x2="16.8" y1="10.9" y2="15.7" gradientUnits="userSpaceOnUse"><stop offset=".1"/><stop offset=".4"/><stop offset=".8"/></linearGradient><linearGradient id="f" x1="21.2" x2="23.5" y1="10.5" y2="6.3" gradientUnits="userSpaceOnUse"><stop offset="0"/><stop offset="1"/></linearGradient><linearGradient id="g" x1="19.3" x2="19.4" y1="10.6" y2="10.2" gradientUnits="userSpaceOnUse"><stop/><stop offset=".1"/><stop offset=".1"/><stop offset=".6"/><stop offset=".8"/><stop offset=".9"/></linearGradient><linearGradient id="h" x1="14.7" x2="15.1" y1="12.1" y2="12.1" gradientUnits="userSpaceOnUse"><stop/><stop offset=".5"/><stop offset=".5"/><stop offset=".5"/><stop offset="1"/></linearGradient><linearGradient id="i" x1="11.5" x2="11.5" y1="25.7" y2="25.7" gradientUnits="userSpaceOnUse"><stop/><stop offset=".2"/><stop offset="1"/></linearGradient><linearGradient id="j" x1="9.1" x2="8.6" y1="12.5" y2="14.1" gradientUnits="userSpaceOnUse"><stop offset="0"/><stop offset=".4"/><stop offset=".8"/></linearGradient><linearGradient id="k" x1="11.8" x2="6.2" y1="16.9" y2="10.7" gradientUnits="userSpaceOnUse"><stop offset=".4"/><stop offset=".4"/><stop offset=".4"/><stop offset=".9"/><stop offset=".9"/></linearGradient><linearGradient id="l" x1="24.2" x2="25.9" y1="17.3" y2="8.9" gradientUnits="userSpaceOnUse"><stop offset=".4"/><stop offset=".4"/><stop offset=".4"/><stop offset=".6"/><stop offset=".6"/></linearGradient></defs></svg>