<svg xmlns="http://www.w3.org/2000/svg" fill="none" viewBox="0 0 100 100"><g fill-rule="evenodd" clip-rule="evenodd"><path fill="#6E81B6" d="M50 76c28 0 50-12 50-26S78 25 50 25 0 36 0 50s22 26 50 26Z"/><path fill="#fff" d="m60 59 3-13c0-3 0-5-2-7l-7-2h-4l1-6a1 1 0 0 0-1-1h-6l-1 1-2 13-2-4c-2-2-5-3-8-3H19l-1 1-5 28a1 1 0 0 0 1 0h7l1-7h4l6-1 4-2 3-3-1 5a1 1 0 0 0 1 1h6l3-16h4l3 1v2l-2 12a1 1 0 0 0 0 1h6a1 1 0 0 0 1 0ZM33 48l-2 4-5 1h-3l2-10h3l4 1 1 4Zm52-8c-2-2-4-3-8-3H65v1l-6 28a1 1 0 0 0 1 0h7l1-7h5l5-1 5-2a13 13 0 0 0 4-7c0-4 0-7-2-9Zm-6 8-2 4-5 1h-2l2-10h3l4 1v4Z"/><path fill="#000" d="m28 43 5 1v4l-2 5-5 1h-4l2-11h4ZM14 66h6l1-8h11l4-3a12 12 0 0 0 3-6c1-4 1-6-1-8s-4-3-8-3H19l-5 28Zm30-35h6l-2 7h6l7 2 1 6-3 12h-6l3-12-1-3h-8l-3 15h-5l5-27Zm31 12 4 1 1 4-2 5-6 1h-3l2-11h4ZM60 66h6l2-8h10l4-3a12 12 0 0 0 4-6c1-4 0-6-1-8-2-2-4-3-8-3H66l-6 28Z"/></g></svg>