<svg xmlns="http://www.w3.org/2000/svg" viewBox="0 0 128 128"><defs><linearGradient id="a" x1="25.8" x2="34" y1="33.6" y2="17.3" gradientUnits="userSpaceOnUse"><stop offset="0" stop-color="#af1df5"/><stop offset=".2" stop-color="#bc20e4"/><stop offset=".6" stop-color="#dd29b8"/><stop offset="1" stop-color="#ff318c"/></linearGradient><linearGradient id="b" x1="1.6" x2="36" y1="67.2" y2="21.8" gradientUnits="userSpaceOnUse"><stop offset="0" stop-color="#6b57ff"/><stop offset=".4" stop-color="#b74af7"/><stop offset=".8" stop-color="#ff318c"/></linearGradient><linearGradient id="c" x1="89.3" x2="65.5" y1="65.8" y2="9.2" gradientUnits="userSpaceOnUse"><stop offset="0" stop-color="#293896"/><stop offset=".1" stop-color="#3b3aa2"/><stop offset=".3" stop-color="#6740c0"/><stop offset=".5" stop-color="#8a44d8"/><stop offset=".7" stop-color="#a347e9"/><stop offset=".9" stop-color="#b249f3"/><stop offset="1" stop-color="#b74af7"/></linearGradient><linearGradient id="d" x1="74.7" x2="58.6" y1="93.6" y2="70" gradientUnits="userSpaceOnUse"><stop offset="0" stop-color="#6b57ff"/><stop offset=".8" stop-color="#b74af7"/></linearGradient></defs><path fill="url(#a)" d="m70 27-4-12-41-8L5 29l22 12V27Zm0 0"/><path fill="url(#b)" d="M27 35 5 29l12 67h10Zm0 0"/><path fill="url(#c)" d="M101 27H62l16-13 29 5 16 38-22 22Zm0 0"/><path fill="url(#d)" d="M101 56v44H38l1 10 40 14 44-26Zm0 0"/><path d="M27 27h74v74H27Zm0 0"/><path fill="#fff" d="M37 87h27v4H37Zm23-27 4-4a13 13 0 0 0 8 3c3 0 4-1 4-2v-1c0-1-1-2-5-3-6-1-9-3-9-8v-1c0-5 4-8 9-8a16 16 0 0 1 10 4l-3 4a13 13 0 0 0-7-2c-2 0-3 1-3 2 0 2 1 2 6 4 5 1 8 3 8 8s-4 9-10 9a17 17 0 0 1-12-5M37 37h11c6 0 10 3 10 9s-5 10-11 10h-4v8h-6Zm10 13c3 0 5-1 5-4s-2-4-5-4h-4v8Zm0 0"/></svg>