<svg xmlns="http://www.w3.org/2000/svg" viewBox="0 0 128 128"><path fill="#f37036" d="M113 26a62 62 0 1 0-98 76 62 62 0 0 0 98-76Zm0 0"/><path fill="#fff" d="M91 24a10 10 0 0 0-6 3 10 10 0 0 0-1 13 10 10 0 0 0 13 3 11 11 0 0 0 2-2 10 10 0 0 0 0-14l-9 9 9-9a10 10 0 0 0-8-3zM79 39c-4 0-11 4-28 21l-6 7a1 1 0 0 0 1 1l11-2-4 4-22 22 7 7a1 1 0 0 0 2 0 1 1 0 0 0 0-1l-1-5a117 117 0 0 0 27-18l-5-5h1l-3-2 7 7c14-13 24-23 21-30a4 4 0 0 0-1-2 4 4 0 0 0 0-1h-1v-1l-6-2zM31 92l-5 5a1 1 0 0 0-1 2 1 1 0 0 0 1 0l13 1-8-8z"/><path fill="#f37036" d="M92 23a11 11 0 0 0-8 3 11 11 0 0 0-2 12c-5-2-11 2-31 22l-7 6a2 2 0 0 0 0 2 2 2 0 0 0 2 1l8-2-4 4a1 1 0 0 0 0 1L30 91a1 1 0 0 0 0 1l-5 5a2 2 0 0 0 0 2 2 2 0 0 0 1 1l13 1a1 1 0 0 0 1 0 1 1 0 0 0 0-1v-1a2 2 0 0 0 1-2l-1-4a127 127 0 0 0 26-17h1c13-13 21-22 21-29a8 8 0 0 0 0-3 11 11 0 0 0 4 1 11 11 0 0 0 5-1 1 1 0 0 0 1 0 9 9 0 0 0 2-2 11 11 0 0 0 3-8 11 11 0 0 0-3-8 11 11 0 0 0-8-3zm0 2a9 9 0 0 1 5 2l-8 8a1 1 0 0 0 0 1l6 7a9 9 0 0 1-10-2 9 9 0 0 1 7-16zm7 4a9 9 0 0 1 2 5 9 9 0 0 1-3 7 10 10 0 0 1-1 1l-5-5-1-1 1-1 7-6zm0 4a1 1 0 0 0-1 0 1 1 0 0 0 0 1 2 2 0 0 1 0 2 1 1 0 0 0-1 1h1a1 1 0 0 0 1 0 4 4 0 0 0 0-4zm-20 6a6 6 0 0 1 4 2 5 5 0 0 0-3 1L57 65l-4-5c12-12 19-18 23-20a6 6 0 0 1 3-1zm4 3a3 3 0 0 1 2 1 3 3 0 0 1 1 2 3 3 0 0 1-1 2L61 69l-3-3 23-23a3 3 0 0 1 2-1zm3 7c-1 7-10 16-20 25l-3-4 23-21zM51 62h1l3 3-9 2 5-5zm6 5 1 2h1v1h-5l3-3zm4 4 4 4a127 127 0 0 1-26 17 1 1 0 0 0-1 1l1 5-7-6 19-19 10-2zM31 93l1 1 4 5-10-1 5-5z"/></svg>