<svg xmlns="http://www.w3.org/2000/svg" fill="none" viewBox="0 0 100 100"><path fill="#000" d="M98 60c0-2-2-3-4-3h-8c5-7 8-16 10-24 4-13 2-19 0-22C90 4 82 0 72 0L60 2l-7-1c-5 0-9 1-13 3l-9-2c-8-1-15 0-20 3-7 5-9 12-9 23a130 130 0 0 0 10 37c3 5 6 8 9 9 2 1 5 1 9-2l1 2 4 1c4 1 8 1 12-1a225 225 0 0 1 0 5 42 42 0 0 0 1 12l4 6c2 2 5 3 7 3h4c4-1 8-2 11-7 3-4 4-10 4-20l1-1 12-2c2-1 9-5 7-10Z"/><path fill="#336791" d="M92 61c-11 2-12-2-12-2 12-17 17-40 13-45C81-1 61 6 60 6l-7-1c-5 0-9 2-12 4C41 9 5-6 6 28c1 7 10 54 22 40l9-10 7 2v2c-3 3-2 4-8 5s-3 4 0 4c3 1 9 2 14-4 1 1 2 7 1 11l1 11c1 2 2 8 10 7 7-2 10-6 11-12l1-8v-1c1-6 1-8 5-7h1l9-2c5-2 8-6 3-5Z"/><path fill="#fff" d="M43 31h-3v2l2 1h1l2-2-2-1Zm33 0-2-1-2 2 2 1 2-1v-1Z"/><path fill="#fff" d="M96 61c-1-2-2-2-4-2-7 2-10 1-10 0 5-8 9-18 12-27l1-11-1-8C88 6 81 3 72 3L60 5l-7-1c-5 0-9 1-12 3L31 4c-8-1-14 0-19 3-5 4-8 11-7 21l5 22c3 13 8 20 12 21l2 1c1 0 3-1 5-4l8-8 5 1v2c-2 1-2 2-6 2-2 1-5 1-5 4 0 2 4 3 4 3l5 1 9-3 1 20c1 2 3 7 10 7h3c7-1 10-5 11-11l3-18 3 1 9-2c3-1 8-4 7-6ZM79 29v4l-1 5v15l-1-1-1-3c-3-4-8-14-6-18 1-1 4-3 9-2ZM72 5c8 1 15 4 19 9s0 25-11 43v-1h-1c3-5 3-9 2-14v-9a27 27 0 0 0 1-6c0-2-2-7-7-13-2-2-6-6-11-8l8-1ZM27 67l-4 2c-3-1-7-8-11-20-3-9-4-19-4-22-1-8 1-14 6-17 7-6 19-2 24-1-8 8-8 22-8 23v13a15 15 0 0 0 5 13l-8 9Zm9-12c-3-2-4-6-3-10V32c1-1 6-4 10-3l4 4c2 11 0 15-2 19l-1 2-1 4c-3 0-5-1-7-3Zm0 15-2-1 2-1c5-1 6-2 8-4l1-1 2-1 2 2v2c-4 5-9 5-13 4Zm26 24c-6 2-8-2-9-5a111 111 0 0 1-2-26c0-2-1-3-3-4h-3l2-4 1-2c1-4 4-9 1-21-1-4-4-6-9-6a20 20 0 0 0-7 3c0-4 2-13 7-18 3-3 7-5 12-4 11 0 17 5 21 9l6 10c-5 0-9 1-11 3-4 6 2 17 5 22l1 2 3 5 1 1c-1 0-4 1-4 7l-2 19c-1 6-4 8-10 9Zm26-29-7 1h-4c0-4 1-4 2-4l1-1v1h12l-4 3Z"/></svg>