<svg xmlns="http://www.w3.org/2000/svg" fill="none" viewBox="0 0 100 100"><g fill-rule="evenodd" clip-rule="evenodd"><path fill="#E0EAF5" d="M59 12h33c7 0 9 2 8 9L87 79c-2 6-5 8-11 8H8c-7 0-9-2-7-9l12-57c2-7 5-9 12-9h34Z"/><path fill="#2671BE" d="M42 85H8c-6 0-7-1-5-7l13-57c1-5 3-7 9-7h67c6 0 7 2 5 7L85 77c-2 7-3 8-11 8H42Z"/><path fill="#FDFDFE" d="m51 48-2-3-15-16c-2-3-3-5 0-8 2-2 5-2 8 1l21 23c2 3 2 5-1 7L28 77c-2 2-5 2-7-1s0-4 2-6l25-18c1-1 3-2 3-4Z"/><path fill="#FCFDFD" d="M55 77h-9c-3 0-4-1-4-4 0-2 1-4 4-4h19c3 0 4 1 4 4 0 2-1 4-4 4H55Z"/></g></svg>