<svg xmlns="http://www.w3.org/2000/svg" fill="none" viewBox="0 0 100 100"><path fill="#673AB8" d="m50 0 44 25v50l-44 25L7 75V25L50 0Z"/><path fill="#fff" d="M19 75c6 7 24 1 41-12 17-14 27-30 22-37-6-8-25-2-42 11-17 14-27 30-21 38Zm2-2c-2-3-1-8 3-14s10-13 18-19 16-11 24-13c6-2 11-2 13 1 2 2 1 7-3 13-3 6-10 13-18 19-8 7-16 11-23 13s-12 2-14 0Z"/><path fill="#fff" d="M82 75c5-8-5-24-22-38-17-13-35-19-41-11-6 7 4 23 21 37 17 13 36 19 42 12Zm-3-2c-2 2-7 2-13 0-8-2-16-6-24-13-8-6-14-13-18-19s-5-11-3-13c2-3 7-3 14-1s15 7 23 13 15 13 18 19c4 6 5 11 3 14Z"/><path fill="#fff" d="M50 57a7 7 0 1 0 0-14 7 7 0 0 0 0 14Z"/></svg>