<svg xmlns="http://www.w3.org/2000/svg" fill="none" viewBox="0 0 100 100"><path fill="#56B3B4" d="M74 19h5l2 2c0 2-1 3-2 3h-5c-2 0-3-1-3-3 0-1 1-2 3-2Z"/><path fill="#EA5E5E" d="M2 95h24c2 0 3 1 3 3 0 1-1 2-3 2H2l-2-2c0-2 1-3 2-3Z"/><path fill="#BF85BF" d="M60 57h14c1 0 2 1 2 3l-2 2H60c-2 0-3-1-3-2 0-2 1-3 3-3Z"/><path fill="#EA5E5E" d="M31 57h19c1 0 2 1 2 3l-2 2H31l-2-2c0-2 1-3 2-3Z"/><path fill="#56B3B4" d="M2 57h19c2 0 3 1 3 3 0 1-1 2-3 2H2l-2-2c0-2 1-3 2-3Z"/><path fill="#BF85BF" d="M2 76h24c2 0 3 1 3 3 0 1-1 2-3 2H2l-2-2c0-2 1-3 2-3Zm0-38h24c2 0 3 1 3 2 0 2-1 3-3 3H2c-1 0-2-1-2-3l2-2Z"/><path fill="#F7BA3E" d="M26 10h48l2 2-2 2H26l-2-2 2-2Z"/><path fill="#EA5E5E" d="M2 10h15l2 2-2 2H2l-2-2 2-2Z"/><path fill="#F7BA3E" d="M21 86h5c2 0 3 1 3 2s-1 2-3 2h-5l-2-2 2-2Z"/><path fill="#56B3B4" d="M21 29h5c2 0 3 1 3 2s-1 2-3 2h-5l-2-2 2-2ZM2 86h10l2 2-2 2H2l-2-2 2-2Z"/><path fill="#F7BA3E" d="M2 29h10l2 2-2 2H2l-2-2 2-2Z"/><path fill="#D0D4D8" d="M64 86h5l2 2-2 2h-5l-2-2 2-2Zm-28 0h19l2 2-2 2H36c-2 0-3-1-3-2s1-2 3-2Zm43 0h19l2 2-2 2H79c-2 0-3-1-3-2s1-2 3-2Z" opacity=".5"/><path fill="#56B3B4" d="M40 48h39l2 2-2 2H40l-2-2 2-2Z"/><path fill="#F7BA3E" d="M17 48h14l2 2-2 2H17c-2 0-3-1-3-2s1-2 3-2Z"/><path fill="#EA5E5E" d="M2 48h5l3 2-3 2H2l-2-2 2-2Z"/><path fill="#BF85BF" d="M45 19h19c2 0 3 1 3 2 0 2-1 3-3 3H45c-1 0-2-1-2-3l2-2Z"/><path fill="#56B3B4" d="M2 19h34l2 2c0 2-1 3-2 3H2c-1 0-2-1-2-3l2-2Z"/><path fill="#F7BA3E" d="M17 67h43l2 2-2 2H17c-2 0-3-1-3-2s1-2 3-2Z"/><path fill="#BF85BF" d="M2 67h5l3 2-3 2H2l-2-2 2-2Z"/><path fill="#EA5E5E" d="M60 29h23c2 0 3 1 3 2s-1 2-3 2H60c-2 0-3-1-3-2s1-2 3-2Z"/><path fill="#F7BA3E" d="M60 38h23c2 0 3 1 3 2 0 2-1 3-3 3H60c-2 0-3-1-3-3 0-1 1-2 3-2Z"/><path fill="#56B3B4" d="M2 0h58l2 2c0 2-1 3-2 3H2C1 5 0 4 0 2l2-2Z"/><path fill="#D0D4D8" d="M69 0h29l2 2c0 2-1 3-2 3H69c-1 0-2-1-2-3l2-2Zm0 67h10l2 2-2 2H69l-2-2 2-2Zm19 0h10l2 2-2 2H88l-2-2 2-2Zm-5-10h15c1 0 2 1 2 3l-2 2H83l-2-2c0-2 1-3 2-3Zm0-47h15l2 2-2 2H83l-2-2 2-2Zm5 38h10l2 2-2 2H88l-2-2 2-2Zm0-29h10l2 2c0 2-1 3-2 3H88c-1 0-2-1-2-3l2-2Zm5 10h5l2 2-2 2h-5l-3-2 3-2Zm0 9h5l2 2c0 2-1 3-2 3h-5c-1 0-3-1-3-3l3-2ZM55 76h43c1 0 2 1 2 3l-2 2H55c-2 0-3-1-3-2 0-2 1-3 3-3Zm-19 0h9c2 0 3 1 3 3 0 1-1 2-3 2h-9c-2 0-3-1-3-2 0-2 1-3 3-3Zm38 19h24c1 0 2 1 2 3l-2 2H74c-2 0-3-1-3-2 0-2 1-3 3-3Zm-38 0h28c2 0 3 1 3 3 0 1-1 2-3 2H36c-2 0-3-1-3-2 0-2 1-3 3-3Zm0-66h14l2 2-2 2H36c-2 0-3-1-3-2s1-2 3-2Zm0 9h14l2 2c0 2-1 3-2 3H36c-2 0-3-1-3-3 0-1 1-2 3-2Z" opacity=".5"/></svg>