<svg xmlns="http://www.w3.org/2000/svg" viewBox="0 0 128 128"><g fill="#61DAFB"><circle cx="64" cy="64" r="11.4"/><path d="m107 45-7-2 2-7c2-13 0-23-7-26l-6-2c-7 0-16 5-25 14-9-9-18-14-25-14l-6 2c-7 3-9 13-7 26l2 7-7 2C8 50 1 57 1 64s7 14 20 19l7 2-2 7c-2 13 0 23 7 26l6 2c7 0 16-5 25-14 9 9 18 14 25 14l6-2c7-3 9-13 7-26l-2-7 7-2c13-5 20-12 20-19s-7-14-20-19zM93 15c4 2 5 10 3 20l-1 7c-5-2-11-2-17-3L68 26c7-7 15-12 21-12l3 1zM81 74l-6 10a138 138 0 0 1-22 0 126 126 0 0 1-11-20 161 161 0 0 1 11-20 138 138 0 0 1 22 0 126 126 0 0 1 12 20l-6 10zm9-3 3 10-10 2 3-6 4-6zM64 98l-7-9 7 1h7l-7 8zM45 83l-10-2 3-10 4 6 3 6zm-7-26-3-10 10-2-3 6-4 6zm26-27 7 9-7-1h-7l7-8zm22 21-3-6 10 2-3 10-4-6zM32 35c-2-10-1-18 4-20l3-1c6 0 14 5 21 12L50 39l-17 3-1-7zM7 64c0-5 6-10 16-13l6-2 6 15-6 16C15 76 7 70 7 64zm29 49c-5-2-6-10-4-20l1-7c5 2 11 2 17 3l10 13c-7 7-15 12-21 12l-3-1zm60-20c2 11 1 18-4 20l-3 1c-6 0-13-5-21-12l10-13c6-1 12-1 17-3l1 7zm9-16-6 3-6-16 6-16c14 4 22 10 22 16 0 5-6 10-16 13z"/></g></svg>