<svg xmlns="http://www.w3.org/2000/svg" viewBox="0 0 128 128"><path fill="#A41E11" d="m122 93-49 22c-7 4-11 3-17 1A1148 1148 0 0 1 1 91V78l56-13c8-3 10-3 17-1l53 12v13l-5 4z"/><path fill="#D82C20" d="m122 81-49 21c-7 4-11 4-17 1L6 82c-6-3-6-5 0-8l51-19c8-3 10-3 17-1l48 19c6 2 6 4 0 7z"/><path fill="#A41E11" d="M122 73 73 94c-7 4-11 4-17 1L6 74c-3-1-5-3-5-4V57l56-13c8-3 10-3 17 0s46 9 53 11v13l-5 5z"/><path fill="#D82C20" d="M122 60 73 81c-7 4-11 4-17 1L6 62c-7-3-7-6 0-8l51-20c8-3 10-3 17-1l48 19c6 2 6 4 0 8z"/><path fill="#A41E11" d="M122 51 73 73c-7 3-11 3-17 1L6 53l-5-4V36l56-13c8-3 10-3 17-1l53 12v13l-5 4z"/><path fill="#D82C20" d="M122 38 73 60c-7 4-11 4-17 1L6 40c-7-3-7-5 0-8l51-19c8-3 10-3 17-1l48 19c6 2 6 4 0 7z"/><path fill="#fff" d="m80 26-10 1-3 6-4-6-12-1 9-4-3-5 9 3 8-2-2 5zM67 55l-21-9 29-4z"/><ellipse cx="38.4" cy="35.4" fill="#fff" rx="15.5" ry="6"/><path fill="#7A0C00" d="m93 28 17 6-17 7z"/><path fill="#AD2115" d="m74 35 19-7v13l-2 1z"/></svg>