<svg xmlns="http://www.w3.org/2000/svg" fill="none" viewBox="0 0 100 100"><g clip-path="url(#a)"><path fill="url(#b)" d="M88 33c0-6-1-11-4-16-7-8-23-9-27 0s7 19 12 19c6-1-1-15-1-15 9 17 7 12-10 28-16 15-33 49-36 50h65c1 0 2-1 1-2L71 63l1-2c10-5 16-16 16-28Z"/><path fill="url(#c)" d="M88 33c0-6-1-11-4-16-7-8-23-9-27 0s7 19 12 19c6-1-1-15-1-15 9 17 7 12-10 28-16 15-33 49-36 50h65c1 0 2-1 1-2L71 63l1-2c10-5 16-16 16-28Z"/><path fill="url(#d)" d="M22 99c3-1 20-35 36-50 17-16 19-11 10-28 0 0-35 49-48 73"/><path fill="url(#e)" d="M27 55C51 12 54 8 66 8c7 0 13 2 17 8C78 6 67 0 56 0H16l-2 2v80l13-27Z"/><path fill="url(#f)" d="M58 49C42 64 25 98 22 99c-2 1-6 2-8-1-3-3-6-7 13-43C51 12 54 8 66 8c7 0 13 2 17 8l1 1c-7-8-23-9-27 0s7 19 12 19c6-1-1-15-1-15 9 17 7 12-10 28Z"/><path fill="url(#g)" d="M29 57C53 14 56 9 68 9c5 0 11 2 15 6-4-5-11-7-17-7-12 0-15 4-39 47C8 91 11 95 14 98l1 1c-2-3-3-10 14-42Z" opacity=".3"/></g><defs><linearGradient id="b" x1="39.8" x2="66.8" y1="53.3" y2="59.6" gradientUnits="userSpaceOnUse"><stop stop-color="#FF6533"/><stop offset=".2" stop-color="#FF5633"/><stop offset=".4" stop-color="#FF4333"/><stop offset=".7" stop-color="#FF3733"/><stop offset="1" stop-color="#F33"/></linearGradient><linearGradient id="c" x1="35.6" x2="83.9" y1="44.3" y2="81.8" gradientUnits="userSpaceOnUse"><stop stop-color="#BF3338"/><stop offset="1" stop-color="#F33"/></linearGradient><linearGradient id="d" x1="37.2" x2="44.2" y1="51.7" y2="59.1" gradientUnits="userSpaceOnUse"><stop stop-color="#FF6533"/><stop offset=".2" stop-color="#FF5633"/><stop offset=".4" stop-color="#FF4333"/><stop offset=".7" stop-color="#FF3733"/><stop offset="1" stop-color="#F33"/></linearGradient><linearGradient id="e" x1="49.9" x2="47.8" y1="64.4" y2="34.2" gradientUnits="userSpaceOnUse"><stop stop-color="#FF6533"/><stop offset=".2" stop-color="#FF5633"/><stop offset=".4" stop-color="#FF4333"/><stop offset=".7" stop-color="#FF3733"/><stop offset="1" stop-color="#F33"/></linearGradient><linearGradient id="f" x1="40.8" x2="50.8" y1="51.2" y2="58" gradientUnits="userSpaceOnUse"><stop stop-color="#FBB040"/><stop offset="1" stop-color="#FB8840"/></linearGradient><linearGradient id="g" x1="51" x2="40.8" y1="12.9" y2="124.7" gradientUnits="userSpaceOnUse"><stop stop-color="#fff"/><stop offset="1" stop-color="#fff" stop-opacity="0"/></linearGradient><clipPath id="a"><path fill="#fff" d="M0 0h100v100H0z"/></clipPath></defs></svg>