<svg xmlns="http://www.w3.org/2000/svg" fill="none" viewBox="0 0 100 100"><g clip-path="url(#a)"><path fill="#fff" d="m99.32 48.78-4.2-2.6-.12-1.23 3.6-3.36a1.44 1.44 0 0 0-.47-2.41l-4.61-1.73-.36-1.19 2.87-4A1.44 1.44 0 0 0 95.1 30l-4.86-.8-.59-1.09 2.05-4.48a1.44 1.44 0 0 0-1.37-2.05l-4.93.18-.78-.95 1.13-4.8A1.44 1.44 0 0 0 84 14.25l-4.8 1.14a23.1 23.1 0 0 0-.95-.78l.17-4.94a1.44 1.44 0 0 0-2.04-1.36l-4.49 2.04-1.09-.59-.79-4.86a1.45 1.45 0 0 0-2.27-.94l-4 2.88c-.4-.13-.79-.25-1.19-.36l-1.72-4.62a1.44 1.44 0 0 0-2.41-.48L55.05 5l-1.22-.12-2.6-4.2a1.44 1.44 0 0 0-2.45 0l-2.6 4.2-1.23.12-3.36-3.6a1.44 1.44 0 0 0-2.41.47L37.45 6.5c-.4.11-.8.23-1.19.36l-4-2.88a1.44 1.44 0 0 0-2.27.94l-.79 4.86-1.1.59-4.48-2.05a1.44 1.44 0 0 0-2.04 1.37l.17 4.94c-.32.25-.63.51-.94.78L16 14.26A1.45 1.45 0 0 0 14.26 16l1.13 4.8-.78.96-4.93-.18a1.45 1.45 0 0 0-1.37 2.05l2.05 4.48-.59 1.1-4.86.79a1.44 1.44 0 0 0-.94 2.27l2.88 4-.37 1.18-4.6 1.73a1.45 1.45 0 0 0-.49 2.4L5 44.96l-.12 1.23-4.2 2.6a1.44 1.44 0 0 0 0 2.45l4.2 2.6.12 1.22-3.6 3.37a1.44 1.44 0 0 0 .47 2.4l4.61 1.73.37 1.2-2.88 3.99a1.44 1.44 0 0 0 .94 2.27l4.86.8.59 1.09-2.05 4.48a1.44 1.44 0 0 0 1.37 2.04l4.93-.17.78.95-1.13 4.8A1.44 1.44 0 0 0 16 85.75l4.8-1.13.95.78-.17 4.93a1.44 1.44 0 0 0 2.04 1.37l4.49-2.05 1.1.6.78 4.85a1.44 1.44 0 0 0 2.28.94l4-2.87 1.18.36 1.73 4.6a1.44 1.44 0 0 0 2.4.49L44.96 95c.4.05.82.08 1.23.12l2.6 4.2a1.45 1.45 0 0 0 2.45 0l2.6-4.2 1.22-.12 3.37 3.6a1.44 1.44 0 0 0 2.4-.47l1.73-4.61 1.2-.36 3.99 2.87A1.44 1.44 0 0 0 70 95.1l.8-4.86 1.08-.59 4.49 2.05a1.44 1.44 0 0 0 2.04-1.37l-.17-4.93.95-.78 4.8 1.13a1.44 1.44 0 0 0 1.72-1c.07-.24.08-.5.02-.73l-1.13-4.81.78-.95 4.93.17a1.44 1.44 0 0 0 1.37-2.04l-2.05-4.48.59-1.1 4.86-.79a1.44 1.44 0 0 0 1.2-1.6 1.44 1.44 0 0 0-.26-.67l-2.88-4 .37-1.19 4.6-1.72a1.44 1.44 0 0 0 .49-2.41L95 55.05l.12-1.22 4.2-2.6a1.44 1.44 0 0 0 0-2.45ZM71.22 83.6a2.97 2.97 0 1 1 1.26-5.81 2.97 2.97 0 0 1-1.26 5.81Zm-1.43-9.65a2.7 2.7 0 0 0-3.21 2.09l-1.5 6.95A36.4 36.4 0 0 1 50 86.24c-5.5 0-10.72-1.22-15.4-3.4l-1.5-6.95a2.7 2.7 0 0 0-3.2-2.08l-6.15 1.32a36.43 36.43 0 0 1-3.17-3.75h29.88c.33 0 .56-.06.56-.36V60.45c0-.31-.23-.37-.56-.37h-8.74v-6.7h9.45c.86 0 4.61.24 5.81 5.04.38 1.47 1.2 6.27 1.77 7.8.56 1.72 2.84 5.16 5.28 5.16h14.9c.16 0 .34-.01.53-.05a36.67 36.67 0 0 1-3.39 3.97l-6.28-1.35Zm-41.32 9.5a2.97 2.97 0 1 1-1.25-5.8 2.97 2.97 0 0 1 1.25 5.8ZM17.13 37.5a2.97 2.97 0 1 1-5.44 2.4 2.97 2.97 0 0 1 5.44-2.4Zm-3.48 8.25 6.4-2.84a2.71 2.71 0 0 0 1.37-3.58l-1.31-2.98h5.18v23.36H14.83a36.6 36.6 0 0 1-1.18-13.96Zm28.07-2.27V36.6h12.34c.64 0 4.5.74 4.5 3.63 0 2.4-2.96 3.25-5.4 3.25H41.72Zm44.84 6.2c0 .91-.03 1.82-.1 2.72h-3.75c-.38 0-.53.24-.53.61v1.72c0 4.06-2.28 4.94-4.29 5.16-1.9.22-4.02-.8-4.28-1.96-1.13-6.33-3-7.69-5.96-10.02 3.67-2.34 7.5-5.78 7.5-10.39 0-4.98-3.42-8.11-5.74-9.65a16.28 16.28 0 0 0-7.85-2.58h-38.8a36.51 36.51 0 0 1 20.46-11.54l4.57 4.8a2.7 2.7 0 0 0 3.83.08l5.12-4.9a36.6 36.6 0 0 1 25.02 17.83l-3.5 7.92a2.71 2.71 0 0 0 1.38 3.57l6.74 3c.12 1.2.18 2.4.18 3.63ZM47.8 9.67a2.97 2.97 0 1 1 4.1 4.29 2.97 2.97 0 0 1-4.1-4.3Zm34.76 27.97a2.97 2.97 0 1 1 5.43 2.4 2.97 2.97 0 0 1-5.43-2.4Z"/></g><defs><clipPath id="a"><path fill="#fff" d="M0 0h100v100H0z"/></clipPath></defs></svg>