<svg xmlns="http://www.w3.org/2000/svg" viewBox="0 0 128 128"><path d="m63 0-2 3c-3 4-3 4-6 1l-3-3-1 1-2 3-2 4-3-2-4-2c-1 0-2 0-2 4-1 5-1 5-5 3l-4-2-1 1v8h-9l-1 1 1 3v4l-4 1c-5 0-5 0-3 5l1 3-4 2a102 102 0 0 1-4 1c-1 1 0 2 2 5s2 3-2 5c-5 2-5 3-1 6 3 3 3 3-1 6l-3 3 4 3c3 3 3 3 0 6-4 3-4 4 1 6 4 2 4 2 2 5l-2 4 4 2 4 2-1 3c-2 5-2 5 3 5s5 0 4 5v4h9v8l1 1 4-2c4-2 4-2 5 3 0 4 1 4 2 4l3-2c3-2 4-2 5-1l1 3 2 4c1 0 2 0 4-3 3-3 3-3 6 1s3 4 6 0c2-4 2-4 6-1l3 3 1-1 2-3 1-3c1-1 2-1 4 1l4 2 2-4 1-4 4 1 4 2 1-1v-4l1-4h8v-5c-1-4-1-4 4-4h4c1-1 0-2-1-5l-1-3 4-2 4-1c1-1 0-2-2-5-3-3-3-3 2-5s5-3 1-6c-3-3-3-3 0-6 5-3 5-3 1-6s-4-3-1-6c4-3 4-4-1-6s-5-2-2-5l2-4-4-2-4-2 1-3c1-3 2-4 1-5h-4l-4-1v-8h-9v-8l-1-1-4 2-4 1-1-4-2-4-4 2-3 2-2-2a2218 2218 0 0 1-3-6l-3 3c-4 3-4 3-6-1l-2-3h-2m3 12c3 2 1 7-2 7-4 0-5-4-3-7h5m-4 13c2 0 3 0 7-4l3-3h2c4 0 12 4 17 8 5 3 11 9 13 13l1 1-3 6-2 6 1 3 5 2 4 2 1 1v6l-1 1h-2c-3 0-3 0-3 4l-2 5c-3 1-7 1-8-1l-1-3c-1-4-3-7-6-9l-1-2 2-1c4-4 7-7 7-11 1-7-5-14-14-16l-27-1H29l5-5c5-4 12-7 19-9h2l3 3 4 4M20 46c2 1 2 4 2 5-2 3-5 3-7 1-2-4 2-8 5-6m91 0c4 3 1 9-3 7-3-1-3-5-1-7h4M32 61v16H19l-1-3-1-13v-2l5-2 5-3c1-2 1-3-1-6v-2h6v15m38-14c3 1 5 2 5 4s-1 3-3 4l-10 1h-9v-9h17m-3 22c2 0 4 1 4 3l3 8c1 5 2 7 4 9 2 3 1 2 13 2l10 1-4 4-4-1c-7-1-7-1-9 6l-1 5-1 1-9 2c-4 1-9 2-13 1-6 0-16-3-16-5a678 678 0 0 1-2-9c-1-2-3-2-8-1l-4 1-4-4 20-1h19V77H53v-9h7l7 1m-29 31c3 2 1 7-2 7-4 0-6-5-2-7h4m56 0c2 1 2 4 1 5-2 4-8 1-6-3 1-2 3-3 5-2"/></svg>