<svg xmlns="http://www.w3.org/2000/svg" viewBox="0 0 128 128"><path fill="#CB6699" fill-rule="evenodd" d="m1 56 1 2c0 3 2 5 4 8l9 8 9 6 2 2h-1l-12 7-5 6c-3 4-3 7-2 12l3 3h1l3 1h3c4 0 7-2 9-3 5-3 8-7 9-13V84a12 12 0 0 0-1-1v-1l7-4-1 2-1 9 3 9c2 2 6 2 7 0l2-3 3-7v3l1 5 2 2 3-1a10 10 0 0 0 2-3l6-11 5-12h1l1 4 2 5v2l-7 9-1 1a4 4 0 0 0-1 2 2 2 0 0 0 2 2 10 10 0 0 0 2 0l9-3c3-3 4-6 3-10l-1-3v-1a98 98 0 0 0 7-12l4 10-3 2-4 7v3c0 2 1 3 3 3 4-1 7-3 10-6 1-2 2-5 1-7l-1-2 3-1c5-1 10-1 15 1 3 1 5 3 6 5 2 4 1 7-2 9l-1 1v1l3-2 4-5v-2c-1-4-3-7-6-9-3-3-7-4-11-4a25 25 0 0 0-10 2l-2 1-1-1-2-6v-4l1-5v-1a3 3 0 0 0-1-1l-5 1-1 1-1 1-1 5-6 11-1 1-2-5v-5l1-4v-1l-1-1a12 12 0 0 0-5 1l-1 1-2 5-8 19-2 4h-1v-2a172 172 0 0 1 1-8l2-5v-2l-4-1v1-5c-1-2-2-3-4-3h-2c-4 2-7 4-9 7a3 3 0 0 1-1 0l-8 5-3 2-3-2-8-7-7-7-2-6 2-8c2-4 5-6 8-9l10-6 15-7c6-2 11-3 17-2l7 2 3 4v5l-5 9c-4 4-9 7-14 9a39 39 0 0 1-10 2l-8-1-4-3h-1l-1 1 1 2 4 3c2 2 5 2 8 2 5 1 9 0 14-1 6-2 12-5 16-10 4-4 7-9 7-15l-1-8-6-6c-4-2-8-3-13-3h-4l-15 3-11 5c-8 4-15 8-21 15L2 51a40 40 0 0 0-1 3m28 36c0 5-2 8-6 11-1 2-4 3-6 4l-3-1-1-2 1-6 5-5 9-6h1v5zm25-19-1 4-5 14-1 3a2 2 0 0 1-1 0h-1l-1-3v-2c0-4 2-8 4-12l3-4a6 6 0 0 1 2-1l1 1zm17 22 7-7c0 2-5 8-7 7zm20-5-1 1-1-1 5-8c1 3 0 6-3 8z" clip-rule="evenodd"/></svg>