<svg xmlns="http://www.w3.org/2000/svg" viewBox="0 0 128 128"><defs><linearGradient id="a" x1="-15.6" x2="-6.7" y1="-9.1" y2="-9.1" gradientTransform="matrix(0 9 -9 0 -26 155)" gradientUnits="userSpaceOnUse"><stop offset="0" stop-color="#95d7f4"/><stop offset=".9" stop-color="#0f7fcc"/><stop offset="1" stop-color="#0f7fcc"/></linearGradient></defs><path fill="#0b7fcc" d="m70 99-1-1s-2-15-4-19c-1-1 0-4 1-8a87 87 0 0 1 5 10l-4-13a162 162 0 0 1 2-6l3 7 1 1-4-11c4-18 16-42 28-53H17c-5 0-10 4-10 9v89c0 5 5 10 10 10h53a119 119 0 0 1 0-15"/><path fill="url(#a)" d="m66 71 4 8 1 2-4-13a165 165 0 0 1 2-6l3 7v-1l-3-9c4-16 14-39 25-50H17a7 7 0 0 0-7 6v83c17-7 39-13 57-13l-2-6c-1-1 0-4 1-8"/><path fill="#003956" d="M116 3c-6-5-12-3-19 3a44 44 0 0 0-3 3C83 20 73 43 69 59a46 46 0 0 1 4 13v-2l-1-1-3-7-2 6 4 13-1-2-4-8c-1 4-2 7-1 8l2 6 2 13 1 1a119 119 0 0 0 0 15l2 14h1l-2-22c1-12 4-28 9-44 9-24 22-44 34-53-11 10-25 41-30 52-5 13-8 25-10 37 3-11 15-16 15-16l12-17-12 4-4 2s10-7 19-10c12-19 25-46 12-58"/></svg>