<svg xmlns="http://www.w3.org/2000/svg" fill="none" viewBox="0 0 100 100"><g fill="#000"><path fill-rule="evenodd" d="m51 98 18-68 2 1c1 1 2 0 2-1V17l4-15h9l14 13-9 8 7 8-47 67Z" clip-rule="evenodd"/><path fill-rule="evenodd" d="M56 13h1v7l-1 1H44v-8h12Zm14-8-13 8h1v7l-1 1 13 8 2-1V6l-2-1ZM42 20v-7h1L30 5l-2 1v22l2 1 13-8-1-1Z" clip-rule="evenodd"/><path fill-rule="evenodd" d="M49 98 31 30l-2 1c-1 1-2 0-2-1V17L23 2h-9L0 15l9 8-7 8 47 67Z" clip-rule="evenodd"/><path d="M50 35c2 0 3-1 3-3s-1-4-3-4-4 2-4 4 2 3 4 3Zm0 21c2 0 3-2 3-4s-1-3-3-3-4 1-4 3 2 4 4 4Zm0 21c2 0 3-2 3-4s-1-3-3-3-4 1-4 3 2 4 4 4Z"/></g></svg>