<svg xmlns="http://www.w3.org/2000/svg" viewBox="0 0 128 128"><path fill="#ff3e00" d="M110 17A39 39 0 0 0 58 6L28 25a34 34 0 0 0-15 23 25 31 0 0 0-1 6c0 6 2 12 4 17l-5 13a25 30 0 0 0 1 14c1 5 3 9 6 13 11 17 35 22 52 11l30-19a34 34 0 0 0 16-29c0-6-2-12-4-17a34 34 0 0 0 5-19c0-7-2-15-7-21z"/><path fill="#fff" d="M55 113a28 34 0 0 1-6 0 24 24 0 0 1-23-23 16 19 0 0 1 0-3 15 19 0 0 1 1-3v-2l2 1c3 3 7 5 12 6h1v2l1 4 2 2a8 10 0 0 0 4 1 8 10 0 0 0 1 0 7 9 0 0 0 2-1l30-19a6 6 0 0 0 3-5l-1-4-3-2a8 10 0 0 0-3-1 8 10 0 0 0-2 0 7 8 0 0 0-2 1l-11 7a24 29 0 0 1-6 3 24 24 0 0 1-17-2c-4-2-6-5-9-8a22 22 0 0 1-3-16 21 21 0 0 1 9-14l30-19a22 22 0 0 1 12-3 24 24 0 0 1 19 10c3 3 4 8 4 12a16 19 0 0 1 0 4 15 19 0 0 1-1 3v2l-2-1c-3-3-7-5-12-6h-1v-2l-1-4-2-2a8 10 0 0 0-4-1 8 10 0 0 0-1 0 7 8 0 0 0-2 1L46 50a6 7 0 0 0-2 2 5 6 0 0 0-1 2 5 6 0 0 0 0 1l1 4 3 2a8 10 0 0 0 3 1 8 10 0 0 0 2 0 7 8 0 0 0 2-1l11-7a24 29 0 0 1 6-3 29 34 0 0 1 6-1 24 24 0 0 1 20 11 22 22 0 0 1 0 24l-6 6-30 19a24 29 0 0 1-6 3z"/></svg>