<svg xmlns="http://www.w3.org/2000/svg" viewBox="0 0 977 346"><linearGradient id="a" x1="3" x2="973.7" y1="172.9" y2="172.9" gradientUnits="userSpaceOnUse"><stop offset="0" stop-color="#ffa588"/><stop offset=".3" stop-color="#fcb371"/><stop offset=".8" stop-color="#f4d837"/><stop offset="1" stop-color="#f1e425"/></linearGradient><path fill="url(#a)" d="M877 343c-26 0-51-10-69-29L664 170a97 97 0 0 1-27-87h-43c-10 0-15 7-16 11s-4 12 3 19l63 63a97 97 0 0 1 21 106 97 97 0 0 1-90 60h-2c-26 1-51-9-70-28l-13-14a96 96 0 0 1-81 43c-26 0-51-10-69-29L114 88c-4-3-8-5-13-5-10 0-15 7-16 11s-4 12 4 19l62 63a97 97 0 0 1 21 106 97 97 0 0 1-90 60H53a40 40 0 1 1 0-79h28c11 0 15-7 17-11s3-12-4-20l-62-62A97 97 0 0 1 10 63c8-17 19-32 35-42a98 98 0 0 1 125 11l226 226c4 3 8 5 13 5 10 0 15-7 16-11s4-12-4-20L260 71a40 40 0 0 1 57-56l161 161 82 82c3 3 8 5 12 5h2c11 0 15-7 17-11s3-12-4-20l-62-62a97 97 0 0 1-21-107 98 98 0 0 1 91-60h162a40 40 0 1 1 0 80h-24c-10 0-15 7-17 11s-3 12 4 19l144 145c4 3 8 5 13 5 9 0 17-8 17-17a40 40 0 1 1 80 0c0 54-44 97-97 97z"/><path fill="#fff" d="M877 308c-17 0-32-7-44-19L689 145a63 63 0 0 1 10-97H594c-22 0-40 13-49 33s-4 42 12 57l62 63c18 18 24 44 14 68s-33 39-58 39h-2c-17 0-33-7-45-19l-57-57c2 12 1 25-4 37a62 62 0 0 1-58 39c-17 0-33-7-45-19L138 63a53 53 0 0 0-37-15c-22 0-41 12-49 33-8 20-4 42 11 57l63 62c18 19 23 45 13 69s-32 39-58 39H53c-3 0-5-2-5-5s2-5 5-5h28c22 0 41-13 49-33s4-42-11-57l-63-63a62 62 0 0 1-13-68 62 62 0 0 1 103-20l225 225a53 53 0 0 0 87-17c8-20 4-42-12-57L285 47c-2-2-2-6 0-8s5-2 7 0l161 162 82 81c10 10 23 16 38 16h2c21 0 40-13 48-33 9-20 4-42-11-57l-62-63c-19-18-24-44-14-68s32-39 58-39h163c3 0 5 2 5 5s-2 5-5 5h-24c-22 0-40 13-49 33-8 20-4 42 12 57l144 144a52 52 0 0 0 89-36c0-2 2-5 5-5s5 3 5 5c0 34-28 62-62 62z"/></svg>