<svg xmlns="http://www.w3.org/2000/svg" viewBox="0 0 128 128"><path fill="#ffc131" d="M86 47a12 12 0 0 1-24 0c0-7 5-13 12-13a12 12 0 0 1 12 13zm0 0"/><path fill="#24c8db" d="M41 81a12 12 0 1 1 25 0 12 12 0 1 1-25 0zm0 0"/><path fill="#ffc131" d="M99 86a47 47 0 0 1-16 6 33 33 0 0 0 2-11 33 33 0 0 0 0-4 33 33 0 0 0 7-3 33 33 0 0 0 12-14 33 33 0 0 0-21-45 33 33 0 0 0-34 11 33 33 0 0 0-2 1 54 54 0 0 0-17 6A47 47 0 0 1 60 2a47 47 0 0 1 27 0 47 47 0 0 1 33 38 47 47 0 0 1-21 46zM30 41l12 2a32 32 0 0 1 1-7 46 46 0 0 0-13 5zm0 0"/><path fill="#24c8db" d="M28 42a46 46 0 0 1 16-6 33 33 0 0 0-2 11 33 33 0 0 0 1 4 33 33 0 0 0-7 3 33 33 0 0 0-12 14 33 33 0 0 0 39 45 33 33 0 0 0 16-11 35 35 0 0 0 1-1 54 54 0 0 0 18-6 47 47 0 0 1-9 16 47 47 0 0 1-22 15 47 47 0 0 1-26 0 47 47 0 0 1-22-14A47 47 0 0 1 7 88a47 47 0 0 1 4-26 47 47 0 0 1 17-20zm69 45zm0 0"/></svg>