<svg xmlns="http://www.w3.org/2000/svg" viewBox="0 0 128 128"><path fill="#fff" d="M23 47h99v74H23z"/><path fill="#007acc" d="M2 64v62h125V1H2zm100-5a16 16 0 0 1 8 4 21 21 0 0 1 3 4l-9 6-1-1a7 7 0 0 0-6-4c-3 0-6 2-6 5a5 5 0 0 0 1 3c1 2 2 3 7 5 9 4 13 6 15 10 3 4 3 10 2 15-2 5-7 9-14 10a38 38 0 0 1-10 0 23 23 0 0 1-13-7l-3-5a9 9 0 0 1 1 0l5-3 4-2v1a17 17 0 0 0 5 5c4 2 10 1 12-1a5 5 0 0 0 1-7c-1-1-3-3-9-5-6-3-9-4-11-7a16 16 0 0 1-4-6 25 25 0 0 1 0-8c1-7 6-11 13-12a32 32 0 0 1 9 0zm-29 5v5H57v46H45V70H29v-5a49 49 0 0 1 0-5h44z" data-name="original"/></svg>