<svg xmlns="http://www.w3.org/2000/svg" fill="none" viewBox="0 0 512 471"><g clip-path="url(#a)"><path fill="#fff" d="m255 29 191 113 5 194S263 487 263 442C51 375 69 256 69 367l1-222L202 29h53Z"/><path fill="#374FBE" d="M509 225 393 13c-5-7-12-13-21-13H140c-9 0-16 6-21 13L3 224c-4 8-4 17 0 25l116 210c5 7 12 11 21 11h232c9 0 16-4 21-11l116-210c4-8 4-17 0-24Zm-96 101c0 3-2 6-5 8l-148 89c-2 2-6 2-8 0l-148-89c-3-2-5-5-5-8V148c0-3 2-6 5-8l148-89c2-2 6-2 8 0l148 89c3 2 5 5 5 8v178Z"/><path fill="#374FBE" d="M163 192v12h34v102h24V204h35v-23h-93v11Zm154-11c7 1 12 5 17 10 2 2 6 7 6 9l-18 13-3-3c-3-5-7-8-12-8-8 0-13 4-13 11l1 5c2 4 5 6 15 11 19 9 27 14 32 22 6 9 7 23 3 34-4 12-14 19-29 22h-20c-11-2-21-8-27-15l-7-11 3-1 10-6 7-5 2 3 10 10c8 4 20 4 25-2 3-2 4-5 4-8s0-5-2-7c-2-3-6-6-18-11-14-6-20-10-25-16l-8-14v-18c3-14 13-23 27-26 5-1 16-1 20 1Z"/></g><defs><clipPath id="a"><path fill="#fff" d="M0 0h512v470H0z"/></clipPath></defs></svg>