<svg xmlns="http://www.w3.org/2000/svg" xmlns:xlink="http://www.w3.org/1999/xlink" viewBox="0 0 128 128"><defs><path id="a" d="M31 109h-8l-1-1V19h-6l-2-2v-5l1-1h38l1 1v5l-1 2h-7v48l42-44v-4h-6l-1-2v-5l1-2h37l2 2v4l-90 93zm-8 0h8l89-93v-4l-1-1H82l-1 1v5l1 1h7v5L46 67V18h7l1-1v-5l-1-1H16l-2 1v5l2 1h6v89l1 2z"/></defs><path fill="#019833" d="M64 7 9 63l55 56 56-56L64 7z"/><path d="M64 119 8 63h1L65 7l56 56h-1l-56 56zM9 63l55 56 56-56L65 7 9 63z"/><path fill="#66FE98" d="M64 7V2L3 63h6L64 7z"/><path d="M9 63H3L64 2v5L9 63zm-5 0h4L64 7V3L4 63z"/><path fill="#45FE02" d="M64 7V2l61 61h-5L64 7z"/><path d="M125 63h-5L64 7V2l61 61zm-5 0h5L64 3v4l56 56z"/><path fill="#017D17" d="M64 119v5L3 63h6l55 56z"/><path d="M64 125v-1L3 63h6l55 56v6zM4 63l60 61v-5L8 63H4z"/><path d="M34 113H22l-5-3V23h-4l-3-3V10l4-4h41l3 4v9l-3 4h-3v29l30-29h-2l-3-4v-9l3-3h41l4 3v9l-91 94zm-11-5h9l88-91v-6H82l-1 1v5l1 1h11L48 62V18h6v-6l-1-1H16l-1 1v6h7v89l1 1z"/><path fill="#005D04" d="M64 119v5l61-61h-5l-56 56z"/><path d="M64 125v-6l56-56h5l-61 62zm0-6v5l61-61h-5l-56 56z"/><path d="M64 125 2 63 64 1l62 62-62 62zM4 63l60 60 60-60L64 3 4 63z"/><path fill="#FEFEFE" d="m54 12 2-1-2-2H15l-2 2v8l2 2 1-2-1-2v-5l1-1h38v1z"/><path d="m15 21-2-2v-8l2-2h39l3 2-3 1-1-1H16l-1 1v5l1 1-1 3zm-2-3 2 3 1-2-1-2v-5l1-1h37l1 1 2-1-2-2H15l-2 2v7z"/><use xlink:href="#a"/><path fill="#FEFEFE" d="M22 18v90l1 1-1 1-2-2V21l2-3z"/><path d="m22 111-2-3V21l2-3v90l1 1-1 2zm-2-3 2 2 1-1-1-1V19l-2 2v87z"/><path fill="gray" d="m16 18-1 2h5l2-2h-6z"/><path d="M20 21h-5l1-3h7l-3 3zm-5-1h5l2-2h-6l-1 2z"/><path fill="#FEFEFE" d="m81 21 2-2-2-2v-5l2-1h36l2 1 2-1-2-2H81l-2 2v8l2 2M50 57l-4 10 43-44v-5L50 57z"/><path d="m46 67 4-10 39-39v6L46 67zm4-9-4 8 43-42v-5L50 58zm31-37-2-2v-8l2-2h40l2 2-2 2-2-2H83l-2 1v5l2 2-2 2zm-2-2 2 2 1-2-1-2v-5l2-2h36l2 2 2-1-2-2H81l-2 2v8z"/><path fill="gray" d="m54 12 2-1v7l-2 3h-4v37l-4 9V18h7l1-1v-5z"/><path d="M46 67V18h7l1-1v-5l2-1v8l-2 2h-4v37l-4 9zm0-49v48l4-8V20h4l2-2v-7l-2 1v5l-1 1h-7z"/><path fill="#ccc" d="m82 11-1 1v5l1 1h7v5L46 67V18h7l1-1v-5l-1-1H16l-2 1v5l2 2h6v89l1 1h8l90-93v-4l-2-1H82z"/><use xlink:href="#a"/><path fill="gray" d="m121 12 2-1v7l-91 93h-9l1-2h7l90-93v-4z"/><path d="M32 111H22l2-2h7l89-93 1-4 2-1v7l-91 93zm-9 0h9l91-93v-7l-2 1v4l-90 93h-7l-1 2z"/><path fill="gray" d="m89 18-2 3h-6l2-3h6z"/><path d="M87 21h-6l2-3h6l-2 3zm-5 0h5l2-2h-6l-1 2z"/><path fill="#ccc" d="m67 71-2 1-1 5v1l1 1h6l1-1h1l1-6-1-1h-6zM57 84v1l-1 2 1 1h3l-8 22 1 1h11v-1l1-2h-3l8-23v-1H57zm37 1h-1l-2 2h-4l-2-2v-1H75v1l-1 2 1 1h2l-7 22v1h10v-1l1-2h-2l4-15h9l-5 17v1h9v-1l1-2h-2l5-15h8l-5 17v1h10l1-1 1-2h-3l6-20v-1l-2-2h-7l-3 2h-4l-2-2h-6v-1z"/><path d="M64 112H52l-1-2 7-21h-2l-1-2 1-2 1-1h13l1 1-8 22h2l1 1-1 3-1 1zm-4-25h1l-8 23h11v-2h-3l8-23H58v2h2zm53 24h-10l-1-1 5-17h-6l-5 14h1l1 2-1 2-1 1H86l-1-2 6-17h-7l-4 14h1v4l-2 1h-9l-1-1-1-1 7-21h-1l-1-2 1-3h11l2 2h3l2-2h8l2 2h4l2-2h9l2 3v1l-6 19h1l1 1-1 3h-1zM77 87h1l-7 22h8v-1h-2l6-17h10l-5 18h8-2l5-18h11l-6 19h9v-2h-2l6-20-1-3h-7l-2 3h-5l-3-3h-5l-2 3h-5l-3-3h-8l-1 2h2zm-7-7h-6l-1-2-1-1 2-5v-1l2-1h7l1 1v2l-1 5-2 2h-1zm-6-3 1 1h5l1-1 2-5h-6l-1 1-2 4z"/><path fill="#ccc" d="m67 71-1 2-2 4 1 2h6l1-2 1-5-1-1h-5zM57 85v2h3l-7 23h11l1-2h-3l8-23H57zm37 0-3 3h-4l-3-3h-9v2h2l-7 23h9l1-2h-2l5-16h10l-6 18h9l1-2h-3l6-16h9l-6 18h10l1-2h-3l6-20-1-3h-8l-2 3h-4l-3-3h-5z"/><path d="M64 110H52l8-22h-3v-3h13l-8 23h3l-1 2zm-11 0h11v-2h-3l8-23H58l-1 2h4l-8 23zm60 0h-10l6-18h-9l-5 16h2l-1 2h-9l5-18h-9l-5 16h3l-1 2H70l8-22h-3l1-3h9l2 3h4l3-3h6l2 3h5l2-3h7l2 3-6 20h3l-2 2zm-10 0h10l1-2h-2l6-21-2-2h-7l-3 3h-4l-3-3h-5l-3 3h-4l-3-3h-9v2h3l-8 23h9l1-2h-2l5-16h10l-6 18h9l1-2h-3l6-17h9l-6 19zM70 79h-5l-1-2 1-5 2-1h5l2 1-2 5-2 2zm-5 0h5l2-2 1-5-1-1h-5l-1 2-2 4 1 2z"/></svg>