<svg xmlns="http://www.w3.org/2000/svg" viewBox="0 0 128 128"><mask id="a" width="128" height="128" x="0" y="0" maskUnits="userSpaceOnUse" style="mask-type:alpha"><path fill="#fff" fill-rule="evenodd" d="M91 127a8 8 0 0 0 6 0l26-13a8 8 0 0 0 5-7V21a8 8 0 0 0-5-7L97 1a8 8 0 0 0-9 2L38 49 16 32a5 5 0 0 0-7 0l-7 7a5 5 0 0 0 0 8l19 17L2 81a5 5 0 0 0 0 8l7 7a5 5 0 0 0 7 0l22-17 50 46a8 8 0 0 0 3 2Zm5-92L58 64l38 29V35Z" clip-rule="evenodd"/></mask><g mask="url(#a)"><path fill="#0065A9" d="M123 14 97 1a8 8 0 0 0-9 2L2 81a5 5 0 0 0 0 8l7 7a5 5 0 0 0 7 0l104-79c3-3 8 0 8 4a8 8 0 0 0-5-7Z"/><g filter="url(#b)"><path fill="#007ACC" d="m123 114-26 13a8 8 0 0 1-9-2L2 47a5 5 0 0 1 0-8l7-7a5 5 0 0 1 7 0l104 79c3 3 8 0 8-4a8 8 0 0 1-5 7Z"/></g><g filter="url(#c)"><path fill="#1F9CF0" d="M97 127a8 8 0 0 1-9-2c3 3 8 1 8-3V6c0-4-5-6-8-3a8 8 0 0 1 9-2l26 13a8 8 0 0 1 5 7v86a8 8 0 0 1-5 7l-26 13Z"/></g><path fill="url(#d)" fill-rule="evenodd" d="M91 127a8 8 0 0 0 6 0l26-13a8 8 0 0 0 5-7V21a8 8 0 0 0-5-7L97 1a8 8 0 0 0-9 2L37 49 16 32a5 5 0 0 0-7 0l-7 7a5 5 0 0 0 0 8l19 17L2 81a5 5 0 0 0 0 8l7 7a5 5 0 0 0 7 0l21-17 51 46a8 8 0 0 0 3 2Zm5-92L58 64l38 29V35Z" clip-rule="evenodd" opacity=".3" style="mix-blend-mode:overlay"/></g><defs><filter id="b" width="144.7" height="113.4" x="-8" y="23" color-interpolation-filters="sRGB" filterUnits="userSpaceOnUse"><feFlood flood-opacity="0" result="BackgroundImageFix"/><feColorMatrix in="SourceAlpha" result="hardAlpha" values="0 0 0 0 0 0 0 0 0 0 0 0 0 0 0 0 0 0 127 0"/><feOffset/><feGaussianBlur stdDeviation="4.2"/><feColorMatrix values="0 0 0 0 0 0 0 0 0 0 0 0 0 0 0 0 0 0 0.25 0"/><feBlend in2="BackgroundImageFix" mode="overlay" result="effect1_dropShadow_1_36"/><feBlend in="SourceGraphic" in2="effect1_dropShadow_1_36" result="shape"/></filter><filter id="c" width="56.7" height="144" x="80" y="-8" color-interpolation-filters="sRGB" filterUnits="userSpaceOnUse"><feFlood flood-opacity="0" result="BackgroundImageFix"/><feColorMatrix in="SourceAlpha" result="hardAlpha" values="0 0 0 0 0 0 0 0 0 0 0 0 0 0 0 0 0 0 127 0"/><feOffset/><feGaussianBlur stdDeviation="4.2"/><feColorMatrix values="0 0 0 0 0 0 0 0 0 0 0 0 0 0 0 0 0 0 0.25 0"/><feBlend in2="BackgroundImageFix" mode="overlay" result="effect1_dropShadow_1_36"/><feBlend in="SourceGraphic" in2="effect1_dropShadow_1_36" result="shape"/></filter><linearGradient id="d" x1="63.9" x2="63.9" y1=".3" y2="127.7" gradientUnits="userSpaceOnUse"><stop stop-color="#fff"/><stop offset="1" stop-color="#fff" stop-opacity="0"/></linearGradient></defs></svg>