<svg xmlns="http://www.w3.org/2000/svg" viewBox="0 0 128 128"><defs><linearGradient id="a" x1="6" x2="235" y1="33" y2="344" gradientTransform="translate(0 .937) scale(.3122)" gradientUnits="userSpaceOnUse"><stop offset="0" stop-color="#41d1ff"/><stop offset="1" stop-color="#bd34fe"/></linearGradient><linearGradient id="b" x1="194.7" x2="236.1" y1="8.8" y2="293" gradientTransform="translate(0 .937) scale(.3122)" gradientUnits="userSpaceOnUse"><stop offset="0" stop-color="#ffea83"/><stop offset=".1" stop-color="#ffdd35"/><stop offset="1" stop-color="#ffa800"/></linearGradient></defs><path fill="url(#a)" d="M125 20 67 122c-1 2-4 2-5 0L3 20c-1-3 1-6 4-5l57 10a3 3 0 0 0 1 0l56-10c3-1 5 2 4 5Zm0 0"/><path fill="url(#b)" d="m91 1-42 9a2 2 0 0 0-1 1l-3 44a2 2 0 0 0 2 2l12-3a2 2 0 0 1 2 2l-4 17a2 2 0 0 0 2 2l7-2c2 0 3 1 2 2l-5 27c0 1 2 2 3 1v-1l35-69c1-1 0-3-2-2l-12 2a2 2 0 0 1-2-2l8-28a2 2 0 0 0-2-2Zm0 0"/></svg>