<svg xmlns="http://www.w3.org/2000/svg" viewBox="0 0 128 128"><defs><linearGradient id="a" x1="38.9" x2="63.7" y1="6.5" y2="95.9" gradientUnits="userSpaceOnUse"><stop offset=".3" stop-color="#07c3f2"/><stop offset=".9" stop-color="#087cfa"/></linearGradient><linearGradient id="b" x1="46.6" x2="88.7" y1="17.9" y2="79.5" gradientUnits="userSpaceOnUse"><stop offset=".1" stop-color="#fcf84a"/><stop offset=".4" stop-color="#07c3f2"/></linearGradient><linearGradient id="c" x1="88.3" x2="93.8" y1="25.5" y2="45" gradientUnits="userSpaceOnUse"><stop offset=".3" stop-color="#07c3f2"/><stop offset=".9" stop-color="#087cfa"/></linearGradient></defs><path fill="url(#a)" d="M21 111 5 18 35 6l18 11 17-9 36 13-20 102Zm0 0"/><path fill="url(#b)" d="M123 45 107 8 80 5 38 46l11 53 21 14 53-31-13-24Zm0 0"/><path fill="url(#c)" d="m99 40 11 18 13-13-10-23Zm0 0"/><path d="M27 27h74v74H27Zm0 0"/><path fill="#fff" d="M37 87h27v4H37Zm26-50-5 16-4-16h-5l-5 16-4-16h-6l8 27h5l4-16 5 16h5l8-27Zm7 23 4-4a13 13 0 0 0 8 3l4-2v-1c0-1-1-2-6-3s-9-3-9-8v-1c0-5 4-8 10-8a16 16 0 0 1 10 4l-3 4a13 13 0 0 0-7-2c-3 0-4 1-4 2 0 2 1 2 6 4 6 1 9 3 9 8s-4 9-10 9a17 17 0 0 1-12-5"/></svg>