<svg xmlns="http://www.w3.org/2000/svg" xmlns:xlink="http://www.w3.org/1999/xlink" fill="none" viewBox="0 0 512 512"><defs><path id="d" fill="#fff" d="M0 0h512v512H0z"/></defs><g clip-path="url(#a)"><g clip-path="url(#b)"><path fill="url(#c)" d="M102 0h308a102 102 0 0 1 102 102v308a102 102 0 0 1-102 102H102A102 102 0 0 1 0 410V102A102 102 0 0 1 102 0Z"/><path fill="#4E49EE" d="M126 201c0-10 10-16 33-16l-7 44c-15-10-26-19-26-28Zm63 107c0 11-10 17-33 18l8-46c15 10 25 19 25 28Zm-41 95 7-43c57-5 79-28 79-54s-32-46-61-64l11-55 43 6 5-38-36-4 8-41-37-1-7 43c-56 4-79 28-79 53 0 26 32 45 61 62l-11 59c-13-1-30-3-49-7l-7 39 44 4-8 40 37 1Zm244-30h42c6-44 13-133 18-234h-40c-1 24-5 165-7 177h-1l-28-107h-23l-27 107h-1c-2-12-8-153-9-177h-41c4 101 12 190 17 234h41l29-112 30 112Z"/></g></g><defs><clipPath id="a"><use xlink:href="#d"/></clipPath><clipPath id="b"><use xlink:href="#d"/></clipPath><linearGradient id="c" x1="264.7" x2="264.7" y1="4.4" y2="511" gradientUnits="userSpaceOnUse"><stop stop-color="#2B383F"/><stop offset="1" stop-color="#172024"/></linearGradient></defs></svg>