<svg xmlns="http://www.w3.org/2000/svg" viewBox="0 0 128 128"><path fill="#ae007f" fill-rule="evenodd" d="m118 46 1-7c1 2 1 5 3 6h5l-5 4 4 5c-3 0-5-2-7-4l-5 5 3-6-6-3h7"/><path fill="#97bd00" fill-rule="evenodd" d="m120 60 1-5 2 5h4l-4 2 3 4c-2 0-4-2-5-3l-4 4 2-4-4-3h5"/><path fill="#f07f00" fill-rule="evenodd" d="m114 72 1-4 1 3h2l-2 2 2 2-4-1-2 2 1-3-2-2 3 1"/><path fill="#005cab" fill-rule="evenodd" d="M22 71 8 83l-3 4c-2 0-2-1-3-2s-2-4 0-4l18-17v-5a44 44 0 0 1 1-19c1-2 0-5 3-6 0 1 5 3 3 7-1 5-3 11-2 17 0 1 0 2 1 1 7-5 19-11 22-12l4-1c2 0 2 1 3 2 4 4-4 17-4 20l2-2a249 249 0 0 0 5-4c2-2 4-4 7-4 8-1 5 9 4 13l5-4 3-3 2-1c1 0 3 2 3 4l-1 5c0 1 0 6 2 6l2-1 3 1c2 1 0 3-1 4-1 2-3 3-5 2-2 0-4-1-5-3l-1-5c0-2 0-3-1-2l-10 9c-4 4-7-1-7-5l5-12c-2 0-4 3-5 4l-5 6-5 5c-2 2-3 4-5 4s-3-2-4-5l1-5 10-22c-3 1-15 6-23 13-2 2 0 5 1 7l5 8c2 2 0 3-2 3l-3-2-3-3c-1-3-3-5-3-8m84-31c-1-2-4 2-6 4-4 5-8 16-8 18-2 7-3 14 1 20 3 3 7 3 11 2 2 0 4-2 5-4 1-1 1-4-2-2l-7 2c-2 0-4-2-4-4l-1-7a70 70 0 0 1 10-25l1-4zm0 0"/></svg>