<svg xmlns="http://www.w3.org/2000/svg" viewBox="0 0 128 128"><g fill="#2c8ebb"><path d="M99 81c-4 0-8 2-11 4-6 4-9 3-9 3-1 0 2-6-1-14-3-7-7-9-7-10 2-2 6-7 7-14 1-5 1-13-1-17l-4 2-4-8c-3-2-6 8-6 8a14 14 0 0 0-12 4 10 10 0 0 1-4 2l-2 4c-2 5 3 11 3 11s-6 4-8 9a25 25 0 0 0-2 12s-4 4-4 8a13 13 0 0 0 1 8 2 2 0 0 0 3 1s-3 3 0 4c2 2 6 2 9 0l2-6 1 1a10 10 0 0 0 2 1s-4 1-3 5l6 2 17-1a4 4 0 0 0 2-2 63 63 0 0 0 16-7l10-5c4 0 3-5-1-5z"/><path d="M64 2a62 62 0 1 0 62 62A62 62 0 0 0 64 2zm37 88c-3 1-5 1-9 4a67 67 0 0 1-16 7 9 9 0 0 1-3 2l-18 2c-4 0-7-1-8-3-3 2-8 1-11 0a6 6 0 0 1-3-4 6 6 0 0 1 0-2 7 7 0 0 1-1-1 16 16 0 0 1-2-10c0-4 3-8 5-9a29 29 0 0 1 2-12 27 27 0 0 1 6-9c-1-3-3-7-1-11 1-4 2-5 4-6a7 7 0 0 0 2-1 18 18 0 0 1 12-6l1-1c2-4 3-6 5-6a5 5 0 0 1 5 0l4 6a5 5 0 0 1 2 0 4 4 0 0 1 3 2c2 5 3 13 2 19a34 34 0 0 1-6 13 26 26 0 0 1 5 9 25 25 0 0 1 2 11 29 29 0 0 0 3-2c3-2 8-5 13-5a7 7 0 0 1 7 6 6 6 0 0 1-5 7z"/></g></svg>