<svg xmlns="http://www.w3.org/2000/svg" fill="none" viewBox="0 0 100 100"><path fill="#142641" d="M93 31 77 15H23L7 31l41 51 45-51Z"/><path fill="#274D82" fill-rule="evenodd" d="m56 13-3 2-1-2-1 1-1-1-3 1-1-1-1-2v1l-1-2L6 32l1 3v-1l1 2 1 1h1v1l1 1 1 2 45-26-1-2Zm16 43H56v2H34l55-31-6-11-2 1v-1l-14 7 1 2-45 26 6 10v4h4v5h32v-5h4v-7h3v-2Z" clip-rule="evenodd"/><path fill="#3068B7" fill-rule="evenodd" d="M80 10H21L0 31l48 58 4-4 48-54-20-21Zm-3 5 16 16-45 51L7 31l16-16h54Z" clip-rule="evenodd"/></svg>